<svg width="21" height="21" viewBox="0 0 21 21" fill="none" xmlns="http://www.w3.org/2000/svg">
<g clip-path="url(#clip0_430_480)">
<path d="M17.8573 5.20338C16.5941 4.62379 15.2395 4.19677 13.8233 3.9522C13.7975 3.94748 13.7717 3.95927 13.7584 3.98287C13.5842 4.29271 13.3913 4.69692 13.2561 5.01463C11.7328 4.78658 10.2174 4.78658 8.72532 5.01463C8.59017 4.68986 8.3902 4.29271 8.21521 3.98287C8.20192 3.96006 8.17616 3.94826 8.15036 3.9522C6.73488 4.19599 5.38033 4.62301 4.11638 5.20338C4.10544 5.2081 4.09606 5.21597 4.08984 5.22619C1.52054 9.06466 0.816699 12.8088 1.16198 16.5065C1.16354 16.5246 1.1737 16.5419 1.18776 16.5529C2.88291 17.7978 4.52495 18.5535 6.1365 19.0545C6.16229 19.0623 6.18962 19.0529 6.20603 19.0317C6.58724 18.5111 6.92706 17.9622 7.21842 17.3849C7.23562 17.3511 7.2192 17.311 7.18406 17.2976C6.64505 17.0932 6.13181 16.8439 5.63811 16.5608C5.59906 16.538 5.59593 16.4821 5.63185 16.4554C5.73575 16.3775 5.83967 16.2965 5.93887 16.2147C5.95682 16.1998 5.98183 16.1966 6.00293 16.2061C9.24636 17.6869 12.7577 17.6869 15.9629 16.2061C15.984 16.1959 16.009 16.199 16.0277 16.2139C16.127 16.2957 16.2309 16.3775 16.3355 16.4554C16.3715 16.4821 16.3691 16.538 16.3301 16.5608C15.8364 16.8494 15.3231 17.0932 14.7833 17.2968C14.7482 17.3102 14.7326 17.3511 14.7498 17.3849C15.0474 17.9613 15.3872 18.5103 15.7614 19.0309C15.777 19.0529 15.8051 19.0623 15.8309 19.0545C17.4503 18.5535 19.0923 17.7978 20.7874 16.5529C20.8023 16.5419 20.8117 16.5254 20.8132 16.5073C21.2265 12.2323 20.1211 8.5189 17.883 5.22697C17.8776 5.21597 17.8682 5.2081 17.8573 5.20338ZM7.70277 14.255C6.72628 14.255 5.92168 13.3585 5.92168 12.2575C5.92168 11.1565 6.71068 10.26 7.70277 10.26C8.70266 10.26 9.49947 11.1644 9.48384 12.2575C9.48384 13.3585 8.69484 14.255 7.70277 14.255ZM14.2881 14.255C13.3116 14.255 12.507 13.3585 12.507 12.2575C12.507 11.1565 13.296 10.26 14.2881 10.26C15.288 10.26 16.0848 11.1644 16.0692 12.2575C16.0692 13.3585 15.288 14.255 14.2881 14.255Z" fill="url(#paint0_linear_430_480)"/>
</g>
<defs>
<linearGradient id="paint0_linear_430_480" x1="15.3818" y1="0.0566448" x2="4.55566" y2="15.167" gradientUnits="userSpaceOnUse">
<stop stop-color="#2EE297"/>
<stop offset="1" stop-color="#1DC9D4"/>
</linearGradient>
<clipPath id="clip0_430_480">
<rect width="20" height="20" fill="white" transform="translate(0.990234 0.881836)"/>
</clipPath>
</defs>
</svg>
