<svg width="49" height="48" viewBox="0 0 49 48" fill="none" xmlns="http://www.w3.org/2000/svg">
<g clip-path="url(#clip0_515_548)">
<path d="M17.7613 36.5309C22.5457 37.8629 27.4845 37.8666 32.2382 36.54C32.2244 36.7392 32.2632 36.9455 32.3631 37.1387L32.3631 37.1387L32.366 37.1441C33.0419 38.4324 33.8126 39.657 34.6593 40.8165C34.9489 41.2152 35.4538 41.3735 35.9082 41.2371L35.9118 41.236C39.5547 40.1272 43.2546 38.4514 47.0676 35.6961L47.0709 35.6937C47.325 35.5085 47.5013 35.2186 47.5337 34.8849C48.463 25.4249 45.9741 17.1935 40.9592 9.92381C40.8265 9.71262 40.6411 9.5771 40.4676 9.50023C37.6252 8.21745 34.5775 7.27222 31.3909 6.73057C30.9273 6.65032 30.4527 6.8636 30.2113 7.28546L30.2109 7.28608C29.9303 7.77716 29.6329 8.36415 29.3744 8.9151C26.4477 8.54649 23.5329 8.54557 20.6531 8.91346C20.3855 8.35218 20.0781 7.76977 19.7995 7.2844L19.7996 7.28436L19.7927 7.27271C19.5468 6.85747 19.0823 6.66105 18.6417 6.72715L18.6324 6.72855L18.623 6.73014C15.4372 7.27004 12.3886 8.21542 9.54397 9.50015C9.35757 9.58263 9.18447 9.71969 9.05929 9.90953C3.29527 18.387 1.70413 26.6917 2.48064 34.8781C2.5123 35.2209 2.69438 35.5021 2.92296 35.678L2.93491 35.6872L2.94714 35.696C6.76005 38.4513 10.4596 40.1269 14.0846 41.2356L14.0895 41.2371C14.555 41.3769 15.0358 41.2045 15.316 40.8478L15.324 40.8376L15.3317 40.8272C16.1979 39.6632 16.9722 38.4331 17.6372 37.1369C17.7399 36.9373 17.7772 36.7294 17.7613 36.5309ZM20.7123 25.6093L20.7122 25.6166V25.6239C20.7122 27.5444 19.337 28.9308 17.8093 28.9308C16.3104 28.9308 14.9064 27.5385 14.9064 25.6239C14.9064 23.7033 16.2816 22.3169 17.8093 22.3169C19.3611 22.3169 20.7397 23.7254 20.7123 25.6093ZM35.1428 25.6094L35.1427 25.6166V25.6239C35.1427 27.5474 33.7819 28.9308 32.2398 28.9308C30.7409 28.9308 29.3369 27.5385 29.3369 25.6239C29.3369 23.7033 30.712 22.3169 32.2398 22.3169C33.7916 22.3169 35.1701 23.7254 35.1428 25.6094Z" stroke="#0F2830" stroke-width="2"/>
</g>
<defs>
<clipPath id="clip0_515_548">
<rect width="48" height="48" fill="white" transform="translate(0.724609)"/>
</clipPath>
</defs>
</svg>
