<svg width="12" height="12" viewBox="0 0 12 12" fill="none" xmlns="http://www.w3.org/2000/svg">
<path d="M10.6 1.2002H11.6C11.6 0.647911 11.1523 0.200195 10.6 0.200195V1.2002ZM1 0.200195C0.447715 0.200195 0 0.647911 0 1.2002C0 1.75248 0.447715 2.2002 1 2.2002V0.200195ZM9.6 10.8002C9.6 11.3525 10.0477 11.8002 10.6 11.8002C11.1523 11.8002 11.6 11.3525 11.6 10.8002H9.6ZM0.292893 10.0931C-0.097631 10.4836 -0.0976311 11.1168 0.292893 11.5073C0.683417 11.8978 1.31658 11.8978 1.70711 11.5073L0.292893 10.0931ZM10.6 0.200195L1 0.200195V2.2002H10.6V0.200195ZM9.6 1.2002V10.8002H11.6V1.2002H9.6ZM1.70711 11.5073L11.3071 1.9073L9.89289 0.493088L0.292893 10.0931L1.70711 11.5073Z" fill="url(#paint0_linear_883_5)"/>
<defs>
<linearGradient id="paint0_linear_883_5" x1="7.9277" y1="-1.2748" x2="0.675533" y2="6.44043" gradientUnits="userSpaceOnUse">
<stop stop-color="#2EE297"/>
<stop offset="1" stop-color="#1DC9D4"/>
</linearGradient>
</defs>
</svg>
