<svg width="21" height="21" viewBox="0 0 21 21" fill="none" xmlns="http://www.w3.org/2000/svg">
<g clip-path="url(#clip0_430_482)">
<path fill-rule="evenodd" clip-rule="evenodd" d="M10.9869 1.38184C8.62772 1.38306 6.34589 2.21864 4.54944 3.73916C2.75298 5.25968 1.55905 7.36599 1.18112 9.68146C0.80319 11.9969 1.26591 14.3706 2.48654 16.378C3.70717 18.3853 5.60612 19.8956 7.84383 20.6386C8.33751 20.7302 8.52346 20.4242 8.52346 20.1641C8.52346 19.9039 8.51358 19.1496 8.51029 18.3249C5.74571 18.9222 5.16153 17.1583 5.16153 17.1583C4.71064 16.013 4.05899 15.7119 4.05899 15.7119C3.1572 15.0999 4.12646 15.1114 4.12646 15.1114C5.12533 15.1818 5.65027 16.1308 5.65027 16.1308C6.5356 17.641 7.97548 17.2041 8.54156 16.9489C8.63042 16.3091 8.88878 15.8739 9.17347 15.6268C6.96509 15.3781 4.64481 14.5305 4.64481 10.7443C4.63113 9.76238 4.99759 8.81279 5.66837 8.092C5.56635 7.84329 5.22571 6.83865 5.76546 5.47404C5.76546 5.47404 6.59978 5.20897 8.49878 6.48686C10.1276 6.04396 11.8462 6.04396 13.475 6.48686C15.3724 5.20897 16.2051 5.47404 16.2051 5.47404C16.7464 6.83538 16.4058 7.84002 16.3038 8.092C16.9767 8.8129 17.3439 9.76415 17.329 10.7476C17.329 14.542 15.0038 15.3781 12.7921 15.6219C13.1476 15.9295 13.4652 16.53 13.4652 17.4528C13.4652 18.7749 13.4536 19.8385 13.4536 20.1641C13.4536 20.4275 13.633 20.7351 14.1365 20.6386C16.3745 19.8955 18.2737 18.385 19.4943 16.3773C20.7149 14.3695 21.1774 11.9955 20.799 9.67985C20.4206 7.36416 19.2261 5.25783 17.4291 3.73757C15.632 2.21731 13.3497 1.38228 10.9902 1.38184H10.9869Z" fill="url(#paint0_linear_430_482)"/>
<path d="M4.81203 15.5694C4.79064 15.6185 4.71165 15.6332 4.64748 15.5989C4.5833 15.5645 4.53558 15.5007 4.55862 15.45C4.58166 15.3993 4.659 15.3862 4.72318 15.4205C4.78735 15.4549 4.83672 15.5203 4.81203 15.5694Z" fill="url(#paint1_linear_430_482)"/>
<path d="M5.21514 16.0165C5.18106 16.0336 5.14207 16.0384 5.10484 16.03C5.06762 16.0217 5.03448 16.0007 5.01109 15.9707C4.94691 15.902 4.93374 15.8071 4.9831 15.7646C5.03247 15.722 5.12134 15.7417 5.18552 15.8104C5.2497 15.8791 5.2645 15.974 5.21514 16.0165Z" fill="url(#paint2_linear_430_482)"/>
<path d="M5.6065 16.5838C5.54562 16.6263 5.44194 16.5838 5.38434 16.4987C5.36842 16.4834 5.35575 16.4651 5.3471 16.4449C5.33845 16.4247 5.33398 16.4029 5.33398 16.3809C5.33398 16.3589 5.33845 16.3371 5.3471 16.3169C5.35575 16.2966 5.36842 16.2784 5.38434 16.2631C5.44523 16.2222 5.54891 16.2631 5.6065 16.3465C5.6641 16.43 5.66575 16.5412 5.6065 16.5838Z" fill="url(#paint3_linear_430_482)"/>
<path d="M6.13907 17.1335C6.08476 17.194 5.97451 17.1777 5.884 17.0959C5.7935 17.0141 5.7721 16.9028 5.8264 16.8439C5.88071 16.785 5.99096 16.8013 6.08476 16.8815C6.17856 16.9617 6.19666 17.0746 6.13907 17.1335Z" fill="url(#paint4_linear_430_482)"/>
<path d="M6.88352 17.4542C6.85884 17.5311 6.74694 17.5655 6.63504 17.5327C6.52314 17.5 6.44909 17.4084 6.47048 17.3298C6.49187 17.2513 6.60542 17.2153 6.71896 17.2513C6.83251 17.2873 6.90491 17.374 6.88352 17.4542Z" fill="url(#paint5_linear_430_482)"/>
<path d="M7.69769 17.5102C7.69769 17.5904 7.60554 17.6591 7.48706 17.6608C7.36857 17.6624 7.27148 17.5969 7.27148 17.5168C7.27148 17.4366 7.36363 17.3679 7.48212 17.3662C7.6006 17.3646 7.69769 17.4284 7.69769 17.5102Z" fill="url(#paint6_linear_430_482)"/>
<path d="M8.45388 17.3844C8.46869 17.4646 8.38641 17.5481 8.26793 17.5677C8.14945 17.5873 8.04578 17.5399 8.03097 17.4613C8.01616 17.3828 8.10173 17.2977 8.21692 17.2765C8.33211 17.2552 8.43907 17.3043 8.45388 17.3844Z" fill="url(#paint7_linear_430_482)"/>
</g>
<defs>
<linearGradient id="paint0_linear_430_482" x1="15.3952" y1="-3.58747" x2="0.86863" y2="12.3477" gradientUnits="userSpaceOnUse">
<stop stop-color="#2EE297"/>
<stop offset="1" stop-color="#1DC9D4"/>
</linearGradient>
<linearGradient id="paint1_linear_430_482" x1="4.74453" y1="15.3456" x2="4.58658" y2="15.5522" gradientUnits="userSpaceOnUse">
<stop stop-color="#2EE297"/>
<stop offset="1" stop-color="#1DC9D4"/>
</linearGradient>
<linearGradient id="paint2_linear_430_482" x1="5.16341" y1="15.6669" x2="4.9429" y2="15.9012" gradientUnits="userSpaceOnUse">
<stop stop-color="#2EE297"/>
<stop offset="1" stop-color="#1DC9D4"/>
</linearGradient>
<linearGradient id="paint3_linear_430_482" x1="5.56226" y1="16.156" x2="5.2951" y2="16.4104" gradientUnits="userSpaceOnUse">
<stop stop-color="#2EE297"/>
<stop offset="1" stop-color="#1DC9D4"/>
</linearGradient>
<linearGradient id="paint4_linear_430_482" x1="6.06753" y1="16.7154" x2="5.79535" y2="17.016" gradientUnits="userSpaceOnUse">
<stop stop-color="#2EE297"/>
<stop offset="1" stop-color="#1DC9D4"/>
</linearGradient>
<linearGradient id="paint5_linear_430_482" x1="6.77022" y1="17.158" x2="6.55264" y2="17.4742" gradientUnits="userSpaceOnUse">
<stop stop-color="#2EE297"/>
<stop offset="1" stop-color="#1DC9D4"/>
</linearGradient>
<linearGradient id="paint6_linear_430_482" x1="7.57905" y1="17.2903" x2="7.37533" y2="17.6038" gradientUnits="userSpaceOnUse">
<stop stop-color="#2EE297"/>
<stop offset="1" stop-color="#1DC9D4"/>
</linearGradient>
<linearGradient id="paint7_linear_430_482" x1="8.33694" y1="17.194" x2="8.12734" y2="17.5101" gradientUnits="userSpaceOnUse">
<stop stop-color="#2EE297"/>
<stop offset="1" stop-color="#1DC9D4"/>
</linearGradient>
<clipPath id="clip0_430_482">
<rect width="20" height="20" fill="white" transform="translate(0.990234 0.881836)"/>
</clipPath>
</defs>
</svg>
