<svg width="21" height="21" viewBox="0 0 21 21" fill="none" xmlns="http://www.w3.org/2000/svg">
<g clip-path="url(#clip0_430_471)">
<path d="M10.9902 2.68414C13.6619 2.68414 13.9756 2.69605 15.0315 2.74369C16.0081 2.78735 16.5361 2.95012 16.8894 3.08906C17.3579 3.27167 17.6913 3.48604 18.0407 3.83539C18.39 4.18473 18.6083 4.5182 18.787 4.98664C18.922 5.33995 19.0887 5.86794 19.1324 6.84452C19.18 7.90049 19.1919 8.21411 19.1919 10.8858C19.1919 13.5575 19.18 13.8711 19.1324 14.9271C19.0887 15.9037 18.9259 16.4317 18.787 16.785C18.6044 17.2534 18.39 17.5869 18.0407 17.9362C17.6913 18.2856 17.3579 18.5039 16.8894 18.6826C16.5361 18.8175 16.0081 18.9843 15.0315 19.0279C13.9756 19.0756 13.6619 19.0875 10.9902 19.0875C8.31854 19.0875 8.00493 19.0756 6.94895 19.0279C5.97237 18.9843 5.44439 18.8215 5.09107 18.6826C4.62263 18.4999 4.28916 18.2856 3.93982 17.9362C3.59047 17.5869 3.37213 17.2534 3.19349 16.785C3.05852 16.4317 2.89178 15.9037 2.84812 14.9271C2.80048 13.8711 2.78857 13.5575 2.78857 10.8858C2.78857 8.21411 2.80048 7.90049 2.84812 6.84452C2.89178 5.86794 3.05455 5.33995 3.19349 4.98664C3.3761 4.5182 3.59047 4.18473 3.93982 3.83539C4.28916 3.48604 4.62263 3.2677 5.09107 3.08906C5.44439 2.95409 5.97237 2.78735 6.94895 2.74369C8.00493 2.69208 8.32251 2.68414 10.9902 2.68414ZM10.9902 0.881836C8.27488 0.881836 7.93347 0.893745 6.86559 0.941383C5.80167 0.989021 5.07519 1.15972 4.44002 1.40585C3.78103 1.65992 3.22525 2.0053 2.66947 2.56107C2.1137 3.11685 1.77229 3.6766 1.51425 4.33162C1.26812 4.96679 1.09742 5.69327 1.04978 6.76115C1.00214 7.82507 0.990234 8.16647 0.990234 10.8818C0.990234 13.5972 1.00214 13.9386 1.04978 15.0065C1.09742 16.0704 1.26812 16.7969 1.51425 17.436C1.76832 18.095 2.1137 18.6508 2.66947 19.2066C3.22525 19.7623 3.785 20.1037 4.44002 20.3618C5.07519 20.6079 5.80167 20.7786 6.86956 20.8263C7.93744 20.8739 8.27488 20.8858 10.9942 20.8858C13.7135 20.8858 14.051 20.8739 15.1189 20.8263C16.1828 20.7786 16.9093 20.6079 17.5484 20.3618C18.2074 20.1077 18.7632 19.7623 19.319 19.2066C19.8747 18.6508 20.2161 18.091 20.4742 17.436C20.7203 16.8009 20.891 16.0744 20.9386 15.0065C20.9863 13.9386 20.9982 13.6012 20.9982 10.8818C20.9982 8.1625 20.9863 7.82507 20.9386 6.75718C20.891 5.69327 20.7203 4.96679 20.4742 4.32765C20.2201 3.66866 19.8747 3.11288 19.319 2.5571C18.7632 2.00133 18.2034 1.65992 17.5484 1.40188C16.9132 1.15575 16.1868 0.985051 15.1189 0.937414C14.047 0.893745 13.7056 0.881836 10.9902 0.881836Z" fill="url(#paint0_linear_430_471)"/>
<path d="M10.9905 5.74902C8.15602 5.74902 5.85352 8.04755 5.85352 10.886C5.85352 13.7244 8.15205 16.0229 10.9905 16.0229C13.8289 16.0229 16.1274 13.7244 16.1274 10.886C16.1274 8.04755 13.8289 5.74902 10.9905 5.74902ZM10.9905 14.2167C9.14847 14.2167 7.65582 12.724 7.65582 10.882C7.65582 9.04001 9.14847 7.54735 10.9905 7.54735C12.8325 7.54735 14.3251 9.04001 14.3251 10.882C14.3251 12.724 12.8325 14.2167 10.9905 14.2167Z" fill="url(#paint1_linear_430_471)"/>
<path d="M16.3297 6.74153C16.9919 6.74153 17.5286 6.20477 17.5286 5.54264C17.5286 4.88051 16.9919 4.34375 16.3297 4.34375C15.6676 4.34375 15.1309 4.88051 15.1309 5.54264C15.1309 6.20477 15.6676 6.74153 16.3297 6.74153Z" fill="url(#paint2_linear_430_471)"/>
</g>
<defs>
<linearGradient id="paint0_linear_430_471" x1="15.4287" y1="-4.27544" x2="0.317182" y2="11.8042" gradientUnits="userSpaceOnUse">
<stop stop-color="#2EE297"/>
<stop offset="1" stop-color="#1DC9D4"/>
</linearGradient>
<linearGradient id="paint1_linear_430_471" x1="13.2675" y1="3.10028" x2="5.50628" y2="11.3571" gradientUnits="userSpaceOnUse">
<stop stop-color="#2EE297"/>
<stop offset="1" stop-color="#1DC9D4"/>
</linearGradient>
<linearGradient id="paint2_linear_430_471" x1="16.8612" y1="3.72557" x2="15.0498" y2="5.6526" gradientUnits="userSpaceOnUse">
<stop stop-color="#2EE297"/>
<stop offset="1" stop-color="#1DC9D4"/>
</linearGradient>
<clipPath id="clip0_430_471">
<rect width="20" height="20" fill="white" transform="translate(0.990234 0.881836)"/>
</clipPath>
</defs>
</svg>
