<svg width="448" height="346" viewBox="0 0 448 346" fill="none" xmlns="http://www.w3.org/2000/svg">
<path fill-rule="evenodd" clip-rule="evenodd" d="M344.721 56.7305C317.812 41.185 285.824 32.4509 252.758 30.1757L251.161 54.3257C276.639 56.5649 301.206 63.5727 321.982 75.5749C326.382 78.1168 330.493 80.8133 334.313 83.6456C358.842 101.831 371.392 125.616 371.571 150.038C371.574 150.392 371.574 150.745 371.571 151.099C371.509 159.633 369.937 168.236 366.84 176.696L327.304 171.2C327.618 170.341 327.911 169.481 328.181 168.619C336.333 142.682 324.87 115.383 294.861 98.048C275.838 87.0583 252.513 81.8709 228.949 82.115L208.534 82.3265L213.894 1.2283L234.284 1.01711C283.431 0.50805 332.196 11.3546 371.842 34.2574C381.745 39.9789 390.69 46.2281 398.662 52.9117L366.653 71.9826C360.152 66.531 352.841 61.4211 344.721 56.7305ZM388.042 94.9923C395.465 105.517 400.585 116.755 403.363 128.339L406.703 142.266L447 135.899L443.66 121.972C440.262 107.802 433.995 94.0363 424.893 81.1308L388.042 94.9923ZM144.193 110.662C153.699 102.784 164.836 96.509 176.88 91.8684L158.867 67.032C142.149 73.4738 126.733 82.1732 113.648 93.0162C91.6026 111.284 79.4407 132.92 76.9209 154.498L117.632 155.107C119.454 139.504 128.223 123.895 144.193 110.662ZM256.274 226.447C238.165 231.207 218.758 232.595 200.211 230.433L197.918 237.566L191.15 258.626C216.785 261.614 243.567 259.697 268.58 253.123L258.896 232.13L256.274 226.447ZM153.141 215.484C135.926 205.539 124.849 192.356 120.035 178.029L119.594 178.119L117.632 178.519L80.2388 186.139C80.3377 186.433 80.4385 186.727 80.5413 187.021C85.849 202.191 96.2753 216.422 111.68 228.362L93.7459 243.222L60.8859 270.451L76.1585 279.274C93.6771 289.394 112.998 297.171 133.368 302.65C139.585 304.323 145.898 305.781 152.285 307.025C172.263 310.919 192.958 312.729 213.716 312.514L234.118 312.303L235.982 283.733L215.58 283.944C208.25 284.02 200.934 283.787 193.674 283.242C184.127 282.526 174.677 281.269 165.423 279.465C160.214 278.45 155.067 277.261 149.998 275.898C148.831 275.584 147.667 275.26 146.507 274.928C137.123 272.234 128.018 268.93 119.303 265.001L168.413 224.307L153.141 215.484ZM44.6373 185.192L41.2972 171.265L1 177.632L4.34012 191.559C8.92551 210.679 18.7332 229.062 33.6811 245.588L68.5786 229.291C56.3965 215.823 48.3858 200.822 44.6373 185.192Z" fill="url(#paint0_linear_632_732)"/>
<path fill-rule="evenodd" clip-rule="evenodd" d="M272.122 116.892C254.122 106.494 230.381 103.736 208.534 107.978C197.099 110.199 186.182 114.337 176.88 120.302C176.213 120.729 175.554 121.166 174.904 121.613C173.138 122.826 171.436 124.108 169.806 125.458C168.28 126.723 166.85 128.02 165.517 129.345C156.125 138.678 151.508 149.392 151.526 159.872C151.535 165.354 152.813 170.773 155.341 175.895C159.239 183.798 166.111 190.996 175.882 196.641C200.511 210.869 235.888 210.793 262.456 198.052L288.792 213.266L301.511 241.03C309.749 237.36 317.369 232.969 324.337 228.128C327.842 225.693 331.183 223.144 334.354 220.516C338.948 216.709 343.118 212.751 346.864 208.673L341.655 205.664L327.304 197.373L296.393 179.516L295.774 179.158L289.576 175.579C293.679 169.336 295.94 162.742 296.393 156.189C296.507 154.542 296.507 152.899 296.393 151.263C295.729 141.721 291.197 132.478 282.902 124.772C279.824 121.913 276.229 119.265 272.122 116.892ZM245.002 139.366C231.939 131.82 211.948 133.493 200.351 143.104C188.886 152.604 189.915 166.304 202.558 173.906C202.641 173.956 202.725 174.006 202.809 174.055C202.873 174.093 202.938 174.131 203.002 174.168C215.238 181.236 233.553 180.215 245.354 172.159C246.152 171.615 246.919 171.038 247.653 170.43C259.251 160.819 258.064 146.911 245.002 139.366Z" fill="url(#paint1_linear_632_732)"/>
<path d="M117.632 155.107L76.9209 154.498V186.967L80.2388 187.016V186.139L117.632 178.519V155.107Z" fill="white"/>
<path d="M176.88 91.8684C164.836 96.509 153.699 102.784 144.193 110.662C128.223 123.895 119.454 139.504 117.632 155.107V178.519L119.594 178.119C123.299 165.751 131.455 153.685 144.193 143.13C150.628 137.798 157.811 133.199 165.517 129.345C166.85 128.02 168.28 126.723 169.806 125.458C171.436 124.108 173.138 122.826 174.904 121.613C175.554 121.166 176.213 120.729 176.88 120.302V91.8684Z" fill="white"/>
<path d="M4.34012 224.028C8.92551 243.148 18.7332 261.531 33.6811 278.057V245.588C18.7332 229.062 8.92551 210.679 4.34012 191.559L1 177.632V210.101L4.34012 224.028Z" fill="white"/>
<path d="M33.6811 278.057L68.5786 261.76V229.291L33.6811 245.588V278.057Z" fill="white"/>
<path d="M213.716 344.983L234.118 344.772V312.303L213.716 312.514C192.958 312.729 172.263 310.919 152.285 307.025C145.898 305.781 139.585 304.323 133.368 302.65C112.998 297.171 93.6771 289.394 76.1585 279.274L60.8859 270.451V302.92L76.1585 311.743C93.6771 321.863 112.998 329.64 133.368 335.119C139.585 336.792 145.898 338.249 152.285 339.494C172.263 343.388 192.958 345.198 213.716 344.983Z" fill="white"/>
<path d="M168.413 256.776V224.307L119.303 265.001C128.018 268.93 137.123 272.234 146.507 274.928L168.413 256.776Z" fill="white"/>
<path d="M111.68 228.362C96.2753 216.422 85.849 202.191 80.5413 187.021L80.2388 187.016V218.608C83.1205 227.184 87.6313 235.47 93.7459 243.222L111.68 228.362Z" fill="white"/>
<path d="M262.456 198.052C235.888 210.793 200.511 210.869 175.882 196.641C166.111 190.996 159.239 183.798 155.341 175.895C152.813 170.773 151.535 165.354 151.526 159.872V192.214V192.345C151.551 206.284 159.778 219.807 175.882 229.11C182.566 232.971 190.042 235.779 197.918 237.566L200.211 230.433C218.758 232.595 238.165 231.207 256.274 226.447L258.896 232.13C260.099 231.618 261.286 231.082 262.456 230.52V198.052Z" fill="white"/>
<path d="M268.58 253.123C243.567 259.697 216.785 261.614 191.15 258.626L193.674 283.242C200.934 283.787 208.25 284.02 215.58 283.944L235.982 283.733V291.429C247.018 290.335 257.958 288.384 268.58 285.592V253.123Z" fill="white"/>
<path d="M262.456 230.52L288.792 245.734V213.266L262.456 198.052V230.52Z" fill="white"/>
<path d="M288.792 245.734L301.511 273.498V241.03L288.792 213.266V245.734Z" fill="white"/>
<path d="M334.354 252.985C338.948 249.178 343.118 245.22 346.864 241.142V208.673C343.118 212.751 338.948 216.709 334.354 220.516C331.183 223.144 327.842 225.693 324.337 228.128C317.369 232.969 309.749 237.36 301.511 241.03V273.498C313.894 267.983 324.88 260.836 334.354 252.985Z" fill="white"/>
<path d="M366.84 176.696L327.304 171.2V197.373L341.655 205.664L366.84 209.165V176.696Z" fill="white"/>
<path d="M228.949 82.115L208.534 82.3265V107.978C230.381 103.736 254.122 106.494 272.122 116.892C276.229 119.265 279.824 121.913 282.902 124.772C286.952 126.369 290.944 128.254 294.861 130.517C312.303 140.593 323.48 154.035 328.181 168.619C336.333 142.682 324.87 115.383 294.861 98.048C275.838 87.0583 252.513 81.8709 228.949 82.115Z" fill="white"/>
<path d="M344.721 89.1993C352.841 93.8899 360.152 98.9999 366.653 104.451V71.9826C360.152 66.531 352.841 61.4211 344.721 56.7305C317.812 41.185 285.824 32.4509 252.758 30.1757V54.4723C277.664 56.86 301.64 63.8236 321.982 75.5749C326.382 78.1168 330.493 80.8133 334.313 83.6456C337.858 85.3891 341.33 87.2401 344.721 89.1993Z" fill="white"/>
<path d="M366.653 104.451L398.662 85.3806V52.9117L366.653 71.9826V104.451Z" fill="white"/>
<path d="M388.042 127.461C395.465 137.985 400.585 149.224 403.363 160.808L406.703 174.735V142.266L403.363 128.339C400.585 116.755 395.465 105.517 388.042 94.9923V127.461Z" fill="white"/>
<path d="M406.703 174.735L447 168.368V135.899L406.703 142.266V174.735Z" fill="white"/>
<path d="M371.571 151.099C371.509 159.633 369.937 168.236 366.84 176.696V209.165C369.937 200.704 371.509 192.101 371.571 183.566V151.099Z" fill="white"/>
<path d="M289.576 175.579L295.774 179.158L296.393 179.516V156.189C295.94 162.742 293.679 169.336 289.576 175.579Z" fill="white"/>
<path d="M245.002 139.366C231.939 131.82 211.948 133.493 200.351 143.104C188.886 152.604 189.915 166.304 202.558 173.906C214.215 165.89 233.073 165.336 245.354 172.159C246.152 171.615 246.919 171.038 247.653 170.43C259.251 160.819 258.064 146.911 245.002 139.366Z" fill="white"/>
<path d="M252.758 54.4723H251.758V55.381L252.662 55.4677L252.758 54.4723ZM344.721 89.1993L345.222 88.3334L344.721 89.1993ZM366.653 104.451L366.011 105.218L366.555 105.674L367.165 105.31L366.653 104.451ZM398.662 85.3806L399.174 86.2396L399.662 85.9488V85.3806H398.662ZM294.861 130.517L295.362 129.651L294.861 130.517ZM366.84 209.165L366.703 210.155L367.502 210.266L367.779 209.509L366.84 209.165ZM388.042 127.461H387.042V127.778L387.225 128.037L388.042 127.461ZM403.363 160.808L404.335 160.574L403.363 160.808ZM447 168.368L447.156 169.356L448 169.222V168.368H447ZM406.703 174.735L405.73 174.968L405.946 175.867L406.859 175.723L406.703 174.735ZM334.354 252.985L334.992 253.755L334.354 252.985ZM175.882 229.11L176.382 228.244L175.882 229.11ZM144.193 143.13L144.831 143.9L144.193 143.13ZM76.9209 186.967H75.9209V187.952L76.906 187.967L76.9209 186.967ZM191.15 258.626L190.198 258.32L190.134 258.519L190.156 258.728L191.15 258.626ZM268.58 285.592L268.834 286.559L269.58 286.363V285.592H268.58ZM168.413 224.307H169.413V223.73L168.913 223.441L168.413 224.307ZM168.413 256.776L169.051 257.546L169.413 257.246V256.776H168.413ZM235.982 316.202L236.98 316.267L236.982 316.235V316.202H235.982ZM234.118 344.772L234.128 345.771L235.055 345.762L235.116 344.837L234.118 344.772ZM213.716 344.983L213.726 345.983L213.716 344.983ZM152.285 339.494L152.094 340.476L152.285 339.494ZM133.368 335.119L133.108 336.085L133.368 335.119ZM76.1585 311.743L76.6587 310.877H76.6587L76.1585 311.743ZM60.8859 302.92H59.8859V303.497L60.3856 303.786L60.8859 302.92ZM80.2388 218.608H79.2388V218.771L79.2909 218.926L80.2388 218.608ZM68.5786 261.76L69.0017 262.666L69.5786 262.397V261.76H68.5786ZM33.6811 278.057L32.9394 278.728L33.4349 279.275L34.1042 278.963L33.6811 278.057ZM4.34012 224.028L3.3677 224.261H3.3677L4.34012 224.028ZM1 210.101H5.96046e-08V210.219L0.0275748 210.334L1 210.101ZM346.864 241.142L347.6 241.818L347.864 241.531V241.142H346.864ZM301.511 273.498L300.602 273.915L301.014 274.814L301.918 274.412L301.511 273.498ZM447 135.899H448V135.781L447.972 135.666L447 135.899ZM388.042 94.9923L387.69 94.0563L387.042 94.3V94.9923H388.042ZM252.758 30.1757L252.826 29.1781L251.826 29.1093L251.76 30.1098L252.758 30.1757ZM344.721 56.7305L345.222 55.8646L344.721 56.7305ZM398.662 52.9117H399.662V52.4452L399.304 52.1454L398.662 52.9117ZM371.842 34.2574L371.341 35.1233L371.842 34.2574ZM234.284 1.01711L234.295 2.01705L234.284 1.01711ZM213.894 1.2283L213.884 0.228358L212.958 0.237954L212.897 1.16235L213.894 1.2283ZM208.534 82.3265L207.536 82.2605L207.534 82.2935V82.3265H208.534ZM228.949 82.115L228.959 83.115L228.949 82.115ZM294.861 98.048L295.362 97.1821L294.861 98.048ZM327.304 171.2L326.365 170.856L326.304 171.023V171.2H327.304ZM321.982 75.5749L321.481 76.4408L321.982 75.5749ZM251.161 54.3257L250.164 54.2597L250.099 55.2361L251.074 55.3218L251.161 54.3257ZM403.363 128.339L404.335 128.106L403.363 128.339ZM424.893 81.1308L425.71 80.5545L425.264 79.9227L424.54 80.1949L424.893 81.1308ZM443.66 121.972L444.632 121.739L443.66 121.972ZM200.351 143.104L199.713 142.334L200.351 143.104ZM245.002 139.366L245.502 138.5L245.002 139.366ZM203.002 174.168L202.502 175.034L202.502 175.034L203.002 174.168ZM247.653 170.43L248.291 171.2L247.653 170.43ZM272.122 116.892L271.622 117.758L272.122 116.892ZM169.806 125.458L169.168 124.688L169.806 125.458ZM289.576 175.579L288.741 175.029L288.159 175.915L289.076 176.444L289.576 175.579ZM334.354 220.516L334.992 221.286L334.354 220.516ZM288.792 213.266L289.701 212.849L289.568 212.559L289.292 212.4L288.792 213.266ZM262.456 198.052L262.956 197.186L262.5 196.922L262.024 197.15L262.456 198.052ZM175.882 196.641L175.382 197.507L175.882 196.641ZM144.193 110.662L144.831 111.432L144.193 110.662ZM176.88 91.8684H177.88V91.544L177.689 91.2813L176.88 91.8684ZM76.9209 154.498L75.9277 154.382L75.9209 154.44V154.498H76.9209ZM113.648 93.0162L113.01 92.2462L113.648 93.0162ZM158.867 67.032L159.676 66.4449L159.225 65.8223L158.507 66.0988L158.867 67.032ZM256.274 226.447L257.182 226.028L256.831 225.267L256.02 225.48L256.274 226.447ZM200.211 230.433L200.327 229.439L199.51 229.344L199.259 230.127L200.211 230.433ZM268.58 253.123H269.58V252.903L269.488 252.704L268.58 253.123ZM153.141 215.484L152.64 216.35L153.141 215.484ZM120.035 178.029L120.983 177.711L120.701 176.873L119.835 177.05L120.035 178.029ZM119.303 265.001L118.665 264.231L117.431 265.253L118.892 265.912L119.303 265.001ZM149.998 275.898L150.258 274.932L149.998 275.898ZM165.423 279.465L165.614 278.484L165.423 279.465ZM215.58 283.944L215.59 284.944L215.58 283.944ZM235.982 283.733H236.982V282.723L235.971 282.733L235.982 283.733ZM213.716 312.514L213.726 313.514L213.716 312.514ZM152.285 307.025L152.094 308.007L152.285 307.025ZM133.368 302.65L133.108 303.616L133.368 302.65ZM76.1585 279.274L75.6583 280.14L76.1585 279.274ZM60.8859 270.451L60.2478 269.681L59.8859 269.981V270.451H60.8859ZM111.68 228.362L112.318 229.132L113.279 228.336L112.293 227.572L111.68 228.362ZM80.2388 186.139L80.0391 185.159L79.2388 185.322V186.139H80.2388ZM44.6373 185.192L43.6649 185.426L44.6373 185.192ZM41.2972 171.265L42.2696 171.032L42.054 170.133L41.1411 170.278L41.2972 171.265ZM68.5786 229.291H69.5786V228.906L69.3202 228.62L68.5786 229.291ZM4.34012 191.559L3.3677 191.793H3.3677L4.34012 191.559ZM1 177.632L0.843935 176.644L5.96046e-08 176.778V177.632H1ZM346.864 208.673H347.864V208.096L347.364 207.807L346.864 208.673ZM371.571 150.038L372.571 150.031L371.571 150.038ZM371.571 183.566L372.571 183.574V183.566H371.571ZM327.304 197.373L326.803 198.239L327.304 197.373ZM295.774 179.158L295.273 180.024V180.024L295.774 179.158ZM324.337 228.128L323.766 227.307L324.337 228.128ZM296.393 151.263L297.391 151.194L296.393 151.263ZM150.526 193.221C150.526 193.773 150.973 194.221 151.526 194.221C152.078 194.221 152.526 193.773 152.526 193.221H150.526ZM155.341 175.895L154.444 176.338L155.341 175.895ZM202.558 173.906L202.043 174.763L202.043 174.763L202.558 173.906ZM176.88 120.302L177.419 121.143L176.88 120.302ZM174.904 121.613L175.47 122.437L174.904 121.613ZM119.594 178.119L119.794 179.099H119.794L119.594 178.119ZM80.5413 187.021L81.4852 186.691L80.5413 187.021ZM93.7459 243.222L94.3839 243.992L93.7459 243.222ZM245.354 172.159L245.918 172.985L245.354 172.159ZM202.809 174.055L203.316 173.193L203.316 173.193L202.809 174.055ZM344.221 90.0652C352.293 94.7285 359.556 99.8056 366.011 105.218L367.296 103.685C360.747 98.1941 353.388 93.0513 345.222 88.3334L344.221 90.0652ZM367.165 105.31L399.174 86.2396L398.15 84.5215L366.142 103.592L367.165 105.31ZM387.225 128.037C394.579 138.464 399.643 149.587 402.39 161.041L404.335 160.574C401.526 148.861 396.351 137.507 388.859 126.885L387.225 128.037ZM406.859 175.723L447.156 169.356L446.844 167.38L406.547 173.747L406.859 175.723ZM402.39 161.041L405.73 174.968L407.675 174.502L404.335 160.574L402.39 161.041ZM261.956 231.386L288.292 246.6L289.292 244.869L262.956 229.655L261.956 231.386ZM169.413 256.776V224.307H167.413V256.776H169.413ZM235.116 344.837L236.98 316.267L234.984 316.137L233.12 344.706L235.116 344.837ZM213.726 345.983L234.128 345.771L234.108 343.772L213.705 343.983L213.726 345.983ZM152.094 340.476C172.141 344.383 192.903 346.198 213.726 345.983L213.705 343.983C193.012 344.197 172.385 342.393 152.477 338.513L152.094 340.476ZM133.108 336.085C139.349 337.764 145.685 339.227 152.094 340.476L152.477 338.513C146.112 337.272 139.822 335.82 133.627 334.153L133.108 336.085ZM75.6583 312.608C93.26 322.777 112.663 330.585 133.108 336.085L133.627 334.153C113.333 328.695 94.0942 320.949 76.6587 310.877L75.6583 312.608ZM60.3856 303.786L75.6583 312.608L76.6587 310.877L61.3861 302.054L60.3856 303.786ZM34.1042 278.963L69.0017 262.666L68.1554 260.854L33.2579 277.151L34.1042 278.963ZM3.3677 224.261C7.99538 243.557 17.8888 262.088 32.9394 278.728L34.4227 277.386C19.5775 260.974 9.85563 242.738 5.31255 223.795L3.3677 224.261ZM0.0275748 210.334L3.3677 224.261L5.31255 223.795L1.97243 209.868L0.0275748 210.334ZM334.992 253.755C339.619 249.92 343.823 245.931 347.6 241.818L346.127 240.465C342.414 244.509 338.277 248.436 333.716 252.215L334.992 253.755ZM302.42 273.082L289.701 245.318L287.883 246.151L300.602 273.915L302.42 273.082ZM301.918 274.412C314.393 268.856 325.456 261.657 334.992 253.755L333.716 252.215C324.304 260.014 313.395 267.111 301.104 272.585L301.918 274.412ZM407.703 174.735V142.266H405.703V174.735H407.703ZM406.859 143.254L447.156 136.887L446.844 134.911L406.547 141.278L406.859 143.254ZM446 135.899V168.368H448V135.899H446ZM389.042 127.461V94.9923H387.042V127.461H389.042ZM252.689 31.1734C285.631 33.44 317.465 42.1396 344.221 57.5964L345.222 55.8646C318.159 40.2305 286.018 31.4619 252.826 29.1781L252.689 31.1734ZM344.221 57.5964C352.293 62.2597 359.556 67.3368 366.011 72.7489L367.296 71.2163C360.747 65.7253 353.388 60.5825 345.222 55.8646L344.221 57.5964ZM367.165 72.8417L399.174 53.7708L398.15 52.0527L366.142 71.1235L367.165 72.8417ZM399.304 52.1454C391.286 45.4224 382.293 39.1402 372.342 33.3915L371.341 35.1233C381.198 40.8175 390.095 47.0339 398.019 53.678L399.304 52.1454ZM372.342 33.3915C332.513 10.3829 283.564 -0.493387 234.274 0.0171611L234.295 2.01705C283.297 1.50949 331.879 12.3262 371.341 35.1233L372.342 33.3915ZM234.274 0.0171611L213.884 0.228358L213.905 2.22825L234.295 2.01705L234.274 0.0171611ZM208.544 83.3264L228.959 83.115L228.938 81.1151L208.524 81.3265L208.544 83.3264ZM228.959 83.115C252.38 82.8723 275.521 88.0299 294.361 98.9139L295.362 97.1821C276.155 86.0867 252.647 80.8695 228.938 81.1151L228.959 83.115ZM327.166 172.191L366.703 177.686L366.978 175.705L327.441 170.21L327.166 172.191ZM322.482 74.709C301.559 62.6222 276.847 55.5793 251.249 53.3295L251.074 55.3218C276.431 57.5505 300.852 64.5233 321.481 76.4408L322.482 74.709ZM252.159 54.3916L253.755 30.2417L251.76 30.1098L250.164 54.2597L252.159 54.3916ZM387.225 95.5687C394.579 105.995 399.643 117.118 402.39 128.572L404.335 128.106C401.526 116.392 396.351 105.038 388.859 94.4159L387.225 95.5687ZM424.54 80.1949L387.69 94.0563L388.394 95.9283L425.245 82.0668L424.54 80.1949ZM444.632 121.739C441.203 107.439 434.881 93.5578 425.71 80.5545L424.075 81.7072C433.109 94.5148 439.32 108.165 442.687 122.205L444.632 121.739ZM447.972 135.666L444.632 121.739L442.687 122.205L446.028 136.132L447.972 135.666ZM402.39 128.572L405.73 142.499L407.675 142.033L404.335 128.106L402.39 128.572ZM200.989 143.874C206.6 139.224 214.292 136.46 222.21 135.797C230.129 135.134 238.18 136.58 244.501 140.231L245.502 138.5C238.761 134.605 230.285 133.114 222.044 133.804C213.802 134.494 205.699 137.373 199.713 142.334L200.989 143.874ZM244.501 140.231C250.813 143.877 254.132 148.979 254.579 154.209C255.025 159.438 252.618 165.018 247.015 169.66L248.291 171.2C254.287 166.232 257.085 160.053 256.571 154.038C256.058 148.025 252.253 142.4 245.502 138.5L244.501 140.231ZM261.956 198.917L288.292 214.132L289.292 212.4L262.956 197.186L261.956 198.917ZM175.382 197.507C200.331 211.92 236.061 211.819 262.889 198.953L262.024 197.15C235.715 209.767 200.69 209.818 176.382 195.775L175.382 197.507ZM144.831 111.432C154.244 103.632 165.284 97.4084 177.239 92.8015L176.52 90.9353C164.389 95.6097 153.155 101.937 143.555 109.892L144.831 111.432ZM118.625 155.223C120.412 139.923 129.019 124.534 144.831 111.432L143.555 109.892C127.426 123.257 118.496 139.086 116.638 154.991L118.625 155.223ZM76.906 155.498L117.617 156.107L117.647 154.107L76.9359 153.498L76.906 155.498ZM113.01 92.2462C90.8058 110.646 78.4827 132.502 75.9277 154.382L77.9142 154.614C80.3986 133.338 92.3994 111.923 114.286 93.7861L113.01 92.2462ZM158.507 66.0988C141.701 72.5745 126.189 81.3256 113.01 92.2462L114.286 93.7861C127.278 83.0209 142.596 74.3732 159.226 67.9651L158.507 66.0988ZM177.689 91.2813L159.676 66.4449L158.057 67.6191L176.07 92.4555L177.689 91.2813ZM256.02 225.48C238.031 230.209 218.749 231.587 200.327 229.439L200.095 231.426C218.767 233.603 238.3 232.206 256.528 227.414L256.02 225.48ZM191.035 259.619C216.794 262.622 243.702 260.696 268.834 254.09L268.326 252.156C243.433 258.699 216.776 260.606 191.266 257.632L191.035 259.619ZM153.641 214.618C136.596 204.772 125.705 191.766 120.983 177.711L119.087 178.348C123.993 192.947 135.255 206.307 152.64 216.35L153.641 214.618ZM168.913 223.441L153.641 214.618L152.64 216.35L167.913 225.173L168.913 223.441ZM165.614 278.484C160.428 277.473 155.304 276.289 150.258 274.932L149.739 276.864C154.83 278.233 160 279.427 165.231 280.447L165.614 278.484ZM235.971 282.733L215.569 282.945L215.59 284.944L235.992 284.733L235.971 282.733ZM235.116 312.368L236.98 283.798L234.984 283.668L233.12 312.238L235.116 312.368ZM213.726 313.514L234.128 313.303L234.108 311.303L213.705 311.514L213.726 313.514ZM152.094 308.007C172.141 311.914 192.903 313.73 213.726 313.514L213.705 311.514C193.012 311.728 172.385 309.924 152.477 306.044L152.094 308.007ZM133.108 303.616C139.349 305.295 145.685 306.758 152.094 308.007L152.477 306.044C146.112 304.803 139.822 303.351 133.627 301.685L133.108 303.616ZM75.6583 280.14C93.26 290.308 112.663 298.117 133.108 303.616L133.627 301.685C113.333 296.226 94.0942 288.48 76.6587 278.408L75.6583 280.14ZM60.3856 271.317L75.6583 280.14L76.6587 278.408L61.3861 269.585L60.3856 271.317ZM45.6097 184.959L42.2696 171.032L40.3247 171.498L43.6649 185.426L45.6097 184.959ZM69.3202 228.62C57.2408 215.266 49.3159 200.413 45.6097 184.959L43.6649 185.426C47.4556 201.232 55.5522 216.38 67.8369 229.962L69.3202 228.62ZM34.1042 246.494L69.0017 230.197L68.1554 228.385L33.2579 244.682L34.1042 246.494ZM3.3677 191.793C7.99538 211.088 17.8888 229.62 32.9394 246.259L34.4227 244.917C19.5775 228.505 9.85563 210.269 5.31255 191.326L3.3677 191.793ZM0.0275748 177.865L3.3677 191.793L5.31255 191.326L1.97243 177.399L0.0275748 177.865ZM41.1411 170.278L0.843935 176.644L1.15607 178.62L41.4532 172.253L41.1411 170.278ZM212.897 1.16235L207.536 82.2605L209.532 82.3924L214.892 1.29426L212.897 1.16235ZM119.941 265.771L169.051 225.077L167.775 223.537L118.665 264.231L119.941 265.771ZM334.992 221.286C339.619 217.452 343.823 213.462 347.6 209.349L346.127 207.997C342.414 212.04 338.277 215.967 333.716 219.746L334.992 221.286ZM302.42 240.613L289.701 212.849L287.883 213.682L300.602 241.446L302.42 240.613ZM399.662 85.3806V52.9117H397.662V85.3806H399.662ZM365.653 71.9826V104.451H367.653V71.9826H365.653ZM253.758 54.4723V30.1757H251.758V54.4723H253.758ZM367.779 209.509C370.914 200.944 372.508 192.227 372.571 183.574L370.571 183.559C370.51 191.974 368.96 200.464 365.901 208.821L367.779 209.509ZM372.571 150.031C372.389 125.245 359.647 101.183 334.909 82.8423L333.718 84.4489C358.037 102.479 370.395 125.987 370.571 150.046L372.571 150.031ZM334.909 82.8423C331.057 79.9864 326.914 77.2692 322.482 74.709L321.481 76.4408C325.85 78.9644 329.929 81.6401 333.718 84.4489L334.909 82.8423ZM333.872 84.5429C337.397 86.2769 340.849 88.1174 344.221 90.0652L345.222 88.3334C341.81 86.3628 338.319 84.5013 334.754 82.7483L333.872 84.5429ZM365.84 176.696V209.165H367.84V176.696H365.84ZM294.361 98.9139C324.053 116.066 335.21 142.92 327.227 168.319L329.135 168.919C337.456 142.444 325.687 114.701 295.362 97.1821L294.361 98.9139ZM327.227 168.319C326.961 169.166 326.674 170.012 326.365 170.856L328.243 171.544C328.562 170.671 328.86 169.795 329.135 168.919L327.227 168.319ZM294.361 131.383C311.631 141.359 322.618 154.62 327.23 168.926L329.133 168.312C324.342 153.449 312.976 139.826 295.362 129.651L294.361 131.383ZM209.534 107.978V82.3265H207.534V107.978H209.534ZM272.622 116.027C254.375 105.485 230.379 102.718 208.343 106.996L208.725 108.96C230.384 104.754 253.87 107.503 271.622 117.758L272.622 116.027ZM282.535 125.702C286.544 127.283 290.491 129.147 294.361 131.383L295.362 129.651C291.398 127.361 287.36 125.455 283.269 123.841L282.535 125.702ZM283.582 124.039C280.446 121.125 276.79 118.434 272.622 116.027L271.622 117.758C275.669 120.097 279.203 122.7 282.221 125.504L283.582 124.039ZM347.864 241.142V208.673H345.864V241.142H347.864ZM326.304 171.2V197.373H328.304V171.2H326.304ZM347.364 207.807L342.155 204.798L341.155 206.53L346.364 209.539L347.364 207.807ZM342.155 204.798L327.804 196.507L326.803 198.239L341.155 206.53L342.155 204.798ZM341.517 206.654L366.703 210.155L366.978 208.174L341.793 204.673L341.517 206.654ZM296.274 178.293L290.077 174.713L289.076 176.444L295.273 180.024L296.274 178.293ZM301.918 241.943C310.217 238.247 317.892 233.823 324.907 228.949L323.766 227.307C316.846 232.114 309.281 236.474 301.104 240.116L301.918 241.943ZM324.907 228.949C328.437 226.497 331.8 223.931 334.992 221.286L333.716 219.746C330.566 222.356 327.248 224.888 323.766 227.307L324.907 228.949ZM300.511 241.03V273.498H302.511V241.03H300.511ZM289.792 245.734V213.266H287.792V245.734H289.792ZM297.391 151.194C296.707 141.368 292.041 131.897 283.582 124.039L282.221 125.504C290.353 133.059 294.751 142.073 295.396 151.333L297.391 151.194ZM327.804 196.507L296.893 178.651L295.893 180.382L326.803 198.239L327.804 196.507ZM296.893 178.651L296.274 178.293L295.273 180.024L295.893 180.382L296.893 178.651ZM156.237 175.453C153.776 170.463 152.535 165.195 152.526 159.87L150.526 159.873C150.535 165.513 151.851 171.082 154.444 176.338L156.237 175.453ZM150.526 159.872V192.214H152.526V159.872H150.526ZM154.444 176.338C158.444 184.445 165.468 191.78 175.382 197.507L176.382 195.775C166.753 190.212 160.035 183.15 156.237 175.453L154.444 176.338ZM203.073 173.049C196.971 169.38 193.787 164.319 193.411 159.144C193.035 153.969 195.45 148.463 200.989 143.874L199.713 142.334C193.786 147.245 190.984 153.339 191.416 159.289C191.849 165.24 195.502 170.83 202.043 174.763L203.073 173.049ZM263.456 230.52V198.052H261.456V230.52H263.456ZM269.488 252.704L259.804 231.711L257.988 232.549L267.672 253.542L269.488 252.704ZM259.804 231.711L257.182 226.028L255.366 226.866L257.988 232.549L259.804 231.711ZM259.287 233.05C260.504 232.533 261.705 231.99 262.889 231.422L262.024 229.619C260.867 230.173 259.693 230.704 258.504 231.21L259.287 233.05ZM175.382 229.976C182.163 233.893 189.735 236.735 197.697 238.541L198.14 236.591C190.349 234.823 182.969 232.049 176.382 228.244L175.382 229.976ZM199.259 230.127L196.966 237.26L198.871 237.872L201.163 230.739L199.259 230.127ZM196.966 237.26L190.198 258.32L192.102 258.932L198.871 237.872L196.966 237.26ZM208.343 106.996C196.801 109.238 185.762 113.418 176.34 119.46L177.419 121.143C186.602 115.256 197.397 111.159 208.725 108.96L208.343 106.996ZM175.88 91.8684V120.302H177.88V91.8684H175.88ZM176.34 119.46C175.664 119.893 174.996 120.336 174.338 120.788L175.47 122.437C176.111 121.997 176.761 121.565 177.419 121.143L176.34 119.46ZM174.338 120.788C172.548 122.018 170.821 123.318 169.168 124.688L170.444 126.228C172.05 124.898 173.728 123.634 175.47 122.437L174.338 120.788ZM169.168 124.688C167.619 125.971 166.167 127.289 164.812 128.636L166.222 130.054C167.533 128.751 168.94 127.474 170.444 126.228L169.168 124.688ZM164.812 128.636C155.263 138.124 150.507 149.085 150.526 159.873L152.526 159.87C152.508 149.7 156.987 139.231 166.222 130.054L164.812 128.636ZM144.831 143.9C151.203 138.621 158.321 134.063 165.964 130.239L165.069 128.451C157.302 132.336 150.054 136.975 143.555 142.36L144.831 143.9ZM77.9209 186.967V154.498H75.9209V186.967H77.9209ZM119.835 177.05L119.395 177.139L119.794 179.099L120.235 179.009L119.835 177.05ZM120.552 178.406C124.191 166.257 132.22 154.351 144.831 143.9L143.555 142.36C130.691 153.02 122.407 165.245 118.636 177.832L120.552 178.406ZM79.2909 186.457C79.3911 186.756 79.4933 187.053 79.5974 187.351L81.4852 186.691C81.3838 186.401 81.2843 186.111 81.1867 185.82L79.2909 186.457ZM79.5974 187.351C84.977 202.727 95.5307 217.111 111.067 229.152L112.293 227.572C97.0198 215.734 86.7211 201.656 81.4852 186.691L79.5974 187.351ZM119.395 177.139L117.432 177.539L117.831 179.499L119.794 179.099L119.395 177.139ZM117.432 177.539L80.0391 185.159L80.4385 187.119L117.831 179.499L117.432 177.539ZM116.632 155.107V178.519H118.632V155.107H116.632ZM111.042 227.592L93.1079 242.452L94.3839 243.992L112.318 229.132L111.042 227.592ZM93.1079 242.452L60.2478 269.681L61.5239 271.221L94.3839 243.992L93.1079 242.452ZM79.2909 218.926C82.2113 227.618 86.7793 236.004 92.9607 243.842L94.5311 242.603C88.4833 234.935 84.0297 226.75 81.1867 218.289L79.2909 218.926ZM59.8859 270.451V302.92H61.8859V270.451H59.8859ZM69.5786 261.76V229.291H67.5786V261.76H69.5786ZM32.6811 245.588V278.057H34.6811V245.588H32.6811ZM2 210.101V177.632H5.96046e-08V210.101H2ZM150.258 274.932C149.096 274.62 147.937 274.298 146.783 273.966L146.231 275.889C147.396 276.223 148.565 276.548 149.739 276.864L150.258 274.932ZM146.783 273.966C137.443 271.286 128.383 267.997 119.714 264.089L118.892 265.912C127.653 269.862 136.804 273.183 146.231 275.889L146.783 273.966ZM147.145 275.698L169.051 257.546L167.775 256.006L145.869 274.158L147.145 275.698ZM233.118 312.303V344.772H235.118V312.303H233.118ZM236.982 316.202V291.429H234.982V316.202H236.982ZM236.982 291.429V283.733H234.982V291.429H236.982ZM236.08 292.424C247.168 291.326 258.161 289.364 268.834 286.559L268.326 284.625C257.756 287.403 246.868 289.345 235.883 290.433L236.08 292.424ZM215.569 282.945C208.267 283.02 200.98 282.788 193.749 282.245L193.599 284.24C200.887 284.787 208.232 285.021 215.59 284.944L215.569 282.945ZM193.749 282.245C184.239 281.531 174.829 280.28 165.614 278.484L165.231 280.447C174.525 282.258 184.014 283.52 193.599 284.24L193.749 282.245ZM190.156 258.728L192.679 283.344L194.669 283.14L192.145 258.524L190.156 258.728ZM269.58 285.592C269.58 285.574 269.58 285.556 269.58 285.538C269.58 285.521 269.58 285.503 269.58 285.485C269.58 285.467 269.58 285.449 269.58 285.431C269.58 285.413 269.58 285.395 269.58 285.377C269.58 285.359 269.58 285.341 269.58 285.323C269.58 285.304 269.58 285.286 269.58 285.268C269.58 285.25 269.58 285.232 269.58 285.213C269.58 285.195 269.58 285.177 269.58 285.158C269.58 285.14 269.58 285.122 269.58 285.103C269.58 285.085 269.58 285.066 269.58 285.048C269.58 285.029 269.58 285.011 269.58 284.992C269.58 284.974 269.58 284.955 269.58 284.936C269.58 284.918 269.58 284.899 269.58 284.88C269.58 284.862 269.58 284.843 269.58 284.824C269.58 284.805 269.58 284.786 269.58 284.768C269.58 284.749 269.58 284.73 269.58 284.711C269.58 284.692 269.58 284.673 269.58 284.654C269.58 284.635 269.58 284.616 269.58 284.597C269.58 284.578 269.58 284.559 269.58 284.539C269.58 284.52 269.58 284.501 269.58 284.482C269.58 284.463 269.58 284.443 269.58 284.424C269.58 284.405 269.58 284.386 269.58 284.366C269.58 284.347 269.58 284.327 269.58 284.308C269.58 284.289 269.58 284.269 269.58 284.25C269.58 284.23 269.58 284.211 269.58 284.191C269.58 284.171 269.58 284.152 269.58 284.132C269.58 284.113 269.58 284.093 269.58 284.073C269.58 284.054 269.58 284.034 269.58 284.014C269.58 283.994 269.58 283.974 269.58 283.955C269.58 283.935 269.58 283.915 269.58 283.895C269.58 283.875 269.58 283.855 269.58 283.835C269.58 283.815 269.58 283.795 269.58 283.775C269.58 283.755 269.58 283.735 269.58 283.715C269.58 283.695 269.58 283.675 269.58 283.655C269.58 283.635 269.58 283.614 269.58 283.594C269.58 283.574 269.58 283.554 269.58 283.533C269.58 283.513 269.58 283.493 269.58 283.472C269.58 283.452 269.58 283.432 269.58 283.411C269.58 283.391 269.58 283.37 269.58 283.35C269.58 283.329 269.58 283.309 269.58 283.288C269.58 283.268 269.58 283.247 269.58 283.227C269.58 283.206 269.58 283.185 269.58 283.165C269.58 283.144 269.58 283.123 269.58 283.103C269.58 283.082 269.58 283.061 269.58 283.04C269.58 283.02 269.58 282.999 269.58 282.978C269.58 282.957 269.58 282.936 269.58 282.915C269.58 282.894 269.58 282.873 269.58 282.853C269.58 282.832 269.58 282.811 269.58 282.79C269.58 282.769 269.58 282.747 269.58 282.726C269.58 282.705 269.58 282.684 269.58 282.663C269.58 282.642 269.58 282.621 269.58 282.6C269.58 282.578 269.58 282.557 269.58 282.536C269.58 282.515 269.58 282.493 269.58 282.472C269.58 282.451 269.58 282.429 269.58 282.408C269.58 282.387 269.58 282.365 269.58 282.344C269.58 282.322 269.58 282.301 269.58 282.279C269.58 282.258 269.58 282.236 269.58 282.215C269.58 282.193 269.58 282.172 269.58 282.15C269.58 282.128 269.58 282.107 269.58 282.085C269.58 282.063 269.58 282.042 269.58 282.02C269.58 281.998 269.58 281.977 269.58 281.955C269.58 281.933 269.58 281.911 269.58 281.89C269.58 281.868 269.58 281.846 269.58 281.824C269.58 281.802 269.58 281.78 269.58 281.758C269.58 281.736 269.58 281.714 269.58 281.692C269.58 281.67 269.58 281.648 269.58 281.626C269.58 281.604 269.58 281.582 269.58 281.56C269.58 281.538 269.58 281.516 269.58 281.494C269.58 281.472 269.58 281.45 269.58 281.427C269.58 281.405 269.58 281.383 269.58 281.361C269.58 281.339 269.58 281.316 269.58 281.294C269.58 281.272 269.58 281.249 269.58 281.227C269.58 281.205 269.58 281.182 269.58 281.16C269.58 281.138 269.58 281.115 269.58 281.093C269.58 281.07 269.58 281.048 269.58 281.025C269.58 281.003 269.58 280.98 269.58 280.958C269.58 280.935 269.58 280.913 269.58 280.89C269.58 280.867 269.58 280.845 269.58 280.822C269.58 280.8 269.58 280.777 269.58 280.754C269.58 280.732 269.58 280.709 269.58 280.686C269.58 280.663 269.58 280.641 269.58 280.618C269.58 280.595 269.58 280.572 269.58 280.549C269.58 280.527 269.58 280.504 269.58 280.481C269.58 280.458 269.58 280.435 269.58 280.412C269.58 280.389 269.58 280.366 269.58 280.343C269.58 280.32 269.58 280.297 269.58 280.274C269.58 280.251 269.58 280.228 269.58 280.205C269.58 280.182 269.58 280.159 269.58 280.136C269.58 280.113 269.58 280.09 269.58 280.067C269.58 280.044 269.58 280.02 269.58 279.997C269.58 279.974 269.58 279.951 269.58 279.928C269.58 279.904 269.58 279.881 269.58 279.858C269.58 279.835 269.58 279.811 269.58 279.788C269.58 279.765 269.58 279.741 269.58 279.718C269.58 279.695 269.58 279.671 269.58 279.648C269.58 279.625 269.58 279.601 269.58 279.578C269.58 279.554 269.58 279.531 269.58 279.507C269.58 279.484 269.58 279.46 269.58 279.437C269.58 279.413 269.58 279.39 269.58 279.366C269.58 279.343 269.58 279.319 269.58 279.295C269.58 279.272 269.58 279.248 269.58 279.225C269.58 279.201 269.58 279.177 269.58 279.154C269.58 279.13 269.58 279.106 269.58 279.083C269.58 279.059 269.58 279.035 269.58 279.011C269.58 278.988 269.58 278.964 269.58 278.94C269.58 278.916 269.58 278.892 269.58 278.869C269.58 278.845 269.58 278.821 269.58 278.797C269.58 278.773 269.58 278.749 269.58 278.725C269.58 278.701 269.58 278.677 269.58 278.654C269.58 278.63 269.58 278.606 269.58 278.582C269.58 278.558 269.58 278.534 269.58 278.51C269.58 278.486 269.58 278.462 269.58 278.438C269.58 278.413 269.58 278.389 269.58 278.365C269.58 278.341 269.58 278.317 269.58 278.293C269.58 278.269 269.58 278.245 269.58 278.221C269.58 278.196 269.58 278.172 269.58 278.148C269.58 278.124 269.58 278.1 269.58 278.076C269.58 278.051 269.58 278.027 269.58 278.003C269.58 277.979 269.58 277.954 269.58 277.93C269.58 277.906 269.58 277.881 269.58 277.857C269.58 277.833 269.58 277.808 269.58 277.784C269.58 277.76 269.58 277.735 269.58 277.711C269.58 277.687 269.58 277.662 269.58 277.638C269.58 277.613 269.58 277.589 269.58 277.564C269.58 277.54 269.58 277.516 269.58 277.491C269.58 277.467 269.58 277.442 269.58 277.418C269.58 277.393 269.58 277.369 269.58 277.344C269.58 277.319 269.58 277.295 269.58 277.27C269.58 277.246 269.58 277.221 269.58 277.197C269.58 277.172 269.58 277.147 269.58 277.123C269.58 277.098 269.58 277.074 269.58 277.049C269.58 277.024 269.58 277 269.58 276.975C269.58 276.95 269.58 276.925 269.58 276.901C269.58 276.876 269.58 276.851 269.58 276.827C269.58 276.802 269.58 276.777 269.58 276.752C269.58 276.728 269.58 276.703 269.58 276.678C269.58 276.653 269.58 276.628 269.58 276.604C269.58 276.579 269.58 276.554 269.58 276.529C269.58 276.504 269.58 276.479 269.58 276.455C269.58 276.43 269.58 276.405 269.58 276.38C269.58 276.355 269.58 276.33 269.58 276.305C269.58 276.28 269.58 276.255 269.58 276.23C269.58 276.206 269.58 276.181 269.58 276.156C269.58 276.131 269.58 276.106 269.58 276.081C269.58 276.056 269.58 276.031 269.58 276.006C269.58 275.981 269.58 275.956 269.58 275.931C269.58 275.906 269.58 275.881 269.58 275.856C269.58 275.83 269.58 275.805 269.58 275.78C269.58 275.755 269.58 275.73 269.58 275.705C269.58 275.68 269.58 275.655 269.58 275.63C269.58 275.605 269.58 275.579 269.58 275.554C269.58 275.529 269.58 275.504 269.58 275.479C269.58 275.454 269.58 275.429 269.58 275.403C269.58 275.378 269.58 275.353 269.58 275.328C269.58 275.303 269.58 275.277 269.58 275.252C269.58 275.227 269.58 275.202 269.58 275.176C269.58 275.151 269.58 275.126 269.58 275.101C269.58 275.075 269.58 275.05 269.58 275.025C269.58 275 269.58 274.974 269.58 274.949C269.58 274.924 269.58 274.898 269.58 274.873C269.58 274.848 269.58 274.823 269.58 274.797C269.58 274.772 269.58 274.747 269.58 274.721C269.58 274.696 269.58 274.671 269.58 274.645C269.58 274.62 269.58 274.594 269.58 274.569C269.58 274.544 269.58 274.518 269.58 274.493C269.58 274.468 269.58 274.442 269.58 274.417C269.58 274.391 269.58 274.366 269.58 274.34C269.58 274.315 269.58 274.29 269.58 274.264C269.58 274.239 269.58 274.213 269.58 274.188C269.58 274.162 269.58 274.137 269.58 274.111C269.58 274.086 269.58 274.061 269.58 274.035C269.58 274.01 269.58 273.984 269.58 273.959C269.58 273.933 269.58 273.908 269.58 273.882C269.58 273.857 269.58 273.831 269.58 273.806C269.58 273.78 269.58 273.755 269.58 273.729C269.58 273.703 269.58 273.678 269.58 273.652C269.58 273.627 269.58 273.601 269.58 273.576C269.58 273.55 269.58 273.525 269.58 273.499C269.58 273.474 269.58 273.448 269.58 273.422C269.58 273.397 269.58 273.371 269.58 273.346C269.58 273.32 269.58 273.295 269.58 273.269C269.58 273.243 269.58 273.218 269.58 273.192C269.58 273.167 269.58 273.141 269.58 273.115C269.58 273.09 269.58 273.064 269.58 273.038C269.58 273.013 269.58 272.987 269.58 272.962C269.58 272.936 269.58 272.91 269.58 272.885C269.58 272.859 269.58 272.833 269.58 272.808C269.58 272.782 269.58 272.757 269.58 272.731C269.58 272.705 269.58 272.68 269.58 272.654C269.58 272.628 269.58 272.603 269.58 272.577C269.58 272.551 269.58 272.526 269.58 272.5C269.58 272.474 269.58 272.449 269.58 272.423C269.58 272.397 269.58 272.372 269.58 272.346C269.58 272.32 269.58 272.295 269.58 272.269C269.58 272.243 269.58 272.218 269.58 272.192C269.58 272.166 269.58 272.141 269.58 272.115C269.58 272.089 269.58 272.063 269.58 272.038C269.58 272.012 269.58 271.986 269.58 271.961C269.58 271.935 269.58 271.909 269.58 271.884C269.58 271.858 269.58 271.832 269.58 271.807C269.58 271.781 269.58 271.755 269.58 271.729C269.58 271.704 269.58 271.678 269.58 271.652C269.58 271.627 269.58 271.601 269.58 271.575C269.58 271.549 269.58 271.524 269.58 271.498C269.58 271.472 269.58 271.447 269.58 271.421C269.58 271.395 269.58 271.37 269.58 271.344C269.58 271.318 269.58 271.292 269.58 271.267C269.58 271.241 269.58 271.215 269.58 271.19C269.58 271.164 269.58 271.138 269.58 271.113C269.58 271.087 269.58 271.061 269.58 271.035C269.58 271.01 269.58 270.984 269.58 270.958C269.58 270.933 269.58 270.907 269.58 270.881C269.58 270.855 269.58 270.83 269.58 270.804C269.58 270.778 269.58 270.753 269.58 270.727C269.58 270.701 269.58 270.676 269.58 270.65C269.58 270.624 269.58 270.599 269.58 270.573C269.58 270.547 269.58 270.521 269.58 270.496C269.58 270.47 269.58 270.444 269.58 270.419C269.58 270.393 269.58 270.367 269.58 270.342C269.58 270.316 269.58 270.29 269.58 270.265C269.58 270.239 269.58 270.213 269.58 270.188C269.58 270.162 269.58 270.136 269.58 270.111C269.58 270.085 269.58 270.059 269.58 270.034C269.58 270.008 269.58 269.982 269.58 269.957C269.58 269.931 269.58 269.906 269.58 269.88C269.58 269.854 269.58 269.829 269.58 269.803C269.58 269.777 269.58 269.752 269.58 269.726C269.58 269.7 269.58 269.675 269.58 269.649C269.58 269.624 269.58 269.598 269.58 269.572C269.58 269.547 269.58 269.521 269.58 269.496C269.58 269.47 269.58 269.444 269.58 269.419C269.58 269.393 269.58 269.368 269.58 269.342C269.58 269.316 269.58 269.291 269.58 269.265C269.58 269.24 269.58 269.214 269.58 269.189C269.58 269.163 269.58 269.137 269.58 269.112C269.58 269.086 269.58 269.061 269.58 269.035C269.58 269.01 269.58 268.984 269.58 268.959C269.58 268.933 269.58 268.908 269.58 268.882C269.58 268.857 269.58 268.831 269.58 268.806C269.58 268.78 269.58 268.755 269.58 268.729C269.58 268.704 269.58 268.678 269.58 268.653C269.58 268.627 269.58 268.602 269.58 268.576C269.58 268.551 269.58 268.525 269.58 268.5C269.58 268.475 269.58 268.449 269.58 268.424C269.58 268.398 269.58 268.373 269.58 268.347C269.58 268.322 269.58 268.296 269.58 268.271C269.58 268.246 269.58 268.22 269.58 268.195C269.58 268.17 269.58 268.144 269.58 268.119C269.58 268.093 269.58 268.068 269.58 268.043C269.58 268.017 269.58 267.992 269.58 267.967C269.58 267.941 269.58 267.916 269.58 267.891C269.58 267.865 269.58 267.84 269.58 267.815C269.58 267.789 269.58 267.764 269.58 267.739C269.58 267.713 269.58 267.688 269.58 267.663C269.58 267.638 269.58 267.612 269.58 267.587C269.58 267.562 269.58 267.537 269.58 267.511C269.58 267.486 269.58 267.461 269.58 267.436C269.58 267.41 269.58 267.385 269.58 267.36C269.58 267.335 269.58 267.31 269.58 267.284C269.58 267.259 269.58 267.234 269.58 267.209C269.58 267.184 269.58 267.159 269.58 267.134C269.58 267.108 269.58 267.083 269.58 267.058C269.58 267.033 269.58 267.008 269.58 266.983C269.58 266.958 269.58 266.933 269.58 266.908C269.58 266.882 269.58 266.857 269.58 266.832C269.58 266.807 269.58 266.782 269.58 266.757C269.58 266.732 269.58 266.707 269.58 266.682C269.58 266.657 269.58 266.632 269.58 266.607C269.58 266.582 269.58 266.557 269.58 266.532C269.58 266.507 269.58 266.482 269.58 266.457C269.58 266.433 269.58 266.408 269.58 266.383C269.58 266.358 269.58 266.333 269.58 266.308C269.58 266.283 269.58 266.258 269.58 266.233C269.58 266.208 269.58 266.184 269.58 266.159C269.58 266.134 269.58 266.109 269.58 266.084C269.58 266.059 269.58 266.035 269.58 266.01C269.58 265.985 269.58 265.96 269.58 265.936C269.58 265.911 269.58 265.886 269.58 265.861C269.58 265.837 269.58 265.812 269.58 265.787C269.58 265.762 269.58 265.738 269.58 265.713C269.58 265.688 269.58 265.664 269.58 265.639C269.58 265.614 269.58 265.59 269.58 265.565C269.58 265.541 269.58 265.516 269.58 265.491C269.58 265.467 269.58 265.442 269.58 265.418C269.58 265.393 269.58 265.369 269.58 265.344C269.58 265.319 269.58 265.295 269.58 265.27C269.58 265.246 269.58 265.221 269.58 265.197C269.58 265.173 269.58 265.148 269.58 265.124C269.58 265.099 269.58 265.075 269.58 265.05C269.58 265.026 269.58 265.002 269.58 264.977C269.58 264.953 269.58 264.928 269.58 264.904C269.58 264.88 269.58 264.855 269.58 264.831C269.58 264.807 269.58 264.782 269.58 264.758C269.58 264.734 269.58 264.71 269.58 264.685C269.58 264.661 269.58 264.637 269.58 264.613C269.58 264.588 269.58 264.564 269.58 264.54C269.58 264.516 269.58 264.492 269.58 264.467C269.58 264.443 269.58 264.419 269.58 264.395C269.58 264.371 269.58 264.347 269.58 264.323C269.58 264.299 269.58 264.275 269.58 264.251C269.58 264.227 269.58 264.203 269.58 264.179C269.58 264.154 269.58 264.131 269.58 264.107C269.58 264.083 269.58 264.059 269.58 264.035C269.58 264.011 269.58 263.987 269.58 263.963C269.58 263.939 269.58 263.915 269.58 263.891C269.58 263.867 269.58 263.844 269.58 263.82C269.58 263.796 269.58 263.772 269.58 263.748C269.58 263.724 269.58 263.701 269.58 263.677C269.58 263.653 269.58 263.629 269.58 263.606C269.58 263.582 269.58 263.558 269.58 263.535C269.58 263.511 269.58 263.487 269.58 263.464C269.58 263.44 269.58 263.416 269.58 263.393C269.58 263.369 269.58 263.346 269.58 263.322C269.58 263.299 269.58 263.275 269.58 263.251C269.58 263.228 269.58 263.204 269.58 263.181C269.58 263.158 269.58 263.134 269.58 263.111C269.58 263.087 269.58 263.064 269.58 263.04C269.58 263.017 269.58 262.994 269.58 262.97C269.58 262.947 269.58 262.924 269.58 262.9C269.58 262.877 269.58 262.854 269.58 262.83C269.58 262.807 269.58 262.784 269.58 262.761C269.58 262.737 269.58 262.714 269.58 262.691C269.58 262.668 269.58 262.645 269.58 262.622C269.58 262.598 269.58 262.575 269.58 262.552C269.58 262.529 269.58 262.506 269.58 262.483C269.58 262.46 269.58 262.437 269.58 262.414C269.58 262.391 269.58 262.368 269.58 262.345C269.58 262.322 269.58 262.299 269.58 262.276C269.58 262.253 269.58 262.23 269.58 262.208C269.58 262.185 269.58 262.162 269.58 262.139C269.58 262.116 269.58 262.093 269.58 262.071C269.58 262.048 269.58 262.025 269.58 262.002C269.58 261.98 269.58 261.957 269.58 261.934C269.58 261.912 269.58 261.889 269.58 261.866C269.58 261.844 269.58 261.821 269.58 261.799C269.58 261.776 269.58 261.753 269.58 261.731C269.58 261.708 269.58 261.686 269.58 261.663C269.58 261.641 269.58 261.618 269.58 261.596C269.58 261.573 269.58 261.551 269.58 261.529C269.58 261.506 269.58 261.484 269.58 261.462C269.58 261.439 269.58 261.417 269.58 261.395C269.58 261.372 269.58 261.35 269.58 261.328C269.58 261.306 269.58 261.283 269.58 261.261C269.58 261.239 269.58 261.217 269.58 261.195C269.58 261.173 269.58 261.151 269.58 261.128C269.58 261.106 269.58 261.084 269.58 261.062C269.58 261.04 269.58 261.018 269.58 260.996C269.58 260.974 269.58 260.952 269.58 260.93C269.58 260.909 269.58 260.887 269.58 260.865C269.58 260.843 269.58 260.821 269.58 260.799C269.58 260.777 269.58 260.756 269.58 260.734C269.58 260.712 269.58 260.69 269.58 260.669C269.58 260.647 269.58 260.625 269.58 260.604C269.58 260.582 269.58 260.56 269.58 260.539C269.58 260.517 269.58 260.496 269.58 260.474C269.58 260.453 269.58 260.431 269.58 260.41C269.58 260.388 269.58 260.367 269.58 260.345C269.58 260.324 269.58 260.302 269.58 260.281C269.58 260.26 269.58 260.238 269.58 260.217C269.58 260.196 269.58 260.174 269.58 260.153C269.58 260.132 269.58 260.111 269.58 260.089C269.58 260.068 269.58 260.047 269.58 260.026C269.58 260.005 269.58 259.984 269.58 259.963C269.58 259.942 269.58 259.92 269.58 259.899C269.58 259.878 269.58 259.857 269.58 259.837C269.58 259.816 269.58 259.795 269.58 259.774C269.58 259.753 269.58 259.732 269.58 259.711C269.58 259.69 269.58 259.669 269.58 259.649C269.58 259.628 269.58 259.607 269.58 259.586C269.58 259.566 269.58 259.545 269.58 259.524C269.58 259.504 269.58 259.483 269.58 259.462C269.58 259.442 269.58 259.421 269.58 259.401C269.58 259.38 269.58 259.36 269.58 259.339C269.58 259.319 269.58 259.298 269.58 259.278C269.58 259.258 269.58 259.237 269.58 259.217C269.58 259.196 269.58 259.176 269.58 259.156C269.58 259.136 269.58 259.115 269.58 259.095C269.58 259.075 269.58 259.055 269.58 259.035C269.58 259.014 269.58 258.994 269.58 258.974C269.58 258.954 269.58 258.934 269.58 258.914C269.58 258.894 269.58 258.874 269.58 258.854C269.58 258.834 269.58 258.814 269.58 258.794C269.58 258.774 269.58 258.755 269.58 258.735C269.58 258.715 269.58 258.695 269.58 258.675C269.58 258.656 269.58 258.636 269.58 258.616C269.58 258.596 269.58 258.577 269.58 258.557C269.58 258.538 269.58 258.518 269.58 258.498C269.58 258.479 269.58 258.459 269.58 258.44C269.58 258.42 269.58 258.401 269.58 258.381C269.58 258.362 269.58 258.343 269.58 258.323C269.58 258.304 269.58 258.285 269.58 258.265C269.58 258.246 269.58 258.227 269.58 258.208C269.58 258.188 269.58 258.169 269.58 258.15C269.58 258.131 269.58 258.112 269.58 258.093C269.58 258.074 269.58 258.055 269.58 258.036C269.58 258.017 269.58 257.998 269.58 257.979C269.58 257.96 269.58 257.941 269.58 257.922C269.58 257.903 269.58 257.884 269.58 257.866C269.58 257.847 269.58 257.828 269.58 257.809C269.58 257.791 269.58 257.772 269.58 257.753C269.58 257.735 269.58 257.716 269.58 257.697C269.58 257.679 269.58 257.66 269.58 257.642C269.58 257.623 269.58 257.605 269.58 257.586C269.58 257.568 269.58 257.55 269.58 257.531C269.58 257.513 269.58 257.495 269.58 257.476C269.58 257.458 269.58 257.44 269.58 257.422C269.58 257.403 269.58 257.385 269.58 257.367C269.58 257.349 269.58 257.331 269.58 257.313C269.58 257.295 269.58 257.277 269.58 257.259C269.58 257.241 269.58 257.223 269.58 257.205C269.58 257.187 269.58 257.169 269.58 257.152C269.58 257.134 269.58 257.116 269.58 257.098C269.58 257.08 269.58 257.063 269.58 257.045C269.58 257.027 269.58 257.01 269.58 256.992C269.58 256.975 269.58 256.957 269.58 256.94C269.58 256.922 269.58 256.905 269.58 256.887C269.58 256.87 269.58 256.852 269.58 256.835C269.58 256.818 269.58 256.8 269.58 256.783C269.58 256.766 269.58 256.749 269.58 256.731C269.58 256.714 269.58 256.697 269.58 256.68C269.58 256.663 269.58 256.646 269.58 256.629C269.58 256.612 269.58 256.595 269.58 256.578C269.58 256.561 269.58 256.544 269.58 256.527C269.58 256.51 269.58 256.493 269.58 256.477C269.58 256.46 269.58 256.443 269.58 256.426C269.58 256.41 269.58 256.393 269.58 256.376C269.58 256.36 269.58 256.343 269.58 256.327C269.58 256.31 269.58 256.293 269.58 256.277C269.58 256.261 269.58 256.244 269.58 256.228C269.58 256.211 269.58 256.195 269.58 256.179C269.58 256.163 269.58 256.146 269.58 256.13C269.58 256.114 269.58 256.098 269.58 256.082C269.58 256.065 269.58 256.049 269.58 256.033C269.58 256.017 269.58 256.001 269.58 255.985C269.58 255.969 269.58 255.953 269.58 255.938C269.58 255.922 269.58 255.906 269.58 255.89C269.58 255.874 269.58 255.859 269.58 255.843C269.58 255.827 269.58 255.812 269.58 255.796C269.58 255.78 269.58 255.765 269.58 255.749C269.58 255.734 269.58 255.718 269.58 255.703C269.58 255.687 269.58 255.672 269.58 255.657C269.58 255.641 269.58 255.626 269.58 255.611C269.58 255.596 269.58 255.58 269.58 255.565C269.58 255.55 269.58 255.535 269.58 255.52C269.58 255.505 269.58 255.49 269.58 255.475C269.58 255.46 269.58 255.445 269.58 255.43C269.58 255.415 269.58 255.4 269.58 255.385C269.58 255.371 269.58 255.356 269.58 255.341C269.58 255.326 269.58 255.312 269.58 255.297C269.58 255.282 269.58 255.268 269.58 255.253C269.58 255.239 269.58 255.224 269.58 255.21C269.58 255.195 269.58 255.181 269.58 255.167C269.58 255.152 269.58 255.138 269.58 255.124C269.58 255.11 269.58 255.095 269.58 255.081C269.58 255.067 269.58 255.053 269.58 255.039C269.58 255.025 269.58 255.011 269.58 254.997C269.58 254.983 269.58 254.969 269.58 254.955C269.58 254.941 269.58 254.927 269.58 254.913C269.58 254.9 269.58 254.886 269.58 254.872C269.58 254.859 269.58 254.845 269.58 254.831C269.58 254.818 269.58 254.804 269.58 254.791C269.58 254.777 269.58 254.764 269.58 254.75C269.58 254.737 269.58 254.724 269.58 254.71C269.58 254.697 269.58 254.684 269.58 254.67C269.58 254.657 269.58 254.644 269.58 254.631C269.58 254.618 269.58 254.605 269.58 254.592C269.58 254.579 269.58 254.566 269.58 254.553C269.58 254.54 269.58 254.527 269.58 254.514C269.58 254.501 269.58 254.489 269.58 254.476C269.58 254.463 269.58 254.45 269.58 254.438C269.58 254.425 269.58 254.413 269.58 254.4C269.58 254.388 269.58 254.375 269.58 254.363C269.58 254.35 269.58 254.338 269.58 254.326C269.58 254.313 269.58 254.301 269.58 254.289C269.58 254.276 269.58 254.264 269.58 254.252C269.58 254.24 269.58 254.228 269.58 254.216C269.58 254.204 269.58 254.192 269.58 254.18C269.58 254.168 269.58 254.156 269.58 254.144C269.58 254.133 269.58 254.121 269.58 254.109C269.58 254.097 269.58 254.086 269.58 254.074C269.58 254.062 269.58 254.051 269.58 254.039C269.58 254.028 269.58 254.016 269.58 254.005C269.58 253.994 269.58 253.982 269.58 253.971C269.58 253.96 269.58 253.948 269.58 253.937C269.58 253.926 269.58 253.915 269.58 253.904C269.58 253.893 269.58 253.882 269.58 253.871C269.58 253.86 269.58 253.849 269.58 253.838C269.58 253.827 269.58 253.816 269.58 253.805C269.58 253.794 269.58 253.784 269.58 253.773C269.58 253.762 269.58 253.752 269.58 253.741C269.58 253.731 269.58 253.72 269.58 253.71C269.58 253.699 269.58 253.689 269.58 253.678C269.58 253.668 269.58 253.658 269.58 253.647C269.58 253.637 269.58 253.627 269.58 253.617C269.58 253.607 269.58 253.597 269.58 253.587C269.58 253.577 269.58 253.567 269.58 253.557C269.58 253.547 269.58 253.537 269.58 253.527C269.58 253.517 269.58 253.507 269.58 253.498C269.58 253.488 269.58 253.478 269.58 253.469C269.58 253.459 269.58 253.45 269.58 253.44C269.58 253.431 269.58 253.421 269.58 253.412C269.58 253.403 269.58 253.393 269.58 253.384C269.58 253.375 269.58 253.365 269.58 253.356C269.58 253.347 269.58 253.338 269.58 253.329C269.58 253.32 269.58 253.311 269.58 253.302C269.58 253.293 269.58 253.284 269.58 253.275C269.58 253.267 269.58 253.258 269.58 253.249C269.58 253.24 269.58 253.232 269.58 253.223C269.58 253.215 269.58 253.206 269.58 253.198C269.58 253.189 269.58 253.181 269.58 253.172C269.58 253.164 269.58 253.156 269.58 253.147C269.58 253.139 269.58 253.131 269.58 253.123H267.58C267.58 253.131 267.58 253.139 267.58 253.147C267.58 253.156 267.58 253.164 267.58 253.172C267.58 253.181 267.58 253.189 267.58 253.198C267.58 253.206 267.58 253.215 267.58 253.223C267.58 253.232 267.58 253.24 267.58 253.249C267.58 253.258 267.58 253.267 267.58 253.275C267.58 253.284 267.58 253.293 267.58 253.302C267.58 253.311 267.58 253.32 267.58 253.329C267.58 253.338 267.58 253.347 267.58 253.356C267.58 253.365 267.58 253.375 267.58 253.384C267.58 253.393 267.58 253.403 267.58 253.412C267.58 253.421 267.58 253.431 267.58 253.44C267.58 253.45 267.58 253.459 267.58 253.469C267.58 253.478 267.58 253.488 267.58 253.498C267.58 253.507 267.58 253.517 267.58 253.527C267.58 253.537 267.58 253.547 267.58 253.557C267.58 253.567 267.58 253.577 267.58 253.587C267.58 253.597 267.58 253.607 267.58 253.617C267.58 253.627 267.58 253.637 267.58 253.647C267.58 253.658 267.58 253.668 267.58 253.678C267.58 253.689 267.58 253.699 267.58 253.71C267.58 253.72 267.58 253.731 267.58 253.741C267.58 253.752 267.58 253.762 267.58 253.773C267.58 253.784 267.58 253.794 267.58 253.805C267.58 253.816 267.58 253.827 267.58 253.838C267.58 253.849 267.58 253.86 267.58 253.871C267.58 253.882 267.58 253.893 267.58 253.904C267.58 253.915 267.58 253.926 267.58 253.937C267.58 253.948 267.58 253.96 267.58 253.971C267.58 253.982 267.58 253.994 267.58 254.005C267.58 254.016 267.58 254.028 267.58 254.039C267.58 254.051 267.58 254.062 267.58 254.074C267.58 254.086 267.58 254.097 267.58 254.109C267.58 254.121 267.58 254.133 267.58 254.144C267.58 254.156 267.58 254.168 267.58 254.18C267.58 254.192 267.58 254.204 267.58 254.216C267.58 254.228 267.58 254.24 267.58 254.252C267.58 254.264 267.58 254.276 267.58 254.289C267.58 254.301 267.58 254.313 267.58 254.326C267.58 254.338 267.58 254.35 267.58 254.363C267.58 254.375 267.58 254.388 267.58 254.4C267.58 254.413 267.58 254.425 267.58 254.438C267.58 254.45 267.58 254.463 267.58 254.476C267.58 254.489 267.58 254.501 267.58 254.514C267.58 254.527 267.58 254.54 267.58 254.553C267.58 254.566 267.58 254.579 267.58 254.592C267.58 254.605 267.58 254.618 267.58 254.631C267.58 254.644 267.58 254.657 267.58 254.67C267.58 254.684 267.58 254.697 267.58 254.71C267.58 254.724 267.58 254.737 267.58 254.75C267.58 254.764 267.58 254.777 267.58 254.791C267.58 254.804 267.58 254.818 267.58 254.831C267.58 254.845 267.58 254.859 267.58 254.872C267.58 254.886 267.58 254.9 267.58 254.913C267.58 254.927 267.58 254.941 267.58 254.955C267.58 254.969 267.58 254.983 267.58 254.997C267.58 255.011 267.58 255.025 267.58 255.039C267.58 255.053 267.58 255.067 267.58 255.081C267.58 255.095 267.58 255.11 267.58 255.124C267.58 255.138 267.58 255.152 267.58 255.167C267.58 255.181 267.58 255.195 267.58 255.21C267.58 255.224 267.58 255.239 267.58 255.253C267.58 255.268 267.58 255.282 267.58 255.297C267.58 255.312 267.58 255.326 267.58 255.341C267.58 255.356 267.58 255.371 267.58 255.385C267.58 255.4 267.58 255.415 267.58 255.43C267.58 255.445 267.58 255.46 267.58 255.475C267.58 255.49 267.58 255.505 267.58 255.52C267.58 255.535 267.58 255.55 267.58 255.565C267.58 255.58 267.58 255.596 267.58 255.611C267.58 255.626 267.58 255.641 267.58 255.657C267.58 255.672 267.58 255.687 267.58 255.703C267.58 255.718 267.58 255.734 267.58 255.749C267.58 255.765 267.58 255.78 267.58 255.796C267.58 255.812 267.58 255.827 267.58 255.843C267.58 255.859 267.58 255.874 267.58 255.89C267.58 255.906 267.58 255.922 267.58 255.938C267.58 255.953 267.58 255.969 267.58 255.985C267.58 256.001 267.58 256.017 267.58 256.033C267.58 256.049 267.58 256.065 267.58 256.082C267.58 256.098 267.58 256.114 267.58 256.13C267.58 256.146 267.58 256.163 267.58 256.179C267.58 256.195 267.58 256.211 267.58 256.228C267.58 256.244 267.58 256.261 267.58 256.277C267.58 256.293 267.58 256.31 267.58 256.327C267.58 256.343 267.58 256.36 267.58 256.376C267.58 256.393 267.58 256.41 267.58 256.426C267.58 256.443 267.58 256.46 267.58 256.477C267.58 256.493 267.58 256.51 267.58 256.527C267.58 256.544 267.58 256.561 267.58 256.578C267.58 256.595 267.58 256.612 267.58 256.629C267.58 256.646 267.58 256.663 267.58 256.68C267.58 256.697 267.58 256.714 267.58 256.731C267.58 256.749 267.58 256.766 267.58 256.783C267.58 256.8 267.58 256.818 267.58 256.835C267.58 256.852 267.58 256.87 267.58 256.887C267.58 256.905 267.58 256.922 267.58 256.94C267.58 256.957 267.58 256.975 267.58 256.992C267.58 257.01 267.58 257.027 267.58 257.045C267.58 257.063 267.58 257.08 267.58 257.098C267.58 257.116 267.58 257.134 267.58 257.152C267.58 257.169 267.58 257.187 267.58 257.205C267.58 257.223 267.58 257.241 267.58 257.259C267.58 257.277 267.58 257.295 267.58 257.313C267.58 257.331 267.58 257.349 267.58 257.367C267.58 257.385 267.58 257.403 267.58 257.422C267.58 257.44 267.58 257.458 267.58 257.476C267.58 257.495 267.58 257.513 267.58 257.531C267.58 257.55 267.58 257.568 267.58 257.586C267.58 257.605 267.58 257.623 267.58 257.642C267.58 257.66 267.58 257.679 267.58 257.697C267.58 257.716 267.58 257.735 267.58 257.753C267.58 257.772 267.58 257.791 267.58 257.809C267.58 257.828 267.58 257.847 267.58 257.866C267.58 257.884 267.58 257.903 267.58 257.922C267.58 257.941 267.58 257.96 267.58 257.979C267.58 257.998 267.58 258.017 267.58 258.036C267.58 258.055 267.58 258.074 267.58 258.093C267.58 258.112 267.58 258.131 267.58 258.15C267.58 258.169 267.58 258.188 267.58 258.208C267.58 258.227 267.58 258.246 267.58 258.265C267.58 258.285 267.58 258.304 267.58 258.323C267.58 258.343 267.58 258.362 267.58 258.381C267.58 258.401 267.58 258.42 267.58 258.44C267.58 258.459 267.58 258.479 267.58 258.498C267.58 258.518 267.58 258.538 267.58 258.557C267.58 258.577 267.58 258.596 267.58 258.616C267.58 258.636 267.58 258.656 267.58 258.675C267.58 258.695 267.58 258.715 267.58 258.735C267.58 258.755 267.58 258.774 267.58 258.794C267.58 258.814 267.58 258.834 267.58 258.854C267.58 258.874 267.58 258.894 267.58 258.914C267.58 258.934 267.58 258.954 267.58 258.974C267.58 258.994 267.58 259.014 267.58 259.035C267.58 259.055 267.58 259.075 267.58 259.095C267.58 259.115 267.58 259.136 267.58 259.156C267.58 259.176 267.58 259.196 267.58 259.217C267.58 259.237 267.58 259.258 267.58 259.278C267.58 259.298 267.58 259.319 267.58 259.339C267.58 259.36 267.58 259.38 267.58 259.401C267.58 259.421 267.58 259.442 267.58 259.462C267.58 259.483 267.58 259.504 267.58 259.524C267.58 259.545 267.58 259.566 267.58 259.586C267.58 259.607 267.58 259.628 267.58 259.649C267.58 259.669 267.58 259.69 267.58 259.711C267.58 259.732 267.58 259.753 267.58 259.774C267.58 259.795 267.58 259.816 267.58 259.837C267.58 259.857 267.58 259.878 267.58 259.899C267.58 259.92 267.58 259.942 267.58 259.963C267.58 259.984 267.58 260.005 267.58 260.026C267.58 260.047 267.58 260.068 267.58 260.089C267.58 260.111 267.58 260.132 267.58 260.153C267.58 260.174 267.58 260.196 267.58 260.217C267.58 260.238 267.58 260.26 267.58 260.281C267.58 260.302 267.58 260.324 267.58 260.345C267.58 260.367 267.58 260.388 267.58 260.41C267.58 260.431 267.58 260.453 267.58 260.474C267.58 260.496 267.58 260.517 267.58 260.539C267.58 260.56 267.58 260.582 267.58 260.604C267.58 260.625 267.58 260.647 267.58 260.669C267.58 260.69 267.58 260.712 267.58 260.734C267.58 260.756 267.58 260.777 267.58 260.799C267.58 260.821 267.58 260.843 267.58 260.865C267.58 260.887 267.58 260.909 267.58 260.93C267.58 260.952 267.58 260.974 267.58 260.996C267.58 261.018 267.58 261.04 267.58 261.062C267.58 261.084 267.58 261.106 267.58 261.128C267.58 261.151 267.58 261.173 267.58 261.195C267.58 261.217 267.58 261.239 267.58 261.261C267.58 261.283 267.58 261.306 267.58 261.328C267.58 261.35 267.58 261.372 267.58 261.395C267.58 261.417 267.58 261.439 267.58 261.462C267.58 261.484 267.58 261.506 267.58 261.529C267.58 261.551 267.58 261.573 267.58 261.596C267.58 261.618 267.58 261.641 267.58 261.663C267.58 261.686 267.58 261.708 267.58 261.731C267.58 261.753 267.58 261.776 267.58 261.799C267.58 261.821 267.58 261.844 267.58 261.866C267.58 261.889 267.58 261.912 267.58 261.934C267.58 261.957 267.58 261.98 267.58 262.002C267.58 262.025 267.58 262.048 267.58 262.071C267.58 262.093 267.58 262.116 267.58 262.139C267.58 262.162 267.58 262.185 267.58 262.208C267.58 262.23 267.58 262.253 267.58 262.276C267.58 262.299 267.58 262.322 267.58 262.345C267.58 262.368 267.58 262.391 267.58 262.414C267.58 262.437 267.58 262.46 267.58 262.483C267.58 262.506 267.58 262.529 267.58 262.552C267.58 262.575 267.58 262.598 267.58 262.622C267.58 262.645 267.58 262.668 267.58 262.691C267.58 262.714 267.58 262.737 267.58 262.761C267.58 262.784 267.58 262.807 267.58 262.83C267.58 262.854 267.58 262.877 267.58 262.9C267.58 262.924 267.58 262.947 267.58 262.97C267.58 262.994 267.58 263.017 267.58 263.04C267.58 263.064 267.58 263.087 267.58 263.111C267.58 263.134 267.58 263.158 267.58 263.181C267.58 263.204 267.58 263.228 267.58 263.251C267.58 263.275 267.58 263.299 267.58 263.322C267.58 263.346 267.58 263.369 267.58 263.393C267.58 263.416 267.58 263.44 267.58 263.464C267.58 263.487 267.58 263.511 267.58 263.535C267.58 263.558 267.58 263.582 267.58 263.606C267.58 263.629 267.58 263.653 267.58 263.677C267.58 263.701 267.58 263.724 267.58 263.748C267.58 263.772 267.58 263.796 267.58 263.82C267.58 263.844 267.58 263.867 267.58 263.891C267.58 263.915 267.58 263.939 267.58 263.963C267.58 263.987 267.58 264.011 267.58 264.035C267.58 264.059 267.58 264.083 267.58 264.107C267.58 264.131 267.58 264.154 267.58 264.179C267.58 264.203 267.58 264.227 267.58 264.251C267.58 264.275 267.58 264.299 267.58 264.323C267.58 264.347 267.58 264.371 267.58 264.395C267.58 264.419 267.58 264.443 267.58 264.467C267.58 264.492 267.58 264.516 267.58 264.54C267.58 264.564 267.58 264.588 267.58 264.613C267.58 264.637 267.58 264.661 267.58 264.685C267.58 264.71 267.58 264.734 267.58 264.758C267.58 264.782 267.58 264.807 267.58 264.831C267.58 264.855 267.58 264.88 267.58 264.904C267.58 264.928 267.58 264.953 267.58 264.977C267.58 265.002 267.58 265.026 267.58 265.05C267.58 265.075 267.58 265.099 267.58 265.124C267.58 265.148 267.58 265.173 267.58 265.197C267.58 265.221 267.58 265.246 267.58 265.27C267.58 265.295 267.58 265.319 267.58 265.344C267.58 265.369 267.58 265.393 267.58 265.418C267.58 265.442 267.58 265.467 267.58 265.491C267.58 265.516 267.58 265.541 267.58 265.565C267.58 265.59 267.58 265.614 267.58 265.639C267.58 265.664 267.58 265.688 267.58 265.713C267.58 265.738 267.58 265.762 267.58 265.787C267.58 265.812 267.58 265.837 267.58 265.861C267.58 265.886 267.58 265.911 267.58 265.936C267.58 265.96 267.58 265.985 267.58 266.01C267.58 266.035 267.58 266.059 267.58 266.084C267.58 266.109 267.58 266.134 267.58 266.159C267.58 266.184 267.58 266.208 267.58 266.233C267.58 266.258 267.58 266.283 267.58 266.308C267.58 266.333 267.58 266.358 267.58 266.383C267.58 266.408 267.58 266.433 267.58 266.457C267.58 266.482 267.58 266.507 267.58 266.532C267.58 266.557 267.58 266.582 267.58 266.607C267.58 266.632 267.58 266.657 267.58 266.682C267.58 266.707 267.58 266.732 267.58 266.757C267.58 266.782 267.58 266.807 267.58 266.832C267.58 266.857 267.58 266.882 267.58 266.908C267.58 266.933 267.58 266.958 267.58 266.983C267.58 267.008 267.58 267.033 267.58 267.058C267.58 267.083 267.58 267.108 267.58 267.134C267.58 267.159 267.58 267.184 267.58 267.209C267.58 267.234 267.58 267.259 267.58 267.284C267.58 267.31 267.58 267.335 267.58 267.36C267.58 267.385 267.58 267.41 267.58 267.436C267.58 267.461 267.58 267.486 267.58 267.511C267.58 267.537 267.58 267.562 267.58 267.587C267.58 267.612 267.58 267.638 267.58 267.663C267.58 267.688 267.58 267.713 267.58 267.739C267.58 267.764 267.58 267.789 267.58 267.815C267.58 267.84 267.58 267.865 267.58 267.891C267.58 267.916 267.58 267.941 267.58 267.967C267.58 267.992 267.58 268.017 267.58 268.043C267.58 268.068 267.58 268.093 267.58 268.119C267.58 268.144 267.58 268.17 267.58 268.195C267.58 268.22 267.58 268.246 267.58 268.271C267.58 268.296 267.58 268.322 267.58 268.347C267.58 268.373 267.58 268.398 267.58 268.424C267.58 268.449 267.58 268.475 267.58 268.5C267.58 268.525 267.58 268.551 267.58 268.576C267.58 268.602 267.58 268.627 267.58 268.653C267.58 268.678 267.58 268.704 267.58 268.729C267.58 268.755 267.58 268.78 267.58 268.806C267.58 268.831 267.58 268.857 267.58 268.882C267.58 268.908 267.58 268.933 267.58 268.959C267.58 268.984 267.58 269.01 267.58 269.035C267.58 269.061 267.58 269.086 267.58 269.112C267.58 269.137 267.58 269.163 267.58 269.189C267.58 269.214 267.58 269.24 267.58 269.265C267.58 269.291 267.58 269.316 267.58 269.342C267.58 269.368 267.58 269.393 267.58 269.419C267.58 269.444 267.58 269.47 267.58 269.496C267.58 269.521 267.58 269.547 267.58 269.572C267.58 269.598 267.58 269.624 267.58 269.649C267.58 269.675 267.58 269.7 267.58 269.726C267.58 269.752 267.58 269.777 267.58 269.803C267.58 269.829 267.58 269.854 267.58 269.88C267.58 269.906 267.58 269.931 267.58 269.957C267.58 269.982 267.58 270.008 267.58 270.034C267.58 270.059 267.58 270.085 267.58 270.111C267.58 270.136 267.58 270.162 267.58 270.188C267.58 270.213 267.58 270.239 267.58 270.265C267.58 270.29 267.58 270.316 267.58 270.342C267.58 270.367 267.58 270.393 267.58 270.419C267.58 270.444 267.58 270.47 267.58 270.496C267.58 270.521 267.58 270.547 267.58 270.573C267.58 270.599 267.58 270.624 267.58 270.65C267.58 270.676 267.58 270.701 267.58 270.727C267.58 270.753 267.58 270.778 267.58 270.804C267.58 270.83 267.58 270.855 267.58 270.881C267.58 270.907 267.58 270.933 267.58 270.958C267.58 270.984 267.58 271.01 267.58 271.035C267.58 271.061 267.58 271.087 267.58 271.113C267.58 271.138 267.58 271.164 267.58 271.19C267.58 271.215 267.58 271.241 267.58 271.267C267.58 271.292 267.58 271.318 267.58 271.344C267.58 271.37 267.58 271.395 267.58 271.421C267.58 271.447 267.58 271.472 267.58 271.498C267.58 271.524 267.58 271.549 267.58 271.575C267.58 271.601 267.58 271.627 267.58 271.652C267.58 271.678 267.58 271.704 267.58 271.729C267.58 271.755 267.58 271.781 267.58 271.807C267.58 271.832 267.58 271.858 267.58 271.884C267.58 271.909 267.58 271.935 267.58 271.961C267.58 271.986 267.58 272.012 267.58 272.038C267.58 272.063 267.58 272.089 267.58 272.115C267.58 272.141 267.58 272.166 267.58 272.192C267.58 272.218 267.58 272.243 267.58 272.269C267.58 272.295 267.58 272.32 267.58 272.346C267.58 272.372 267.58 272.397 267.58 272.423C267.58 272.449 267.58 272.474 267.58 272.5C267.58 272.526 267.58 272.551 267.58 272.577C267.58 272.603 267.58 272.628 267.58 272.654C267.58 272.68 267.58 272.705 267.58 272.731C267.58 272.757 267.58 272.782 267.58 272.808C267.58 272.833 267.58 272.859 267.58 272.885C267.58 272.91 267.58 272.936 267.58 272.962C267.58 272.987 267.58 273.013 267.58 273.038C267.58 273.064 267.58 273.09 267.58 273.115C267.58 273.141 267.58 273.167 267.58 273.192C267.58 273.218 267.58 273.243 267.58 273.269C267.58 273.295 267.58 273.32 267.58 273.346C267.58 273.371 267.58 273.397 267.58 273.422C267.58 273.448 267.58 273.474 267.58 273.499C267.58 273.525 267.58 273.55 267.58 273.576C267.58 273.601 267.58 273.627 267.58 273.652C267.58 273.678 267.58 273.703 267.58 273.729C267.58 273.755 267.58 273.78 267.58 273.806C267.58 273.831 267.58 273.857 267.58 273.882C267.58 273.908 267.58 273.933 267.58 273.959C267.58 273.984 267.58 274.01 267.58 274.035C267.58 274.061 267.58 274.086 267.58 274.111C267.58 274.137 267.58 274.162 267.58 274.188C267.58 274.213 267.58 274.239 267.58 274.264C267.58 274.29 267.58 274.315 267.58 274.34C267.58 274.366 267.58 274.391 267.58 274.417C267.58 274.442 267.58 274.468 267.58 274.493C267.58 274.518 267.58 274.544 267.58 274.569C267.58 274.594 267.58 274.62 267.58 274.645C267.58 274.671 267.58 274.696 267.58 274.721C267.58 274.747 267.58 274.772 267.58 274.797C267.58 274.823 267.58 274.848 267.58 274.873C267.58 274.898 267.58 274.924 267.58 274.949C267.58 274.974 267.58 275 267.58 275.025C267.58 275.05 267.58 275.075 267.58 275.101C267.58 275.126 267.58 275.151 267.58 275.176C267.58 275.202 267.58 275.227 267.58 275.252C267.58 275.277 267.58 275.303 267.58 275.328C267.58 275.353 267.58 275.378 267.58 275.403C267.58 275.429 267.58 275.454 267.58 275.479C267.58 275.504 267.58 275.529 267.58 275.554C267.58 275.579 267.58 275.605 267.58 275.63C267.58 275.655 267.58 275.68 267.58 275.705C267.58 275.73 267.58 275.755 267.58 275.78C267.58 275.805 267.58 275.83 267.58 275.856C267.58 275.881 267.58 275.906 267.58 275.931C267.58 275.956 267.58 275.981 267.58 276.006C267.58 276.031 267.58 276.056 267.58 276.081C267.58 276.106 267.58 276.131 267.58 276.156C267.58 276.181 267.58 276.206 267.58 276.23C267.58 276.255 267.58 276.28 267.58 276.305C267.58 276.33 267.58 276.355 267.58 276.38C267.58 276.405 267.58 276.43 267.58 276.455C267.58 276.479 267.58 276.504 267.58 276.529C267.58 276.554 267.58 276.579 267.58 276.604C267.58 276.628 267.58 276.653 267.58 276.678C267.58 276.703 267.58 276.728 267.58 276.752C267.58 276.777 267.58 276.802 267.58 276.827C267.58 276.851 267.58 276.876 267.58 276.901C267.58 276.925 267.58 276.95 267.58 276.975C267.58 277 267.58 277.024 267.58 277.049C267.58 277.074 267.58 277.098 267.58 277.123C267.58 277.147 267.58 277.172 267.58 277.197C267.58 277.221 267.58 277.246 267.58 277.27C267.58 277.295 267.58 277.319 267.58 277.344C267.58 277.369 267.58 277.393 267.58 277.418C267.58 277.442 267.58 277.467 267.58 277.491C267.58 277.516 267.58 277.54 267.58 277.564C267.58 277.589 267.58 277.613 267.58 277.638C267.58 277.662 267.58 277.687 267.58 277.711C267.58 277.735 267.58 277.76 267.58 277.784C267.58 277.808 267.58 277.833 267.58 277.857C267.58 277.881 267.58 277.906 267.58 277.93C267.58 277.954 267.58 277.979 267.58 278.003C267.58 278.027 267.58 278.051 267.58 278.076C267.58 278.1 267.58 278.124 267.58 278.148C267.58 278.172 267.58 278.196 267.58 278.221C267.58 278.245 267.58 278.269 267.58 278.293C267.58 278.317 267.58 278.341 267.58 278.365C267.58 278.389 267.58 278.413 267.58 278.438C267.58 278.462 267.58 278.486 267.58 278.51C267.58 278.534 267.58 278.558 267.58 278.582C267.58 278.606 267.58 278.63 267.58 278.654C267.58 278.677 267.58 278.701 267.58 278.725C267.58 278.749 267.58 278.773 267.58 278.797C267.58 278.821 267.58 278.845 267.58 278.869C267.58 278.892 267.58 278.916 267.58 278.94C267.58 278.964 267.58 278.988 267.58 279.011C267.58 279.035 267.58 279.059 267.58 279.083C267.58 279.106 267.58 279.13 267.58 279.154C267.58 279.177 267.58 279.201 267.58 279.225C267.58 279.248 267.58 279.272 267.58 279.295C267.58 279.319 267.58 279.343 267.58 279.366C267.58 279.39 267.58 279.413 267.58 279.437C267.58 279.46 267.58 279.484 267.58 279.507C267.58 279.531 267.58 279.554 267.58 279.578C267.58 279.601 267.58 279.625 267.58 279.648C267.58 279.671 267.58 279.695 267.58 279.718C267.58 279.741 267.58 279.765 267.58 279.788C267.58 279.811 267.58 279.835 267.58 279.858C267.58 279.881 267.58 279.904 267.58 279.928C267.58 279.951 267.58 279.974 267.58 279.997C267.58 280.02 267.58 280.044 267.58 280.067C267.58 280.09 267.58 280.113 267.58 280.136C267.58 280.159 267.58 280.182 267.58 280.205C267.58 280.228 267.58 280.251 267.58 280.274C267.58 280.297 267.58 280.32 267.58 280.343C267.58 280.366 267.58 280.389 267.58 280.412C267.58 280.435 267.58 280.458 267.58 280.481C267.58 280.504 267.58 280.527 267.58 280.549C267.58 280.572 267.58 280.595 267.58 280.618C267.58 280.641 267.58 280.663 267.58 280.686C267.58 280.709 267.58 280.732 267.58 280.754C267.58 280.777 267.58 280.8 267.58 280.822C267.58 280.845 267.58 280.867 267.58 280.89C267.58 280.913 267.58 280.935 267.58 280.958C267.58 280.98 267.58 281.003 267.58 281.025C267.58 281.048 267.58 281.07 267.58 281.093C267.58 281.115 267.58 281.138 267.58 281.16C267.58 281.182 267.58 281.205 267.58 281.227C267.58 281.249 267.58 281.272 267.58 281.294C267.58 281.316 267.58 281.339 267.58 281.361C267.58 281.383 267.58 281.405 267.58 281.427C267.58 281.45 267.58 281.472 267.58 281.494C267.58 281.516 267.58 281.538 267.58 281.56C267.58 281.582 267.58 281.604 267.58 281.626C267.58 281.648 267.58 281.67 267.58 281.692C267.58 281.714 267.58 281.736 267.58 281.758C267.58 281.78 267.58 281.802 267.58 281.824C267.58 281.846 267.58 281.868 267.58 281.89C267.58 281.911 267.58 281.933 267.58 281.955C267.58 281.977 267.58 281.998 267.58 282.02C267.58 282.042 267.58 282.063 267.58 282.085C267.58 282.107 267.58 282.128 267.58 282.15C267.58 282.172 267.58 282.193 267.58 282.215C267.58 282.236 267.58 282.258 267.58 282.279C267.58 282.301 267.58 282.322 267.58 282.344C267.58 282.365 267.58 282.387 267.58 282.408C267.58 282.429 267.58 282.451 267.58 282.472C267.58 282.493 267.58 282.515 267.58 282.536C267.58 282.557 267.58 282.578 267.58 282.6C267.58 282.621 267.58 282.642 267.58 282.663C267.58 282.684 267.58 282.705 267.58 282.726C267.58 282.747 267.58 282.769 267.58 282.79C267.58 282.811 267.58 282.832 267.58 282.853C267.58 282.873 267.58 282.894 267.58 282.915C267.58 282.936 267.58 282.957 267.58 282.978C267.58 282.999 267.58 283.02 267.58 283.04C267.58 283.061 267.58 283.082 267.58 283.103C267.58 283.123 267.58 283.144 267.58 283.165C267.58 283.185 267.58 283.206 267.58 283.227C267.58 283.247 267.58 283.268 267.58 283.288C267.58 283.309 267.58 283.329 267.58 283.35C267.58 283.37 267.58 283.391 267.58 283.411C267.58 283.432 267.58 283.452 267.58 283.472C267.58 283.493 267.58 283.513 267.58 283.533C267.58 283.554 267.58 283.574 267.58 283.594C267.58 283.614 267.58 283.635 267.58 283.655C267.58 283.675 267.58 283.695 267.58 283.715C267.58 283.735 267.58 283.755 267.58 283.775C267.58 283.795 267.58 283.815 267.58 283.835C267.58 283.855 267.58 283.875 267.58 283.895C267.58 283.915 267.58 283.935 267.58 283.955C267.58 283.974 267.58 283.994 267.58 284.014C267.58 284.034 267.58 284.054 267.58 284.073C267.58 284.093 267.58 284.113 267.58 284.132C267.58 284.152 267.58 284.171 267.58 284.191C267.58 284.211 267.58 284.23 267.58 284.25C267.58 284.269 267.58 284.289 267.58 284.308C267.58 284.327 267.58 284.347 267.58 284.366C267.58 284.386 267.58 284.405 267.58 284.424C267.58 284.443 267.58 284.463 267.58 284.482C267.58 284.501 267.58 284.52 267.58 284.539C267.58 284.559 267.58 284.578 267.58 284.597C267.58 284.616 267.58 284.635 267.58 284.654C267.58 284.673 267.58 284.692 267.58 284.711C267.58 284.73 267.58 284.749 267.58 284.768C267.58 284.786 267.58 284.805 267.58 284.824C267.58 284.843 267.58 284.862 267.58 284.88C267.58 284.899 267.58 284.918 267.58 284.936C267.58 284.955 267.58 284.974 267.58 284.992C267.58 285.011 267.58 285.029 267.58 285.048C267.58 285.066 267.58 285.085 267.58 285.103C267.58 285.122 267.58 285.14 267.58 285.158C267.58 285.177 267.58 285.195 267.58 285.213C267.58 285.232 267.58 285.25 267.58 285.268C267.58 285.286 267.58 285.304 267.58 285.323C267.58 285.341 267.58 285.359 267.58 285.377C267.58 285.395 267.58 285.413 267.58 285.431C267.58 285.449 267.58 285.467 267.58 285.485C267.58 285.503 267.58 285.521 267.58 285.538C267.58 285.556 267.58 285.574 267.58 285.592H269.58ZM76.906 187.967L80.2238 188.016L80.2538 186.016L76.9359 185.967L76.906 187.967ZM81.2388 187.016V186.139H79.2388V187.016H81.2388ZM79.2388 187.016V218.608H81.2388V187.016H79.2388ZM80.2238 188.016L80.5263 188.021L80.5563 186.021L80.2538 186.016L80.2238 188.016ZM150.526 192.214V192.345H152.526V192.214H150.526ZM150.526 192.346C150.552 206.716 159.04 220.535 175.382 229.976L176.382 228.244C160.517 219.079 152.55 205.851 152.526 192.343L150.526 192.346ZM150.526 192.212C150.525 192.257 150.525 192.302 150.526 192.346L152.526 192.343C152.525 192.301 152.525 192.258 152.526 192.216L150.526 192.212ZM150.526 192.345V193.221H152.526V192.345H150.526ZM269.58 285.592V253.123H267.58V285.592H269.58ZM252.662 55.4677C277.451 57.8441 301.283 64.7725 321.481 76.4408L322.482 74.709C301.997 62.8747 277.878 55.8759 252.853 53.4769L252.662 55.4677ZM370.571 151.092C370.509 159.507 368.96 167.996 365.901 176.352L367.779 177.04C370.914 168.475 372.508 159.759 372.571 151.106L370.571 151.092ZM372.571 183.566V151.099H370.571V183.566H372.571ZM370.571 150.038V151.099H372.571V150.038H370.571ZM372.571 151.106C372.574 150.748 372.574 150.389 372.571 150.031L370.571 150.046C370.574 150.394 370.574 150.743 370.571 151.092L372.571 151.106ZM297.393 179.516V156.189H295.393V179.516H297.393ZM295.396 156.12C294.955 162.487 292.757 168.917 288.741 175.029L290.412 176.128C294.6 169.754 296.924 162.997 297.391 156.258L295.396 156.12ZM295.393 151.263V156.189H297.393V151.263H295.393ZM297.391 156.258C297.508 154.566 297.508 152.875 297.391 151.194L295.396 151.333C295.506 152.922 295.506 154.519 295.396 156.12L297.391 156.258ZM202.502 175.034C215.087 182.304 233.815 181.247 245.918 172.985L244.791 171.333C233.29 179.184 215.389 180.169 203.503 173.302L202.502 175.034ZM245.84 171.285C239.51 167.768 231.537 166.175 223.685 166.468C215.832 166.761 208.009 168.944 201.991 173.082L203.125 174.73C208.764 170.852 216.198 168.749 223.759 168.467C231.32 168.185 238.917 169.726 244.869 173.033L245.84 171.285ZM202.043 174.763C202.129 174.815 202.215 174.866 202.302 174.918L203.316 173.193C203.235 173.145 203.154 173.097 203.073 173.049L202.043 174.763ZM202.302 174.917C202.369 174.956 202.435 174.995 202.502 175.034L203.503 173.302C203.44 173.266 203.378 173.23 203.316 173.193L202.302 174.917ZM247.015 169.66C246.306 170.248 245.563 170.806 244.791 171.333L245.918 172.985C246.74 172.424 247.533 171.829 248.291 171.2L247.015 169.66Z" fill="#0F2830"/>
<defs>
<linearGradient id="paint0_linear_632_732" x1="440.965" y1="24.5562" x2="143.362" y2="392.258" gradientUnits="userSpaceOnUse">
<stop stop-color="#2EE297"/>
<stop offset="1" stop-color="#1DC9D4"/>
</linearGradient>
<linearGradient id="paint1_linear_632_732" x1="440.965" y1="24.5562" x2="143.362" y2="392.258" gradientUnits="userSpaceOnUse">
<stop stop-color="#2EE297"/>
<stop offset="1" stop-color="#1DC9D4"/>
</linearGradient>
</defs>
</svg>
