<svg width="48" height="48" viewBox="0 0 48 48" fill="none" xmlns="http://www.w3.org/2000/svg">
<path d="M23.999 34.2449V32.0786M24 30V30.5M35.4269 20.164H12.5711V15.8314C12.5711 12.9588 13.7752 10.2037 15.9183 8.17245C18.0614 6.14117 20.9682 5 23.999 5C27.0299 5 29.9366 6.14117 32.0797 8.17245C34.2229 10.2037 35.4269 12.9588 35.4269 15.8314V20.164ZM37.7125 20.164H10.2856C9.6794 20.164 9.09806 20.3922 8.66943 20.7985C8.2408 21.2048 8 21.7558 8 22.3303V28.8292C7.99904 30.8594 8.42822 32.8691 9.26209 34.7392C10.096 36.6093 11.3176 38.3016 12.8544 39.7158C14.3913 41.1301 16.2121 42.2374 18.2089 42.9721C20.2058 43.7069 22.3379 44.0541 24.479 43.9932C28.7168 43.7699 32.6991 42.0011 35.5919 39.0574C38.4847 36.1137 40.0636 32.2233 39.998 28.2009V22.3303C39.998 21.7558 39.7572 21.2048 39.3286 20.7985C38.9 20.3922 38.3186 20.164 37.7125 20.164Z" stroke="url(#paint0_linear_417_2476)" stroke-width="2" stroke-linecap="round" stroke-linejoin="round"/>
<defs>
<linearGradient id="paint0_linear_417_2476" x1="31.0923" y1="-5.05469" x2="1.84455" y2="20.4758" gradientUnits="userSpaceOnUse">
<stop stop-color="#2EE297"/>
<stop offset="1" stop-color="#1DC9D4"/>
</linearGradient>
</defs>
</svg>
