<svg width="21" height="21" viewBox="0 0 21 21" fill="none" xmlns="http://www.w3.org/2000/svg">
<g clip-path="url(#clip0_430_475)">
<path d="M12.2714 11.0716C12.2714 14.2138 9.74602 16.7611 6.63093 16.7611C3.51584 16.7611 0.990234 14.2133 0.990234 11.0716C0.990234 7.9299 3.51565 5.38184 6.63093 5.38184C9.74621 5.38184 12.2714 7.92932 12.2714 11.0716Z" fill="url(#paint0_linear_430_475)"/>
<path d="M18.4591 11.0713C18.4591 14.0291 17.1964 16.4278 15.6387 16.4278C14.0811 16.4278 12.8184 14.0291 12.8184 11.0713C12.8184 8.11354 14.0809 5.71484 15.6385 5.71484C17.1962 5.71484 18.4589 8.11277 18.4589 11.0713" fill="url(#paint1_linear_430_475)"/>
<path d="M20.9895 11.072C20.9895 13.7214 20.5455 15.8705 19.9976 15.8705C19.4497 15.8705 19.0059 13.722 19.0059 11.072C19.0059 8.42197 19.4499 6.27344 19.9976 6.27344C20.5453 6.27344 20.9895 8.42178 20.9895 11.072Z" fill="url(#paint2_linear_430_475)"/>
</g>
<defs>
<linearGradient id="paint0_linear_430_475" x1="9.13115" y1="2.44811" x2="0.530546" y2="11.519" gradientUnits="userSpaceOnUse">
<stop stop-color="#2EE297"/>
<stop offset="1" stop-color="#1DC9D4"/>
</linearGradient>
<linearGradient id="paint1_linear_430_475" x1="16.8889" y1="2.95292" x2="9.97451" y2="6.82602" gradientUnits="userSpaceOnUse">
<stop stop-color="#2EE297"/>
<stop offset="1" stop-color="#1DC9D4"/>
</linearGradient>
<linearGradient id="paint2_linear_430_475" x1="20.4373" y1="3.79919" x2="17.3902" y2="4.46923" gradientUnits="userSpaceOnUse">
<stop stop-color="#2EE297"/>
<stop offset="1" stop-color="#1DC9D4"/>
</linearGradient>
<clipPath id="clip0_430_475">
<rect width="20" height="20" fill="white" transform="translate(0.990234 0.881836)"/>
</clipPath>
</defs>
</svg>
