<svg width="34" height="34" viewBox="0 0 34 34" fill="none" xmlns="http://www.w3.org/2000/svg">
<rect x="1" y="1" width="32" height="32" rx="16" fill="black"/>
<path d="M18.0835 16.9996C18.0835 19.662 15.9482 21.8204 13.3143 21.8204C10.6804 21.8204 8.54492 19.6616 8.54492 16.9996C8.54492 14.3377 10.6802 12.1787 13.3143 12.1787C15.9484 12.1787 18.0835 14.3372 18.0835 16.9996ZM23.3156 16.9996C23.3156 19.5057 22.2479 21.5381 20.9309 21.5381C19.6139 21.5381 18.5462 19.5057 18.5462 16.9996C18.5462 14.4935 19.6137 12.4611 20.9308 12.4611C22.2478 12.4611 23.3154 14.4929 23.3154 16.9996H23.3156ZM25.4556 16.9996C25.4556 19.2445 25.0802 21.0654 24.6169 21.0654C24.1537 21.0654 23.7784 19.245 23.7784 16.9996C23.7784 14.7543 24.1538 12.9338 24.6169 12.9338C25.08 12.9338 25.4556 14.7541 25.4556 16.9996Z" fill="white"/>
<rect x="1" y="1" width="32" height="32" rx="16" stroke="white" stroke-width="2"/>
</svg>
