<svg width="20" height="21" viewBox="0 0 20 21" fill="none" xmlns="http://www.w3.org/2000/svg">
<path d="M19 4.00785C18.2165 4.53487 17.349 4.93795 16.4309 5.20158C15.9382 4.66129 15.2833 4.27834 14.5548 4.10454C13.8264 3.93073 13.0596 3.97445 12.3581 4.22978C11.6565 4.48511 11.0542 4.93974 10.6324 5.53217C10.2107 6.1246 9.98993 6.82626 10 7.54224V8.32246C8.56215 8.35801 7.13741 8.05391 5.85264 7.43726C4.56788 6.8206 3.46299 5.91052 2.63636 4.78806C2.63636 4.78806 -0.636364 11.81 6.72727 14.9309C5.04225 16.0216 3.03495 16.5685 1 16.4913C8.36364 20.3924 17.3636 16.4913 17.3636 7.51883C17.3629 7.3015 17.341 7.08471 17.2982 6.87125C18.1332 6.08595 18.7225 5.09447 19 4.00785V4.00785Z" fill="url(#paint0_linear_1142_785)"/>
<defs>
<linearGradient id="paint0_linear_1142_785" x1="13.9894" y1="0.390625" x2="3.89242" y2="14.2014" gradientUnits="userSpaceOnUse">
<stop stop-color="#2EE297"/>
<stop offset="1" stop-color="#1DC9D4"/>
</linearGradient>
</defs>
</svg>
