<svg width="36" height="37" viewBox="0 0 36 37" fill="none" xmlns="http://www.w3.org/2000/svg">
<path d="M35 7.40845C35 10.9477 27.3888 13.8169 18 13.8169C8.61116 13.8169 1 10.9477 1 7.40845M35 7.40845C35 3.86916 27.3888 1 18 1C8.61116 1 1 3.86916 1 7.40845M35 7.40845V14.3099C35 18.1214 27.3888 21.2113 18 21.2113C8.61116 21.2113 1 18.1214 1 14.3099V7.40845M1 14.8028V21.7042C1 25.5158 8.61116 28.6056 18 28.6056C27.3888 28.6056 35 25.5158 35 21.7042V14.8028M1 22.1972V29.0986C1 32.9101 8.61116 36 18 36C27.3888 36 35 32.9101 35 29.0986V22.1972" stroke="#0F2830" stroke-width="2" stroke-linecap="round" stroke-linejoin="round"/>
</svg>
