<svg width="24" height="24" viewBox="0 0 24 24" fill="none" xmlns="http://www.w3.org/2000/svg">
<path d="M9.56747 17.3549C9.31953 17.7894 9.03959 18.2028 8.73281 18.5954L8.72474 18.6057L8.7164 18.6159C8.45042 18.9384 8.01682 19.0754 7.61092 18.9593L7.60623 18.9579C6.15024 18.5338 4.65893 17.8907 3.12397 16.8344L3.11172 16.826L3.09972 16.8172C2.89053 16.6638 2.70648 16.4059 2.67381 16.0713M9.56747 17.3549L2.67326 16.0655C2.67343 16.0675 2.67362 16.0694 2.67381 16.0713M9.56747 17.3549C11.1777 17.7038 12.8234 17.705 14.4264 17.3576C14.6755 17.7875 14.952 18.1973 15.2508 18.587C15.5282 18.9496 15.9852 19.0718 16.3788 18.9593L16.3822 18.9583C17.8456 18.5341 19.3372 17.8908 20.8723 16.8344L20.8756 16.8321C21.11 16.6695 21.2895 16.4015 21.3222 16.0747C21.6986 12.42 20.6845 9.23566 18.668 6.44731C18.5383 6.2563 18.3655 6.13958 18.2142 6.07505C17.0703 5.58343 15.8447 5.22148 14.564 5.01403C14.1636 4.94818 13.7253 5.11824 13.4898 5.51007L13.4895 5.51069C13.4402 5.59282 13.3901 5.68076 13.3408 5.77102C12.4418 5.68851 11.5454 5.68815 10.656 5.7704C10.6046 5.67843 10.5534 5.59016 10.5045 5.509L10.5046 5.50895L10.4973 5.49718C10.258 5.11237 9.83003 4.95679 9.45158 5.01087L9.44263 5.01215L9.43371 5.01359C8.15292 5.22031 6.92669 5.58231 5.7817 6.07466C5.61629 6.14495 5.45416 6.26426 5.33245 6.4383M2.67381 16.0713C2.35881 12.9068 3.01123 9.69122 5.33245 6.4383M2.67381 16.0713L5.33245 6.4383" stroke="url(#paint0_linear_883_29)" stroke-width="2" stroke-linecap="round"/>
<path d="M9.21295 14.1852C8.38518 14.1852 7.70312 13.4731 7.70312 12.5985C7.70312 11.7239 8.37195 11.0117 9.21295 11.0117C10.0605 11.0117 10.736 11.7301 10.7227 12.5985C10.7227 13.4731 10.0539 14.1852 9.21295 14.1852Z" fill="url(#paint1_linear_883_29)"/>
<path d="M14.7953 14.1852C13.9675 14.1852 13.2855 13.4731 13.2855 12.5985C13.2855 11.7239 13.9543 11.0117 14.7953 11.0117C15.6429 11.0117 16.3183 11.7301 16.3051 12.5985C16.3051 13.4731 15.6429 14.1852 14.7953 14.1852Z" fill="url(#paint2_linear_883_29)"/>
<defs>
<linearGradient id="paint0_linear_883_29" x1="166.887" y1="2.80434" x2="0.632889" y2="34.345" gradientUnits="userSpaceOnUse">
<stop stop-color="#2EE297"/>
<stop offset="1" stop-color="#1DC9D4"/>
</linearGradient>
<linearGradient id="paint1_linear_883_29" x1="166.887" y1="2.80454" x2="0.632499" y2="34.3452" gradientUnits="userSpaceOnUse">
<stop stop-color="#2EE297"/>
<stop offset="1" stop-color="#1DC9D4"/>
</linearGradient>
<linearGradient id="paint2_linear_883_29" x1="166.887" y1="2.80454" x2="0.632499" y2="34.3452" gradientUnits="userSpaceOnUse">
<stop stop-color="#2EE297"/>
<stop offset="1" stop-color="#1DC9D4"/>
</linearGradient>
</defs>
</svg>
