<svg width="30" height="42" viewBox="0 0 30 42" fill="none" xmlns="http://www.w3.org/2000/svg">
<path fill-rule="evenodd" clip-rule="evenodd" d="M14.5068 4.07793C11.1577 4.07793 8.03895 5.04923 5.41269 6.72646L7.43287 9.22547C9.49942 7.98165 11.9212 7.26558 14.5069 7.26558C19.8493 7.26558 24.4758 10.3162 26.7457 14.7617L23.3599 16.4904C21.7142 13.2673 18.3659 11.0672 14.5069 11.0672C12.1393 11.0672 9.96974 11.8932 8.26323 13.2744L6.78487 14.4709L0.000881953 6.07894L1.47748 4.88382C5.03653 2.00319 9.57259 0.276367 14.5068 0.276367C15.7395 0.276367 16.9485 0.384196 18.1245 0.591379L17.465 4.33529C16.5057 4.1663 15.5174 4.07793 14.5068 4.07793ZM21.0698 5.39717C22.5456 6.01874 23.9156 6.84416 25.1445 7.83877L26.6219 9.03461L29.0136 6.07966L27.5361 4.88382C26.0329 3.66712 24.3551 2.65591 22.5455 1.89369L21.0698 5.39717ZM4.5741 21C4.5741 19.6674 4.83548 18.4007 5.30798 17.2447L1.78901 15.8064C1.13311 17.4111 0.772534 19.1658 0.772534 21C0.772534 24.0902 1.79539 26.947 3.52022 29.2429L6.55959 26.9594C5.31241 25.2993 4.5741 23.2386 4.5741 21ZM23.0404 26.087C22.1336 27.6042 20.8332 28.86 19.2817 29.7124L21.1123 33.0442C23.2567 31.866 25.0511 30.1329 26.3035 28.0373L23.0404 26.087ZM14.5069 30.9328C12.3644 30.9328 10.3854 30.2566 8.76446 29.1058L6.56371 32.2056C8.31747 33.4507 10.3775 34.2948 12.6061 34.6037L12.606 41.7236H14.5068C16.6872 41.7236 18.7923 41.3862 20.771 40.7595C21.375 40.5682 21.9669 40.35 22.5455 40.1063C24.3551 39.3441 26.0329 38.3328 27.5361 37.1162L29.0136 35.9203L26.6219 32.9654L25.1445 34.1612C23.9156 35.1558 22.5456 35.9812 21.0698 36.6028C20.598 36.8015 20.1154 36.9794 19.623 37.1354C18.5915 37.4621 17.5163 37.6929 16.4076 37.8166L16.4078 30.9328H14.5069ZM3.86916 34.1612L2.39168 32.9654L0 35.9203L1.47748 37.1162C3.50578 38.7578 5.85193 40.0254 8.41063 40.8119L9.52755 37.1781C7.4423 36.5372 5.52726 35.5032 3.86916 34.1612Z" fill="url(#paint0_linear_721_1946)"/>
<path fill-rule="evenodd" clip-rule="evenodd" d="M14.5071 14.2548C10.7818 14.2548 7.76188 17.2747 7.76188 21C7.76188 24.7252 10.7818 27.7452 14.5071 27.7452C17.5723 27.7452 20.16 25.7006 20.9807 22.9008L24.2585 22.9008L27.6482 24.9358C28.0682 23.673 28.2413 22.328 28.2413 21C28.2413 20.356 28.1969 19.7213 28.1106 19.0992L20.9807 19.0992C20.16 16.2994 17.5723 14.2548 14.5071 14.2548ZM14.5071 18.0564C12.8813 18.0564 11.5634 19.3743 11.5634 21C11.5634 22.6257 12.8813 23.9436 14.5071 23.9436C16.1328 23.9436 17.4507 22.6257 17.4507 21C17.4507 19.3743 16.1328 18.0564 14.5071 18.0564Z" fill="url(#paint1_linear_721_1946)"/>
<defs>
<linearGradient id="paint0_linear_721_1946" x1="18.7174" y1="-4.67075" x2="10.6269" y2="46.1197" gradientUnits="userSpaceOnUse">
<stop stop-color="#2EE297"/>
<stop offset="1" stop-color="#1DC9D4"/>
</linearGradient>
<linearGradient id="paint1_linear_721_1946" x1="18.7174" y1="-4.67075" x2="10.6269" y2="46.1197" gradientUnits="userSpaceOnUse">
<stop stop-color="#2EE297"/>
<stop offset="1" stop-color="#1DC9D4"/>
</linearGradient>
</defs>
</svg>
