<svg width="263" height="156" viewBox="0 0 263 156" fill="none" xmlns="http://www.w3.org/2000/svg">
<path fill-rule="evenodd" clip-rule="evenodd" d="M8.12055 10.9032L12.0962 2L97.2122 39.3839C104.15 31.5615 114.276 26.6316 125.554 26.6316C146.469 26.6316 163.425 43.5867 163.425 64.5019C163.425 69.3423 162.516 73.9707 160.861 78.2259C160.232 79.8434 159.495 81.4071 158.659 82.9079C152.189 94.5185 139.789 102.372 125.554 102.372C104.639 102.372 87.6841 85.417 87.6841 64.5019C87.6841 63.9371 87.6965 63.3752 87.7209 62.8165L72.6629 56.6859L64.6094 40.0091L47.6866 44.9965L39.4185 29.592L21.2849 33.2737L8.12055 10.9032ZM125.554 79.5498C128.889 79.5498 131.97 78.4651 134.465 76.6293C138.187 73.8899 140.602 69.4778 140.602 64.5016C140.602 56.1907 133.865 49.4534 125.554 49.4534C117.243 49.4534 110.506 56.1907 110.506 64.5016C110.506 64.7448 110.512 64.9866 110.523 65.227C110.901 73.201 117.486 79.5498 125.554 79.5498Z" fill="url(#paint0_linear_852_1441)"/>
<path d="M125.554 49.4534C117.243 49.4534 110.506 56.1907 110.506 64.5016C110.506 64.7448 110.512 64.9866 110.523 65.227C113.017 63.3912 116.099 62.3065 119.434 62.3065C127.501 62.3065 134.086 68.6553 134.465 76.6293C138.187 73.8899 140.602 69.4778 140.602 64.5016C140.602 56.1907 133.865 49.4534 125.554 49.4534Z" fill="white"/>
<path d="M125.554 102.372C104.639 102.372 87.6841 85.417 87.6841 64.5019C87.6841 63.9371 87.6965 63.3752 87.7209 62.8165L81.6004 75.6697C81.5759 76.2284 81.5635 76.7903 81.5635 77.355C81.5635 98.2701 98.5186 115.225 119.434 115.225C134.132 115.225 146.875 106.851 153.152 94.6137L158.659 82.9079C152.189 94.5185 139.789 102.372 125.554 102.372Z" fill="white"/>
<path d="M87.7209 62.8165L72.6629 56.6859L66.5424 69.539L81.6004 75.6697L87.7209 62.8165Z" fill="white"/>
<path d="M72.6629 56.6859L64.6094 40.0091L58.4889 52.8623L66.5424 69.539L72.6629 56.6859Z" fill="white"/>
<path d="M64.6094 40.0091L47.6866 44.9965L41.566 57.8497L58.4889 52.8623L64.6094 40.0091Z" fill="white"/>
<path d="M47.6866 44.9965L39.4185 29.592L33.298 42.4451L41.566 57.8497L47.6866 44.9965Z" fill="white"/>
<path d="M39.4185 29.592L21.2849 33.2737L15.1644 46.1268L33.298 42.4451L39.4185 29.592Z" fill="white"/>
<path d="M21.2849 33.2737L8.12055 10.9032L2 23.7563L15.1644 46.1268L21.2849 33.2737Z" fill="white"/>
<path d="M12.0962 2L12.4983 1.08442L11.5883 0.684742L11.1831 1.59226L12.0962 2ZM39.4185 29.592L40.2996 29.1191L39.9481 28.4641L39.2196 28.612L39.4185 29.592ZM64.6094 40.0091L65.5099 39.5743L65.1408 38.81L64.3267 39.0499L64.6094 40.0091ZM87.7209 62.8165L88.72 62.8603L88.7508 62.1561L88.098 61.8903L87.7209 62.8165ZM2 23.7563L1.09714 23.3264L0.868834 23.8058L1.13815 24.2635L2 23.7563ZM15.1644 46.1268L14.3026 46.634L14.6643 47.2488L15.3634 47.1068L15.1644 46.1268ZM41.566 57.8497L40.6849 58.3226L41.0692 59.0386L41.8487 58.8089L41.566 57.8497ZM66.5424 69.539L65.6419 69.9739L65.8091 70.3202L66.1653 70.4652L66.5424 69.539ZM160.861 78.2259L161.793 78.5884L160.861 78.2259ZM153.152 94.6137L154.041 95.0701L154.049 95.0549L154.057 95.0394L153.152 94.6137ZM9.03365 11.3109L13.0093 2.40774L11.1831 1.59226L7.20745 10.4955L9.03365 11.3109ZM22.1468 32.7665L8.98239 10.396L7.2587 11.4104L20.4231 33.7809L22.1468 32.7665ZM39.2196 28.612L21.086 32.2937L21.4839 34.2537L39.6175 30.572L39.2196 28.612ZM48.5677 44.5236L40.2996 29.1191L38.5374 30.0649L46.8055 45.4694L48.5677 44.5236ZM64.3267 39.0499L47.4039 44.0373L47.9693 45.9557L64.8921 40.9683L64.3267 39.0499ZM73.5634 56.251L65.5099 39.5743L63.7089 40.444L71.7624 57.1208L73.5634 56.251ZM125.554 101.372C105.191 101.372 88.6841 84.8647 88.6841 64.5019H86.6841C86.6841 85.9693 104.087 103.372 125.554 103.372V101.372ZM125.554 27.6316C145.917 27.6316 162.425 44.139 162.425 64.5019H164.425C164.425 43.0344 147.022 25.6316 125.554 25.6316V27.6316ZM111.506 64.5016C111.506 56.743 117.795 50.4534 125.554 50.4534V48.4534C116.691 48.4534 109.506 55.6384 109.506 64.5016H111.506ZM125.554 50.4534C133.313 50.4534 139.602 56.743 139.602 64.5016H141.602C141.602 55.6384 134.417 48.4534 125.554 48.4534V50.4534ZM97.6143 38.4683L12.4983 1.08442L11.694 2.91558L96.8101 40.2995L97.6143 38.4683ZM72.2858 57.6121L87.3438 63.7427L88.098 61.8903L73.04 55.7597L72.2858 57.6121ZM88.6841 64.5019C88.6841 63.9517 88.6961 63.4044 88.72 62.8603L86.7219 62.7728C86.6968 63.3461 86.6841 63.9225 86.6841 64.5019H88.6841ZM97.9604 40.0474C104.716 32.43 114.574 27.6316 125.554 27.6316V25.6316C113.978 25.6316 103.583 30.6931 96.4641 38.7204L97.9604 40.0474ZM96.8101 40.2995L97.3814 40.5504L98.1857 38.7193L97.6143 38.4683L96.8101 40.2995ZM2.90286 24.1863L9.02341 11.3331L7.21769 10.4733L1.09714 23.3264L2.90286 24.1863ZM16.0262 45.6197L2.86185 23.2492L1.13815 24.2635L14.3026 46.634L16.0262 45.6197ZM33.099 41.4651L14.9654 45.1468L15.3634 47.1068L33.497 43.4251L33.099 41.4651ZM42.4472 57.3768L34.1791 41.9722L32.4169 42.918L40.6849 58.3226L42.4472 57.3768ZM58.2062 51.9031L41.2833 56.8905L41.8487 58.8089L58.7715 53.8215L58.2062 51.9031ZM67.4429 69.1042L59.3893 52.4274L57.5884 53.2971L65.6419 69.9739L67.4429 69.1042ZM119.434 114.225C99.0709 114.225 82.5635 97.7179 82.5635 77.355H80.5635C80.5635 98.8224 97.9663 116.225 119.434 116.225V114.225ZM66.1653 70.4652L81.2233 76.5959L81.9775 74.7435L66.9194 68.6129L66.1653 70.4652ZM82.5635 77.355C82.5635 76.8049 82.5756 76.2576 82.5994 75.7134L80.6013 75.6259C80.5762 76.1992 80.5635 76.7757 80.5635 77.355H82.5635ZM162.425 64.5019C162.425 69.2163 161.54 73.7219 159.929 77.8633L161.793 78.5884C163.493 74.2195 164.425 69.4683 164.425 64.5019H162.425ZM152.262 94.1574C146.15 106.074 133.743 114.225 119.434 114.225V116.225C134.522 116.225 147.601 107.628 154.041 95.0701L152.262 94.1574ZM82.5032 76.0996L88.6238 63.2465L86.8181 62.3866L80.6975 75.2397L82.5032 76.0996ZM71.7601 56.256L65.6395 69.1091L67.4452 69.969L73.5658 57.1158L71.7601 56.256ZM59.3917 53.2922L65.5123 40.4391L63.7065 39.5792L57.586 52.4324L59.3917 53.2922ZM46.7837 44.5666L40.6632 57.4198L42.4689 58.2796L48.5895 45.4265L46.7837 44.5666ZM34.2008 42.8751L40.3214 30.0219L38.5157 29.1621L32.3951 42.0152L34.2008 42.8751ZM20.3821 32.8438L14.2615 45.6969L16.0673 46.5568L22.1878 33.7036L20.3821 32.8438ZM109.524 65.2744C109.928 73.7791 116.95 80.5498 125.554 80.5498V78.5498C118.023 78.5498 111.875 72.6229 111.522 65.1796L109.524 65.2744ZM125.554 80.5498C129.109 80.5498 132.397 79.3927 135.057 77.4347L133.872 75.8239C131.543 77.5376 128.668 78.5498 125.554 78.5498V80.5498ZM119.434 63.3065C126.965 63.3065 133.112 69.2334 133.466 76.6767L135.463 76.5819C135.06 68.0772 128.038 61.3065 119.434 61.3065V63.3065ZM139.602 64.5016C139.602 69.1464 137.349 73.2648 133.872 75.8239L135.057 77.4347C139.025 74.5149 141.602 69.8092 141.602 64.5016H139.602ZM111.116 66.0324C113.444 64.3187 116.319 63.3065 119.434 63.3065V61.3065C115.878 61.3065 112.591 62.4637 109.93 64.4216L111.116 66.0324ZM111.522 65.1796C111.511 64.955 111.506 64.729 111.506 64.5016H109.506C109.506 64.7606 109.512 65.0183 109.524 65.2744L111.522 65.1796ZM154.057 95.0394L159.563 83.3336L157.754 82.4822L152.247 94.1881L154.057 95.0394ZM157.785 82.4212C151.485 93.7277 139.412 101.372 125.554 101.372V103.372C140.166 103.372 152.893 95.3092 159.532 83.3946L157.785 82.4212ZM159.956 77.8002L157.754 82.4822L159.563 83.3336L161.766 78.6516L159.956 77.8002ZM159.929 77.8633C159.317 79.4379 158.599 80.96 157.785 82.4212L159.532 83.3946C160.391 81.8541 161.147 80.249 161.793 78.5884L159.929 77.8633Z" fill="#0F2830"/>
<path d="M115.988 66.8483C118.232 46.0265 149.589 32.3312 186.025 36.2591C222.461 40.1869 250.178 60.2505 247.934 81.0723L245.524 96.4197C247.994 73.505 220.459 51.7448 184.023 47.8169C151.304 44.2897 122.533 56.3419 115.215 75.4309L114.915 75.1386L114.717 74.9395L115.988 66.8483Z" fill="white"/>
<path d="M184.023 47.8169C220.459 51.7448 247.994 73.505 245.524 96.4197C243.053 119.334 211.514 134.726 175.078 130.798C156.955 128.845 141.034 122.479 129.913 113.755C133.83 112.637 138.367 110.569 142.204 107.622C150.921 113.432 162.872 117.688 176.335 119.139C205.058 122.236 229.783 111.39 231.559 94.9143C231.714 93.473 231.689 92.0364 231.494 90.6126C229.461 75.7604 208.977 62.3014 182.767 59.4758C157.218 56.7216 134.834 64.9977 128.947 78.4546C128.833 78.7139 128.726 78.9751 128.625 79.2383C124.063 80.1727 118.985 79.0089 115.215 75.4309C122.533 56.3419 151.304 44.2897 184.023 47.8169Z" fill="url(#paint1_linear_852_1441)"/>
<path d="M231.559 94.9143C229.783 111.39 205.058 122.236 176.335 119.139C162.872 117.688 150.921 113.432 142.204 107.622C143.607 106.578 147.02 103.686 149.454 100.476C157.497 105.186 167.2 108.446 177.835 109.593C200.642 112.052 221.332 104.097 231.494 90.6126C231.689 92.0364 231.714 93.473 231.559 94.9143Z" fill="white"/>
<path d="M186.025 36.2591L186.132 35.2648L186.025 36.2591ZM115.988 66.8483L116.982 66.9555L116.979 66.9795L116.976 67.0034L115.988 66.8483ZM247.934 81.0723L248.928 81.1795L248.925 81.2036L248.921 81.2275L247.934 81.0723ZM177.835 109.593L177.943 108.599L177.835 109.593ZM184.023 47.8169L183.916 48.8112L184.023 47.8169ZM175.078 130.798L175.185 129.804L175.078 130.798ZM182.767 59.4758L182.874 58.4816L182.767 59.4758ZM231.559 94.9143L230.565 94.8071L230.565 94.8071L231.559 94.9143ZM176.335 119.139L176.442 118.145L176.335 119.139ZM231.494 90.6126L232.485 90.4769L232.485 90.4769L231.494 90.6126ZM128.947 78.4546L128.031 78.0538L128.947 78.4546ZM114.717 74.9395L114.008 75.6442L113.651 75.2848L113.729 74.7844L114.717 74.9395ZM114.915 75.1386L114.218 75.8554L114.211 75.8494L114.205 75.8433L114.915 75.1386ZM115.215 75.4309L114.527 76.1562L114.518 76.1477L115.215 75.4309ZM128.625 79.2383L128.848 80.213L128.837 80.2156L128.826 80.2179L128.625 79.2383ZM129.224 79.1009L130.139 78.6972L130.628 79.805L129.448 80.0756L129.224 79.1009ZM129.913 113.755L129.296 114.541L127.752 113.331L129.638 112.793L129.913 113.755ZM142.204 107.622L141.595 106.829L141.601 106.825L141.607 106.82L142.204 107.622ZM149.454 100.476L148.657 99.8718L149.193 99.1645L149.959 99.613L149.454 100.476ZM185.918 37.2533C167.841 35.3046 151.072 37.7349 138.585 43.1889C126.067 48.656 118.049 57.0553 116.982 66.9555L114.993 66.7411C116.171 55.8194 124.953 46.9602 137.784 41.3561C150.645 35.7391 167.773 33.2857 186.132 35.2648L185.918 37.2533ZM246.939 80.9652C248.007 71.065 241.963 61.1498 230.898 53.1405C219.86 45.1503 203.995 39.202 185.918 37.2533L186.132 35.2648C204.491 37.244 220.703 43.2914 232.071 51.5204C243.413 59.7304 250.105 70.2579 248.928 81.1795L246.939 80.9652ZM248.921 81.2275L246.511 96.5748L244.536 96.2646L246.946 80.9172L248.921 81.2275ZM244.529 96.3125C245.714 85.3187 239.715 74.454 228.743 65.7828C217.783 57.1214 201.977 50.7581 183.916 48.8112L184.131 46.8227C202.506 48.8036 218.684 55.2843 229.983 64.2137C241.27 73.1333 247.803 84.606 246.518 96.5269L244.529 96.3125ZM175.185 129.804C193.245 131.751 210.045 128.903 222.599 122.776C235.167 116.643 243.344 107.306 244.529 96.3125L246.518 96.5269C245.233 108.448 236.405 118.265 223.476 124.574C210.534 130.89 193.346 133.774 174.971 131.793L175.185 129.804ZM176.442 118.145C190.662 119.678 203.844 117.753 213.65 113.451C223.486 109.136 229.732 102.536 230.565 94.8071L232.553 95.0214C231.61 103.768 224.605 110.829 214.454 115.282C204.273 119.748 190.731 121.697 176.227 120.134L176.442 118.145ZM177.943 108.599C200.498 111.03 220.799 103.144 230.696 90.0108L232.293 91.2144C221.865 105.051 200.787 113.073 177.728 110.587L177.943 108.599ZM232.485 90.4769C232.691 91.9794 232.718 93.4975 232.553 95.0214L230.565 94.8071C230.711 93.4485 230.688 92.0934 230.503 90.7482L232.485 90.4769ZM182.659 60.47C170.014 59.1069 158.185 60.4782 148.82 63.8276C139.43 67.186 132.652 72.4787 129.863 78.8554L128.031 78.0538C131.128 70.9736 138.486 65.3998 148.147 61.9445C157.833 58.4802 169.97 57.0905 182.874 58.4816L182.659 60.47ZM230.503 90.7482C229.542 83.7285 224.182 76.8689 215.655 71.3748C207.153 65.8963 195.633 61.8686 182.659 60.47L182.874 58.4816C196.111 59.9086 207.938 64.0231 216.738 69.6936C225.515 75.3484 231.412 82.6445 232.485 90.4769L230.503 90.7482ZM113.729 74.7844L115 66.6931L116.976 67.0034L115.705 75.0946L113.729 74.7844ZM115.427 74.2348L115.624 74.4339L114.205 75.8433L114.008 75.6442L115.427 74.2348ZM183.916 48.8112C167.701 47.0631 152.497 49.1804 140.47 54.0692C128.428 58.9645 119.676 66.5897 116.149 75.7888L114.282 75.0729C118.073 65.183 127.365 57.2377 139.717 52.2165C152.086 47.1887 167.627 45.0435 184.131 46.8227L183.916 48.8112ZM115.612 74.4218L115.913 74.7141L114.518 76.1477L114.218 75.8554L115.612 74.4218ZM127.692 78.8796C127.798 78.6022 127.911 78.3269 128.031 78.0538L129.863 78.8554C129.756 79.1009 129.654 79.3481 129.558 79.5969L127.692 78.8796ZM128.826 80.2179C123.967 81.213 118.55 79.9755 114.527 76.1561L115.904 74.7056C119.419 78.0424 124.159 79.1324 128.424 78.2586L128.826 80.2179ZM129.869 78.069C129.957 78.2789 130.047 78.4883 130.139 78.6972L128.31 79.5045C128.212 79.2838 128.117 79.0623 128.024 78.8402L129.869 78.069ZM128.402 78.2635L129.001 78.1261L129.448 80.0756L128.848 80.213L128.402 78.2635ZM130.53 112.968C141.483 121.56 157.219 127.867 175.185 129.804L174.971 131.793C156.691 129.822 140.586 123.399 129.296 114.541L130.53 112.968ZM142.759 106.79C151.322 112.497 163.114 116.708 176.442 118.145L176.227 120.134C162.63 118.668 150.52 114.366 141.65 108.454L142.759 106.79ZM129.638 112.793C133.452 111.705 137.871 109.688 141.595 106.829L142.813 108.415C138.863 111.449 134.208 113.569 130.187 114.716L129.638 112.793ZM149.959 99.613C157.875 104.248 167.442 107.467 177.943 108.599L177.728 110.587C166.958 109.426 157.118 106.123 148.948 101.339L149.959 99.613ZM141.607 106.82C142.964 105.809 146.299 102.981 148.657 99.8718L150.251 101.08C147.741 104.39 144.249 107.346 142.802 108.424L141.607 106.82Z" fill="#0F2830"/>
<defs>
<linearGradient id="paint0_linear_852_1441" x1="40.022" y1="-46.2672" x2="139.285" y2="143.346" gradientUnits="userSpaceOnUse">
<stop stop-color="#2EE297"/>
<stop offset="1" stop-color="#1DC9D4"/>
</linearGradient>
<linearGradient id="paint1_linear_852_1441" x1="24.3121" y1="-18.2074" x2="286.727" y2="150.208" gradientUnits="userSpaceOnUse">
<stop stop-color="#2EE297"/>
<stop offset="1" stop-color="#1DC9D4"/>
</linearGradient>
</defs>
</svg>
