<svg width="155" height="104" viewBox="0 0 155 104" fill="none" xmlns="http://www.w3.org/2000/svg">
<path fill-rule="evenodd" clip-rule="evenodd" d="M105.702 27.7321C98.4977 29.6626 92.3349 33.5402 87.6283 38.6471L5.42226 2.18638C4.49721 4.85945 2.47803 10.4934 1.80174 11.6447L15.3624 34.6885L34.0418 30.896L38.8281 44.1647L53.4556 39.0327L61.7515 56.2113L77.5881 62.6589C77.4133 66.4649 77.813 70.362 78.8517 74.2385C84.2796 94.4954 105.101 106.517 125.358 101.089C145.615 95.6611 157.636 74.8395 152.208 54.5826C146.781 34.3257 125.959 22.3043 105.702 27.7321ZM98.0859 67.7743C95.7339 58.9963 100.943 49.9736 109.721 47.6215C118.499 45.2695 127.522 50.4787 129.874 59.2567C132.226 68.0347 127.017 77.0574 118.239 79.4095C109.461 81.7615 100.438 76.5523 98.0859 67.7743Z" fill="url(#paint0_linear_534_827)" stroke="#0F2830" stroke-width="2"/>
<defs>
<linearGradient id="paint0_linear_534_827" x1="201.766" y1="80.6155" x2="-26.9822" y2="-29.723" gradientUnits="userSpaceOnUse">
<stop stop-color="#2EE297"/>
<stop offset="1" stop-color="#1DC9D4"/>
</linearGradient>
</defs>
</svg>
