<svg width="129" height="33" viewBox="0 0 129 33" fill="none" xmlns="http://www.w3.org/2000/svg">
<g opacity="0.5">
<path d="M24.2223 13.9219C26.6865 13.9219 27.2409 14.9928 27.2409 16.3285C27.2409 17.7444 26.5703 18.7587 24.2325 18.7587C21.9097 18.7587 21.2383 17.8033 21.2383 16.3285C21.2383 14.8773 21.9702 13.9219 24.2223 13.9219Z" fill="white"/>
<path d="M49.9762 13.9219C52.4404 13.9219 52.9948 14.9928 52.9948 16.3285C52.9948 17.7444 52.3234 18.7587 49.9864 18.7587C47.6644 18.7587 46.9922 17.8033 46.9922 16.3285C46.9922 14.8773 47.7241 13.9219 49.9762 13.9219Z" fill="white"/>
<path fill-rule="evenodd" clip-rule="evenodd" d="M2.40625 30.25V2.39404H126.934V30.25H2.40625ZM61.7559 28.6785H125.363V3.96547H61.7559V28.6785ZM24.2355 21.1302C28.6103 21.1302 30.4494 19.2421 30.4494 16.2933C30.4494 13.2966 28.3779 11.5154 24.2355 11.5154C20.1568 11.5154 18.0099 13.4498 18.0099 16.2933C18.0099 19.5022 20.262 21.1302 24.2355 21.1302ZM9.02553 11.7275V20.9888H17.8552V18.5224H12.22V11.7275H9.02553ZM40.3313 20.9888L40.2489 20.0915C39.1802 20.8546 37.8795 21.2218 36.5699 21.1302C34.6012 21.1302 32.9615 20.5401 32.042 19.349C31.4354 18.4793 31.1292 17.4354 31.1695 16.3758C31.1351 15.3384 31.4519 14.3198 32.0687 13.4852C32.9992 12.3294 34.686 11.5625 37.1973 11.5625C40.0863 11.5625 41.7841 12.4473 42.5144 13.9338C42.6712 14.2839 42.7633 14.6595 42.7861 15.0425H39.7298C39.6528 14.8097 39.5095 14.6047 39.3176 14.4524C38.7087 14.0485 37.9817 13.8618 37.2538 13.922C36.8269 13.8703 36.3937 13.9097 35.9832 14.0379C35.5726 14.166 35.1939 14.3799 34.8721 14.6653C34.5066 15.1658 34.3351 15.782 34.3892 16.3994C34.3468 16.9884 34.5045 17.5746 34.8368 18.0628C35.1615 18.3655 35.5475 18.5948 35.9686 18.7352C36.3897 18.8757 36.836 18.924 37.2774 18.8768C38.154 18.9481 39.0243 18.6776 39.7063 18.1217C39.8527 17.9385 39.9537 17.723 40.0007 17.4931H36.712V15.5029H42.8662V20.9888H40.3313ZM49.9879 21.1302C54.3619 21.1302 56.2018 19.2421 56.2018 16.2933C56.2018 13.2966 54.127 11.5154 49.9879 11.5154C45.9092 11.5154 43.7622 13.4498 43.7622 16.2933C43.7622 19.5022 46.0144 21.1302 49.9879 21.1302Z" fill="white"/>
<path d="M67.1367 20.9536V11.6924H69.414V20.9536H67.1367Z" fill="white"/>
<path d="M81.1084 17.084C80.5312 17.839 79.5378 18.184 78.1377 18.1926C77.8424 18.1926 73.9278 18.1808 73.9278 18.1808V20.9536H71.6992V11.6924H78.1385C78.6546 11.6378 79.1766 11.6925 79.6698 11.8531C80.1637 12.0137 80.6176 12.2764 81.0032 12.6242C81.512 13.2875 81.7594 14.1146 81.6989 14.9484C81.7508 15.7068 81.5427 16.4602 81.1084 17.084ZM79.2811 14.0645C79.0455 13.7109 78.5374 13.5145 77.6775 13.5145H73.9161V16.3336H77.6532C78.5727 16.3336 79.0573 16.145 79.2811 15.7789C79.4138 15.5209 79.4711 15.2305 79.446 14.9413C79.4656 14.6398 79.4091 14.3381 79.2811 14.0645Z" fill="white"/>
<path d="M88.266 21.0949C84.0679 21.0949 82.7832 19.5234 82.7832 17.9685H85.1649C85.1649 18.7354 86.2141 19.3136 88.372 19.3136C90.5174 19.3136 91.0836 18.9357 91.0836 18.3221C91.0836 17.6377 90.6595 17.4256 88.6665 17.2016C88.2739 17.1663 87.2051 17.0366 86.8038 16.9777C83.9768 16.6587 82.8884 15.8211 82.8884 14.3228C82.8884 12.7419 84.481 11.5508 87.9354 11.5508C91.6851 11.5508 93.1237 13.0256 93.1237 14.5593H90.7679C90.7679 13.7806 89.8837 13.332 87.7964 13.332C85.6502 13.332 85.1909 13.6266 85.1909 14.2049C85.1909 14.8068 85.662 14.9954 87.9393 15.2664C88.4584 15.3379 89.6135 15.4676 89.9316 15.5021C92.3377 15.7496 93.4221 16.6226 93.4221 18.1681C93.4182 20.009 91.7675 21.0949 88.266 21.0949Z" fill="white"/>
<path d="M100.128 21.0832C97.0517 21.0832 95.0469 19.8677 95.0469 17.3118V11.6924H97.2983V17.3432C97.2983 18.5116 98.2539 19.2895 100.223 19.2895C102.003 19.2895 103.065 18.5587 103.065 17.3432V11.6924H105.293V17.5216C105.293 19.845 103.43 21.0832 100.128 21.0832Z" fill="white"/>
<path d="M117.497 20.9536V14.7716L114.608 20.9536H112.415L109.609 14.7716V20.9536H107.488V11.6924H110.361L113.544 18.7473L116.799 11.6924H119.626V20.9536H117.497Z" fill="white"/>
</g>
</svg>
