<svg width="119" height="45" viewBox="0 0 119 45" fill="none" xmlns="http://www.w3.org/2000/svg">
<g opacity="0.5">
<path d="M24.5488 22.8195C24.5488 21.1766 25.5262 20.0322 27.0198 20.0322C28.5135 20.0322 29.4907 21.1766 29.4907 22.8195C29.4907 24.4439 28.5135 25.6067 27.0198 25.6067C25.5262 25.6067 24.5488 24.4439 24.5488 22.8195Z" fill="white"/>
<path d="M37.1815 19.9585C35.7616 19.9585 34.8027 21.066 34.8027 22.5796C34.8027 24.1117 35.78 25.2561 37.1815 25.2561C38.7304 25.2561 39.7631 24.0932 39.7631 22.5796C39.7631 21.0844 38.7304 19.9585 37.1815 19.9585Z" fill="white"/>
<path d="M45.4121 22.8195C45.4121 21.1766 46.3895 20.0322 47.8831 20.0322C49.3768 20.0322 50.354 21.1766 50.354 22.8195C50.354 24.4439 49.3768 25.6067 47.8831 25.6067C46.3895 25.6067 45.4121 24.4439 45.4121 22.8195Z" fill="white"/>
<path d="M60.4395 22.838C60.4395 21.1952 61.4352 20.0508 63.0026 20.0508C64.57 20.0508 65.5104 21.2137 65.5104 22.838C65.5104 24.4624 64.57 25.6068 63.0026 25.6068C61.4352 25.6068 60.4395 24.4808 60.4395 22.838Z" fill="white"/>
<path fill-rule="evenodd" clip-rule="evenodd" d="M59.5003 42.1306C90.8316 42.1306 116.231 33.2091 116.231 22.2039C116.231 11.1988 90.8316 2.27734 59.5003 2.27734C28.1688 2.27734 2.76953 11.1988 2.76953 22.2039C2.76953 33.2091 28.1688 42.1306 59.5003 42.1306ZM20.9038 27.3972V13.664H18.6541V27.3972H20.9038ZM22.2807 22.8194C22.2807 25.6251 24.1617 27.6187 27.0199 27.6187C29.878 27.6187 31.7589 25.6251 31.7589 22.8194C31.7589 20.0137 29.878 18.0202 27.0199 18.0202C24.1617 18.0202 22.2807 20.0137 22.2807 22.8194ZM36.7936 27.2126C34.2304 27.2126 32.5155 25.2929 32.5155 22.6348C32.5155 19.9584 34.2673 17.9833 36.8673 17.9833C38.2135 17.9833 39.3568 18.5555 39.9099 19.5154L40.039 18.2786H42.0306V26.9357C42.0306 29.9445 40.1497 31.8826 37.1993 31.8826C34.6914 31.8826 32.8659 30.3321 32.5709 27.9509H34.839C34.968 29.1508 35.927 29.8337 37.3283 29.8337C38.8958 29.8337 39.8362 28.8369 39.8362 27.3418V25.7913C39.2646 26.6773 38.1213 27.2126 36.7936 27.2126ZM43.1438 22.8194C43.1438 25.6251 45.0248 27.6187 47.883 27.6187C50.7412 27.6187 52.622 25.6251 52.622 22.8194C52.622 20.0137 50.7412 18.0202 47.883 18.0202C45.0248 18.0202 43.1438 20.0137 43.1438 22.8194ZM56.4028 15.0669C56.4028 15.8237 55.7943 16.4143 55.0567 16.4143C54.3007 16.4143 53.729 15.8237 53.729 15.0669C53.729 14.3285 54.3007 13.7378 55.0567 13.7378C55.7943 13.7378 56.4028 14.3285 56.4028 15.0669ZM56.1815 18.2786V27.3972H53.9319V18.2786H56.1815ZM58.1524 31.6242H60.3468V26.142C60.9184 27.0834 62.1539 27.6371 63.5185 27.6371C66.2107 27.6371 67.815 25.5698 67.7781 22.7271C67.7228 19.8661 66.0816 18.0017 63.5 18.0017C62.1171 18.0017 60.8631 18.6109 60.3099 19.663L60.1808 18.2786H58.1524V31.6242ZM72.0004 27.6371C69.8245 27.6371 68.4231 26.4742 68.3493 24.6653H70.3962C70.3962 25.459 70.9678 25.9205 71.9635 25.9205C72.7934 25.9205 73.4757 25.5883 73.4757 24.8683C73.4757 24.3515 73.1068 24.0746 72.5167 23.9085L70.931 23.5024C69.1791 23.0409 68.4968 22.0626 68.4968 20.8813C68.4968 19.1462 69.9536 18.0017 71.9082 18.0017C73.8813 18.0017 75.2274 19.1462 75.3012 20.9552H73.2544C73.2544 20.1614 72.7011 19.6815 71.8529 19.6815C71.0416 19.6815 70.5437 20.1245 70.5437 20.7521C70.5437 21.3428 71.0047 21.5827 71.6869 21.7673L73.2913 22.1549C74.7849 22.5241 75.5962 23.4101 75.5962 24.7207C75.5962 26.4927 74.1395 27.6371 72.0004 27.6371ZM80.2628 27.6371C81.4978 27.6371 82.6778 27.0649 83.2128 26.2158L83.3607 27.3972H85.4627V18.2786H83.2128V23.0594C83.2128 24.7022 82.5858 25.6251 81.1108 25.6251C79.9678 25.6251 79.1748 25.0714 79.1748 23.1887V18.2786H76.9249V23.9823C76.9249 26.1605 78.105 27.6371 80.2628 27.6371ZM89.6981 22.1549V27.3972H87.4482V18.2786H89.5132L89.6241 19.3123C90.159 18.5001 91.118 18.0017 92.1871 18.0017C93.6991 18.0017 94.695 18.6662 95.1929 19.7368C95.6358 18.6662 96.7238 18.0017 98.1067 18.0017C100.32 18.0017 101.481 19.3308 101.481 21.4351V27.3972H99.3048V21.9519C99.3048 20.6598 98.6047 19.9768 97.5167 19.9768C96.4469 19.9768 95.5989 20.6783 95.5989 22.1734V27.3972H93.4041V21.9519C93.4041 20.6598 92.7039 19.9768 91.634 19.9768C90.565 19.9768 89.6981 20.6783 89.6981 22.1549Z" fill="white"/>
</g>
</svg>
