<svg width="134" height="33" viewBox="0 0 134 33" fill="none" xmlns="http://www.w3.org/2000/svg">
<g opacity="0.5">
<path d="M40.8789 22.6476H50.2999V19.7501H44.2273V8.83594H40.8789V22.6476Z" fill="white"/>
<path d="M55.8813 20.7159C54.5382 20.7159 53.8382 19.5182 53.8382 17.7217C53.8382 15.9253 54.5382 14.7083 55.8813 14.7083C57.2245 14.7083 57.9433 15.9253 57.9433 17.7217C57.9433 19.5182 57.2245 20.7159 55.8813 20.7159ZM55.9002 22.9567C59.0216 22.9567 61.0647 20.6966 61.0647 17.7217C61.0647 14.7469 59.0216 12.4868 55.9002 12.4868C52.7977 12.4868 50.7168 14.7469 50.7168 17.7217C50.7168 20.6966 52.7977 22.9567 55.9002 22.9567Z" fill="white"/>
<path d="M66.4668 26.067C67.9045 26.067 69.172 25.7386 70.0233 24.9659C70.7989 24.2512 71.3097 23.1694 71.3097 21.682V12.7575H68.3586V13.82H68.3207C67.7532 12.9893 66.883 12.4678 65.5966 12.4678C63.1941 12.4678 61.5293 14.5154 61.5293 17.4129C61.5293 20.4457 63.5535 22.107 65.729 22.107C66.9019 22.107 67.6397 21.6241 68.2072 20.9673H68.2829V21.9525C68.2829 23.1501 67.7343 23.8455 66.429 23.8455C65.4074 23.8455 64.8966 23.4012 64.7264 22.8797H61.7374C62.0401 24.9466 63.7994 26.067 66.4668 26.067ZM66.4479 19.7696C65.2939 19.7696 64.5372 18.8038 64.5372 17.3164C64.5372 15.8096 65.2939 14.8438 66.4479 14.8438C67.7343 14.8438 68.4153 15.9642 68.4153 17.297C68.4153 18.6879 67.791 19.7696 66.4479 19.7696Z" fill="white"/>
<path d="M77.3774 20.7159C76.0343 20.7159 75.3343 19.5182 75.3343 17.7217C75.3343 15.9253 76.0343 14.7083 77.3774 14.7083C78.7206 14.7083 79.4394 15.9253 79.4394 17.7217C79.4394 19.5182 78.7206 20.7159 77.3774 20.7159ZM77.3963 22.9567C80.5177 22.9567 82.5608 20.6966 82.5608 17.7217C82.5608 14.7469 80.5177 12.4868 77.3963 12.4868C74.2938 12.4868 72.2129 14.7469 72.2129 17.7217C72.2129 20.6966 74.2938 22.9567 77.3963 22.9567Z" fill="white"/>
<path d="M83.4609 22.6476H86.5445V12.7573H83.4609V22.6476ZM83.4609 11.3858H86.5445V8.83594H83.4609V11.3858Z" fill="white"/>
<path d="M87.8828 25.9125H90.9664V21.6241H91.0042C91.6096 22.4547 92.4987 22.9569 93.7473 22.9569C96.2822 22.9569 97.9659 20.9093 97.9659 17.7027C97.9659 14.7279 96.3958 12.4678 93.823 12.4678C92.4987 12.4678 91.5528 13.0666 90.8907 13.9552H90.834V12.7575H87.8828V25.9125ZM92.9527 20.523C91.6285 20.523 90.8718 19.4219 90.8718 17.8186C90.8718 16.2153 91.5528 14.9983 92.896 14.9983C94.2202 14.9983 94.8445 16.1187 94.8445 17.8186C94.8445 19.4992 94.1256 20.523 92.9527 20.523Z" fill="white"/>
<path d="M102.988 22.9569C105.523 22.9569 107.396 21.8366 107.396 19.673C107.396 17.1425 105.39 16.6982 103.688 16.4085C102.458 16.1767 101.361 16.0801 101.361 15.3847C101.361 14.7665 101.947 14.4767 102.704 14.4767C103.555 14.4767 104.142 14.7472 104.255 15.6358H107.093C106.942 13.6847 105.466 12.4678 102.723 12.4678C100.434 12.4678 98.5422 13.5495 98.5422 15.6358C98.5422 17.9538 100.339 18.4174 102.023 18.7072C103.309 18.939 104.482 19.0356 104.482 19.9242C104.482 20.5616 103.896 20.9093 102.969 20.9093C101.947 20.9093 101.304 20.4264 101.191 19.4412H98.2773C98.3719 21.6241 100.15 22.9569 102.988 22.9569Z" fill="white"/>
<path d="M111.583 22.9374C112.926 22.9374 113.777 22.3965 114.477 21.4307H114.534V22.6477H117.485V12.7573H114.402V18.282C114.402 19.4603 113.758 20.2717 112.699 20.2717C111.715 20.2717 111.242 19.6728 111.242 18.5911V12.7573H108.178V19.2479C108.178 21.45 109.351 22.9374 111.583 22.9374Z" fill="white"/>
<path d="M118.826 22.6479H121.91V17.1039C121.91 15.9255 122.477 15.0949 123.442 15.0949C124.369 15.0949 124.804 15.713 124.804 16.7755V22.6479H127.888V17.1039C127.888 15.9255 128.436 15.0949 129.42 15.0949C130.347 15.0949 130.782 15.713 130.782 16.7755V22.6479H133.866V16.2153C133.866 13.9938 132.768 12.4678 130.574 12.4678C129.325 12.4678 128.285 13.0087 127.528 14.2063H127.49C126.999 13.1439 126.034 12.4678 124.766 12.4678C123.366 12.4678 122.439 13.1439 121.834 14.1677H121.777V12.7575H118.826V22.6479Z" fill="white"/>
<path fill-rule="evenodd" clip-rule="evenodd" d="M16.3038 32.3064C25.0104 32.3064 32.0685 25.0993 32.0685 16.2089C32.0685 7.31845 25.0104 0.111328 16.3038 0.111328C7.59715 0.111328 0.539062 7.31845 0.539062 16.2089C0.539062 25.0993 7.59715 32.3064 16.3038 32.3064ZM21.2218 7.61025C21.4612 6.74195 20.636 6.2285 19.8824 6.77676L9.36187 14.4298C8.54455 15.0243 8.67311 16.2089 9.55499 16.2089H12.3253V16.187H17.7246L13.3252 17.772L11.3857 24.8075C11.1464 25.6758 11.9715 26.1893 12.7252 25.641L23.2457 17.988C24.063 17.3935 23.9344 16.2089 23.0526 16.2089H18.8514L21.2218 7.61025Z" fill="white"/>
</g>
</svg>
