<svg width="126" height="23" viewBox="0 0 126 23" fill="none" xmlns="http://www.w3.org/2000/svg">
<g opacity="0.5">
<path d="M30.3711 0.977051H33.5169V17.682H38.6932V20.4662H30.3711V0.977051Z" fill="white"/>
<path d="M44.6372 20.7447C43.0929 20.7447 41.9109 20.3178 41.091 19.464C40.2712 18.6101 39.8613 17.4037 39.8613 15.8445V5.59886C39.8613 4.03973 40.2712 2.83325 41.091 1.97945C41.9109 1.12563 43.0929 0.69873 44.6372 0.69873C46.1815 0.69873 47.3635 1.12563 48.1834 1.97945C49.0032 2.83325 49.4131 4.03973 49.4131 5.59886V15.8445C49.4131 17.4037 49.0032 18.6101 48.1834 19.464C47.3635 20.3178 46.1815 20.7447 44.6372 20.7447ZM44.6372 17.9605C45.724 17.9605 46.2673 17.3201 46.2673 16.0394V5.40396C46.2673 4.12325 45.724 3.48289 44.6372 3.48289C43.5504 3.48289 43.0071 4.12325 43.0071 5.40396V16.0394C43.0071 17.3201 43.5504 17.9605 44.6372 17.9605Z" fill="white"/>
<path d="M56.0007 20.7447C54.4754 20.7447 53.3125 20.3271 52.5116 19.4918C51.7109 18.638 51.3105 17.4223 51.3105 15.8445V5.59886C51.3105 4.02117 51.7109 2.81469 52.5116 1.97945C53.3125 1.12563 54.4754 0.69873 56.0007 0.69873C57.5259 0.69873 58.6889 1.12563 59.4896 1.97945C60.2904 2.81469 60.6908 4.02117 60.6908 5.59886V7.26935H57.7165V5.40396C57.7165 4.12325 57.1732 3.48289 56.0864 3.48289C54.9997 3.48289 54.4564 4.12325 54.4564 5.40396V16.0673C54.4564 17.3295 54.9997 17.9605 56.0864 17.9605C57.1732 17.9605 57.7165 17.3295 57.7165 16.0673V12.253H56.1437V9.46886H60.6908V15.8445C60.6908 17.4223 60.2904 18.638 59.4896 19.4918C58.6889 20.3271 57.5259 20.7447 56.0007 20.7447Z" fill="white"/>
<path d="M67.2583 20.7447C65.714 20.7447 64.532 20.3178 63.7122 19.464C62.8923 18.6101 62.4824 17.4037 62.4824 15.8445V5.59886C62.4824 4.03973 62.8923 2.83325 63.7122 1.97945C64.532 1.12563 65.714 0.69873 67.2583 0.69873C68.8027 0.69873 69.9847 1.12563 70.8045 1.97945C71.6244 2.83325 72.0342 4.03973 72.0342 5.59886V15.8445C72.0342 17.4037 71.6244 18.6101 70.8045 19.464C69.9847 20.3178 68.8027 20.7447 67.2583 20.7447ZM67.2583 17.9605C68.345 17.9605 68.8884 17.3201 68.8884 16.0394V5.40396C68.8884 4.12325 68.345 3.48289 67.2583 3.48289C66.1716 3.48289 65.6282 4.12325 65.6282 5.40396V16.0394C65.6282 17.3201 66.1716 17.9605 67.2583 17.9605Z" fill="white"/>
<path d="M74.168 0.977051H77.3138V20.4662H74.168V0.977051Z" fill="white"/>
<path d="M79.6699 0.977051H84.3028C85.866 0.977051 87.0386 1.38539 87.8205 2.20208C88.6025 3.01877 88.9931 4.21596 88.9931 5.79365V7.71471C88.9931 9.29243 88.6025 10.4896 87.8205 11.3063C87.0386 12.123 85.866 12.5313 84.3028 12.5313H82.816V20.4662H79.6699V0.977051ZM84.3028 9.74714C84.8178 9.74714 85.199 9.60792 85.447 9.32954C85.714 9.05109 85.8471 8.57782 85.8471 7.9096V5.59876C85.8471 4.93056 85.714 4.45725 85.447 4.17883C85.199 3.90042 84.8178 3.76122 84.3028 3.76122H82.816V9.74714H84.3028Z" fill="white"/>
<path d="M94.9024 20.7447C93.3778 20.7447 92.2241 20.3271 91.4421 19.4918C90.6609 18.638 90.2695 17.4223 90.2695 15.8445V14.7309H93.2439V16.0673C93.2439 17.3295 93.7873 17.9605 94.874 17.9605C95.408 17.9605 95.808 17.812 96.075 17.5151C96.3608 17.1995 96.5042 16.6984 96.5042 16.0116C96.5042 15.1949 96.3136 14.4803 95.9324 13.8678C95.5513 13.2367 94.8457 12.485 93.8156 11.6126C92.5194 10.499 91.6138 9.49669 91.0988 8.60575C90.5845 7.69625 90.327 6.6754 90.327 5.54318C90.327 4.0026 90.7271 2.81469 91.528 1.97945C92.3288 1.12563 93.492 0.69873 95.0174 0.69873C96.5231 0.69873 97.6579 1.12563 98.4202 1.97945C99.2021 2.81469 99.5927 4.02117 99.5927 5.59886V6.40627H96.6184V5.40396C96.6184 4.73577 96.4853 4.25317 96.2183 3.9562C95.9513 3.64066 95.5607 3.48289 95.0457 3.48289C93.9968 3.48289 93.4731 4.10469 93.4731 5.34828C93.4731 6.0536 93.6637 6.71252 94.0448 7.32503C94.4449 7.93752 95.1599 8.67996 96.19 9.55235C97.5051 10.666 98.4107 11.6776 98.9068 12.5871C99.4022 13.4966 99.6502 14.5638 99.6502 15.7889C99.6502 17.3852 99.2399 18.6101 98.4202 19.464C97.6193 20.3178 96.4467 20.7447 94.9024 20.7447Z" fill="white"/>
<path d="M106.028 20.7446C104.503 20.7446 103.34 20.327 102.539 19.4917C101.738 18.6379 101.338 17.4222 101.338 15.8444V0.977051H104.484V16.0672C104.484 16.7354 104.617 17.218 104.884 17.515C105.17 17.8119 105.571 17.9604 106.085 17.9604C106.6 17.9604 106.991 17.8119 107.258 17.515C107.543 17.218 107.687 16.7354 107.687 16.0672V0.977051H110.718V15.8444C110.718 17.4222 110.318 18.6379 109.517 19.4917C108.716 20.327 107.553 20.7446 106.028 20.7446Z" fill="white"/>
<path d="M112.959 0.977051H117.449L119.451 14.9257H119.508L121.51 0.977051H126V20.4662H123.026V5.71013H122.969L120.68 20.4662H118.049L115.762 5.71013H115.705V20.4662H112.959V0.977051Z" fill="white"/>
<path d="M0 20.4665C3.87015 20.4665 7.0075 17.4121 7.0075 13.6444C7.0075 9.87663 3.87015 6.82227 0 6.82227V11.5977C1.16103 11.5977 2.10224 12.514 2.10224 13.6444C2.10224 14.7747 1.16103 15.691 0 15.691V20.4665Z" fill="white"/>
<path d="M23.3586 9.09639C22.1612 8.72709 20.886 8.52783 19.5629 8.52783C12.6289 8.52783 7.00781 14.0003 7.00781 20.7508C7.00781 21.4284 7.06445 22.0931 7.17333 22.7406H14.9742C14.6957 22.1328 14.5409 21.4594 14.5409 20.7508C14.5409 18.0506 16.7893 15.8616 19.5629 15.8616C21.0788 15.8616 22.4378 16.5155 23.3586 17.5494V9.09639Z" fill="white"/>
<path d="M1.23242 0C1.81339 5.11653 6.26911 9.09619 11.6795 9.09619C17.0899 9.09619 21.5457 5.11653 22.1266 0H14.6095C14.1454 1.1326 13.0085 1.93293 11.6795 1.93293C10.3506 1.93293 9.21365 1.1326 8.7495 0H1.23242Z" fill="white"/>
</g>
</svg>
