<svg width="128" height="142" viewBox="0 0 128 142" fill="none" xmlns="http://www.w3.org/2000/svg">
<path fill-rule="evenodd" clip-rule="evenodd" d="M92.2315 59.8317L84.2902 30.4158C79.9044 14.1699 62.7535 1 45.9826 1C39.1597 1 33.4509 3.17974 29.3742 6.85956C28.8411 7.34075 28.3359 7.84758 27.8598 8.37855C23.0272 13.768 21.1893 21.6435 23.5575 30.4158L31.4988 59.8317H15.8818L34.0333 127.068H126L107.849 59.8317H92.2315ZM78.3498 59.8317H60.7068H45.3805L37.4393 30.4158C37.2575 29.7424 37.1213 29.0787 37.029 28.4271C35.9121 20.5464 41.2039 14.4472 49.6129 14.4472C58.7171 14.4472 68.0276 21.5966 70.4085 30.4158L78.3498 59.8317ZM66.7323 97.1432C63.1495 95.3995 60.1759 92.1399 59.1682 88.4071C57.6645 82.837 61.1072 78.3216 66.8568 78.3216C72.6064 78.3216 78.4871 82.837 79.9909 88.4071C80.9986 92.1399 79.785 95.3995 77.1436 97.1432L80.4575 109.418H70.0462L68.9518 105.365L66.7323 97.1432Z" fill="url(#paint0_linear_534_828)"/>
<path d="M49.6129 14.4472C58.7171 14.4472 68.0276 21.5966 70.4085 30.4158L78.3498 59.8317H60.7068L56.5267 44.3479C54.2589 35.9476 45.7041 29.0622 37.029 28.4271C35.9121 20.5464 41.2039 14.4472 49.6129 14.4472Z" fill="white"/>
<path d="M23.5575 30.4158L31.4988 59.8317H15.8818L14.2877 61.4315L9.67572 44.3479C7.29525 35.5303 9.16453 27.6187 14.0532 22.2273L27.8598 8.37855C23.0272 13.768 21.1893 21.6435 23.5575 30.4158Z" fill="white"/>
<path d="M20.1515 141L2.00001 73.7638L14.2877 61.4315L15.8818 59.8317L34.0333 127.068L20.1515 141Z" fill="white"/>
<path d="M112.118 141H20.1515L34.0333 127.068H126L112.118 141Z" fill="white"/>
<path d="M59.1682 88.4071C60.1759 92.1399 63.1495 95.3995 66.7323 97.1432L68.9518 105.365L70.0462 109.418H80.4575L77.1436 97.1432C79.785 95.3995 80.9986 92.1399 79.9909 88.4071C78.4871 82.837 72.6064 78.3216 66.8568 78.3216C61.1072 78.3216 57.6645 82.837 59.1682 88.4071Z" fill="white"/>
<path d="M9.67572 44.3479L10.6412 44.0873L9.67572 44.3479ZM2.00001 73.7638L1.03457 74.0244L0.884079 73.467L1.29162 73.058L2.00001 73.7638ZM20.1515 141V142H19.3857L19.1861 141.261L20.1515 141ZM112.118 141L112.827 141.706L112.534 142H112.118V141ZM56.5267 44.3479L57.4921 44.0873L56.5267 44.3479ZM84.2902 30.4158L85.2557 30.1552L84.2902 30.4158ZM92.2315 59.8317V60.8317H91.4657L91.2661 60.0923L92.2315 59.8317ZM23.5575 30.4158L24.5229 30.1552L23.5575 30.4158ZM31.4988 59.8317L32.4642 59.5711L32.8045 60.8317H31.4988V59.8317ZM15.8818 59.8317L15.1734 59.1259L15.4665 58.8317H15.8818V59.8317ZM126 127.068L126.965 126.807L127.116 127.365L126.708 127.774L126 127.068ZM107.849 59.8317V58.8317H108.614L108.814 59.5711L107.849 59.8317ZM45.3805 59.8317V60.8317H44.6147L44.4151 60.0923L45.3805 59.8317ZM78.3498 59.8317L79.3152 59.5711L79.6555 60.8317H78.3498V59.8317ZM37.4393 30.4158L38.4047 30.1552L37.4393 30.4158ZM70.4085 30.4158L69.443 30.6765L70.4085 30.4158ZM59.1682 88.4071L58.2028 88.6677L59.1682 88.4071ZM66.7323 97.1432L67.1699 96.244L67.5791 96.4432L67.6978 96.8826L66.7323 97.1432ZM79.9909 88.4071L79.0254 88.6677L79.9909 88.4071ZM77.1436 97.1432L76.1782 97.4038L75.99 96.7066L76.5927 96.3087L77.1436 97.1432ZM80.4575 109.418L81.423 109.158L81.7633 110.418H80.4575V109.418ZM70.0462 109.418V110.418H69.2804L69.0808 109.679L70.0462 109.418ZM14.0532 22.2273L13.3124 21.5556L13.3283 21.5381L13.345 21.5213L14.0532 22.2273ZM29.3742 6.85956L28.7041 6.11725L29.3742 6.85956ZM68.9518 105.365L69.9173 105.104L68.9518 105.365ZM19.1861 141.261L1.03457 74.0244L2.96544 73.5032L21.1169 140.739L19.1861 141.261ZM112.118 142H20.1515V140H112.118V142ZM85.2557 30.1552L93.197 59.5711L91.2661 60.0923L83.3248 30.6765L85.2557 30.1552ZM45.9826 0C63.2076 0 80.7526 13.4751 85.2557 30.1552L83.3248 30.6765C79.0562 14.8648 62.2994 2 45.9826 2V0ZM30.5333 60.0923L22.5921 30.6765L24.5229 30.1552L32.4642 59.5711L30.5333 60.0923ZM33.0678 127.329L14.9163 60.0923L16.8472 59.5711L34.9987 126.807L33.0678 127.329ZM126 128.068H34.0333V126.068H126V128.068ZM108.814 59.5711L126.965 126.807L125.035 127.329L106.883 60.0923L108.814 59.5711ZM92.2315 58.8317H107.849V60.8317H92.2315V58.8317ZM38.4047 30.1552L46.346 59.5711L44.4151 60.0923L36.4738 30.6765L38.4047 30.1552ZM69.443 30.6765C67.1794 22.2915 58.263 15.4472 49.6129 15.4472V13.4472C59.1712 13.4472 68.8758 20.9018 71.3739 30.1552L69.443 30.6765ZM77.3843 60.0923L69.443 30.6765L71.3739 30.1552L79.3152 59.5711L77.3843 60.0923ZM60.1336 88.1464C61.0549 91.5591 63.8063 94.607 67.1699 96.244L66.2947 98.0424C62.4928 96.192 59.2969 92.7207 58.2028 88.6677L60.1336 88.1464ZM66.8568 79.3216C64.2511 79.3216 62.2655 80.3371 61.0878 81.8819C59.9096 83.4272 59.4513 85.6188 60.1336 88.1464L58.2028 88.6677C57.3814 85.6253 57.8925 82.7742 59.4973 80.6693C61.1024 78.5639 63.7128 77.3216 66.8568 77.3216V79.3216ZM79.0254 88.6677C77.6389 83.5319 72.1524 79.3216 66.8568 79.3216V77.3216C73.0605 77.3216 79.3354 82.1422 80.9563 88.1464L79.0254 88.6677ZM76.5927 96.3087C78.8268 94.8338 79.9363 92.0418 79.0254 88.6677L80.9563 88.1464C82.0609 92.2379 80.7431 95.9652 77.6946 97.9777L76.5927 96.3087ZM79.4921 109.679L76.1782 97.4038L78.1091 96.8826L81.423 109.158L79.4921 109.679ZM70.0462 108.418H80.4575V110.418H70.0462V108.418ZM1.29162 73.058L13.5793 60.7257L14.9961 62.1374L2.70839 74.4696L1.29162 73.058ZM13.5793 60.7257L15.1734 59.1259L16.5902 60.5375L14.9961 62.1374L13.5793 60.7257ZM13.3223 61.6922L8.71028 44.6086L10.6412 44.0873L15.2531 61.1709L13.3223 61.6922ZM34.7417 127.774L20.8599 141.706L19.4431 140.294L33.3249 126.362L34.7417 127.774ZM126.708 127.774L112.827 141.706L111.41 140.294L125.292 126.362L126.708 127.774ZM45.3805 58.8317H60.7068V60.8317H45.3805V58.8317ZM60.7068 58.8317H78.3498V60.8317H60.7068V58.8317ZM59.7413 60.0923L55.5613 44.6086L57.4921 44.0873L61.6722 59.5711L59.7413 60.0923ZM8.71028 44.6086C6.25382 35.5094 8.16391 27.2335 13.3124 21.5556L14.794 22.899C10.1651 28.0039 8.33667 35.5511 10.6412 44.0873L8.71028 44.6086ZM28.7041 6.11725C32.9866 2.25166 38.9436 0 45.9826 0V2C39.3759 2 33.9151 4.10782 30.0442 7.60188L28.7041 6.11725ZM49.6129 15.4472C45.6555 15.4472 42.5163 16.8771 40.4956 19.1469C38.4761 21.4154 37.4976 24.6074 38.0191 28.2868L36.0389 28.5674C35.4434 24.3661 36.5525 20.5683 39.0018 17.817C41.4501 15.0669 45.1613 13.4472 49.6129 13.4472V15.4472ZM38.0191 28.2868C38.1055 28.8965 38.2332 29.5201 38.4047 30.1552L36.4738 30.6765C36.2817 29.9647 36.1371 29.2608 36.0389 28.5674L38.0191 28.2868ZM55.5613 44.6086C53.4074 36.6302 45.2196 30.0294 36.956 29.4245L37.102 27.4298C46.1886 28.095 55.1104 35.265 57.4921 44.0873L55.5613 44.6086ZM15.8818 58.8317H31.4988V60.8317H15.8818V58.8317ZM13.345 21.5213L27.1516 7.67252L28.568 9.08458L14.7613 22.9334L13.345 21.5213ZM28.6043 9.04615C24.0284 14.1493 22.2302 21.6627 24.5229 30.1552L22.5921 30.6765C20.1483 21.6242 22.026 13.3867 27.1153 7.71095L28.6043 9.04615ZM27.1516 7.67252L28.666 6.15353L30.0824 7.56559L28.568 9.08458L27.1516 7.67252ZM27.1153 7.71095C27.615 7.15369 28.145 6.62192 28.7041 6.11725L30.0442 7.60188C29.5372 8.05957 29.0569 8.54148 28.6043 9.04615L27.1153 7.71095ZM67.6978 96.8826L69.9173 105.104L67.9864 105.625L65.7669 97.4038L67.6978 96.8826ZM69.9173 105.104L71.0116 109.158L69.0808 109.679L67.9864 105.625L69.9173 105.104Z" fill="#0F2830"/>
<defs>
<linearGradient id="paint0_linear_534_828" x1="5.83956" y1="127.068" x2="137.549" y2="13.4055" gradientUnits="userSpaceOnUse">
<stop stop-color="#2EE297"/>
<stop offset="1" stop-color="#1DC9D4"/>
</linearGradient>
</defs>
</svg>
