<svg width="127" height="141" viewBox="0 0 127 141" fill="none" xmlns="http://www.w3.org/2000/svg">
<path fill-rule="evenodd" clip-rule="evenodd" d="M91.5038 59.4115L83.6266 30.2057C79.2761 14.0759 62.2635 1 45.6279 1C38.8601 1 33.1972 3.16417 29.1534 6.81771C28.6246 7.29546 28.1235 7.79867 27.6513 8.32585C22.8576 13.6768 21.0345 21.496 23.3836 30.2057L31.2609 59.4115H15.7698L33.7749 126.167H125L106.995 59.4115H91.5038ZM77.734 59.4115H60.2333H45.0307L37.1535 30.2057C36.9731 29.5371 36.8381 28.8781 36.7465 28.2312C35.6386 20.4068 40.8877 14.3512 49.2289 14.3512C58.2597 14.3512 67.4951 21.4495 69.8568 30.2057L77.734 59.4115ZM66.2103 96.4565C62.6564 94.7252 59.7068 91.4889 58.7072 87.7827C57.2156 82.2525 60.6305 77.7693 66.3338 77.7693C72.037 77.7693 77.8703 82.2525 79.3619 87.7827C80.3615 91.4889 79.1576 94.7252 76.5376 96.4565L79.8248 108.644H69.4974L68.4119 104.619L66.2103 96.4565Z" fill="url(#paint0_linear_852_1418)"/>
<path d="M49.2289 14.3512C58.2597 14.3512 67.4951 21.4495 69.8568 30.2057L77.734 59.4115H60.2333L56.087 44.0383C53.8375 35.698 45.3516 28.8618 36.7465 28.2312C35.6386 20.4068 40.8877 14.3512 49.2289 14.3512Z" fill="white"/>
<path d="M23.3836 30.2057L31.2609 59.4115H15.7698L14.1886 60.9999L9.61382 44.0383C7.25254 35.2836 9.10674 27.4286 13.9559 22.0757L27.6513 8.32585C22.8576 13.6768 21.0345 21.496 23.3836 30.2057Z" fill="white"/>
<path d="M20.0051 140L2 73.244L14.1886 60.9999L15.7698 59.4115L33.7749 126.167L20.0051 140Z" fill="white"/>
<path d="M111.23 140H20.0051L33.7749 126.167H125L111.23 140Z" fill="white"/>
<path d="M58.7072 87.7827C59.7068 91.4889 62.6564 94.7252 66.2103 96.4565L68.4119 104.619L69.4974 108.644H79.8248L76.5376 96.4565C79.1576 94.7252 80.3615 91.4889 79.3619 87.7827C77.8703 82.2525 72.037 77.7693 66.3338 77.7693C60.6305 77.7693 57.2156 82.2525 58.7072 87.7827Z" fill="white"/>
<path d="M9.61382 44.0383L10.5793 43.7779L9.61382 44.0383ZM2 73.244L1.0345 73.5044L0.884262 72.9474L1.29128 72.5385L2 73.244ZM20.0051 140V141H19.2391L19.0396 140.26L20.0051 140ZM111.23 140L111.939 140.706L111.646 141H111.23V140ZM56.087 44.0383L57.0525 43.7779L56.087 44.0383ZM83.6266 30.2057L84.5921 29.9453L83.6266 30.2057ZM91.5038 59.4115V60.4115H90.7378L90.5383 59.6719L91.5038 59.4115ZM23.3836 30.2057L24.3491 29.9453L23.3836 30.2057ZM31.2609 59.4115L32.2264 59.1511L32.5663 60.4115H31.2609V59.4115ZM15.7698 59.4115L15.0611 58.706L15.3543 58.4115H15.7698V59.4115ZM125 126.167L125.965 125.907L126.116 126.464L125.709 126.873L125 126.167ZM106.995 59.4115V58.4115H107.761L107.96 59.1511L106.995 59.4115ZM45.0307 59.4115V60.4115H44.2647L44.0652 59.6719L45.0307 59.4115ZM77.734 59.4115L78.6995 59.1511L79.0395 60.4115H77.734V59.4115ZM37.1535 30.2057L38.119 29.9453L37.1535 30.2057ZM69.8568 30.2057L68.8913 30.4661L69.8568 30.2057ZM58.7072 87.7827L59.6727 87.5223L58.7072 87.7827ZM66.2103 96.4565L66.6482 95.5575L67.0573 95.7567L67.1758 96.196L66.2103 96.4565ZM79.3619 87.7827L80.3274 87.5223L79.3619 87.7827ZM76.5376 96.4565L75.5721 96.7169L75.3842 96.02L75.9864 95.6221L76.5376 96.4565ZM79.8248 108.644L80.7903 108.384L81.1303 109.644H79.8248V108.644ZM69.4974 108.644V109.644H68.7314L68.5319 108.904L69.4974 108.644ZM13.9559 22.0757L13.2148 21.4043L13.2307 21.3868L13.2474 21.37L13.9559 22.0757ZM29.1534 6.81771L28.483 6.0757L29.1534 6.81771ZM68.4119 104.619L69.3774 104.359L68.4119 104.619ZM19.0396 140.26L1.0345 73.5044L2.96549 72.9836L20.9706 139.74L19.0396 140.26ZM111.23 141H20.0051V139H111.23V141ZM84.5921 29.9453L92.4693 59.1511L90.5383 59.6719L82.6611 30.4661L84.5921 29.9453ZM45.6279 0C62.7183 0 80.1246 13.3817 84.5921 29.9453L82.6611 30.4661C78.4276 14.77 61.8088 2 45.6279 2V0ZM30.2954 59.6719L22.4182 30.4661L24.3491 29.9453L32.2264 59.1511L30.2954 59.6719ZM32.8094 126.428L14.8043 59.6719L16.7353 59.1511L34.7404 125.907L32.8094 126.428ZM125 127.167H33.7749V125.167H125V127.167ZM107.96 59.1511L125.965 125.907L124.035 126.428L106.029 59.6719L107.96 59.1511ZM91.5038 58.4115H106.995V60.4115H91.5038V58.4115ZM38.119 29.9453L45.9962 59.1511L44.0652 59.6719L36.188 30.4661L38.119 29.9453ZM68.8913 30.4661C66.6466 22.1437 57.805 15.3512 49.2289 15.3512V13.3512C58.7144 13.3512 68.3436 20.7553 70.8223 29.9453L68.8913 30.4661ZM76.7685 59.6719L68.8913 30.4661L70.8223 29.9453L78.6995 59.1511L76.7685 59.6719ZM59.6727 87.5223C60.586 90.9085 63.3136 93.933 66.6482 95.5575L65.7723 97.3555C61.9992 95.5174 58.8276 92.0692 57.7417 88.0432L59.6727 87.5223ZM66.3338 78.7693C63.7516 78.7693 61.7846 79.7764 60.6179 81.3081C59.4508 82.8405 58.9962 85.0143 59.6727 87.5223L57.7417 88.0432C56.9265 85.0209 57.4336 82.1881 59.0269 80.0963C60.6206 78.0038 63.2126 76.7693 66.3338 76.7693V78.7693ZM78.3964 88.0432C77.0218 82.9467 71.5823 78.7693 66.3338 78.7693V76.7693C72.4917 76.7693 78.7188 81.5583 80.3274 87.5223L78.3964 88.0432ZM75.9864 95.6221C78.1992 94.1599 79.2994 91.3911 78.3964 88.0432L80.3274 87.5223C81.4236 91.5866 80.1161 95.2905 77.0889 97.2908L75.9864 95.6221ZM78.8593 108.904L75.5721 96.7169L77.5031 96.1961L80.7903 108.384L78.8593 108.904ZM69.4974 107.644H79.8248V109.644H69.4974V107.644ZM1.29128 72.5385L13.4799 60.2944L14.8973 61.7054L2.70871 73.9495L1.29128 72.5385ZM13.4799 60.2944L15.0611 58.706L16.4785 60.117L14.8973 61.7054L13.4799 60.2944ZM13.2231 61.2603L8.64832 44.2987L10.5793 43.7779L15.1541 60.7395L13.2231 61.2603ZM34.4836 126.873L20.7138 140.706L19.2964 139.295L33.0662 125.462L34.4836 126.873ZM125.709 126.873L111.939 140.706L110.521 139.295L124.291 125.462L125.709 126.873ZM45.0307 58.4115H60.2333V60.4115H45.0307V58.4115ZM60.2333 58.4115H77.734V60.4115H60.2333V58.4115ZM59.2678 59.6719L55.1215 44.2987L57.0525 43.7779L61.1988 59.1511L59.2678 59.6719ZM8.64832 44.2987C6.21121 35.2629 8.10605 27.0438 13.2148 21.4043L14.6971 22.7471C10.1074 27.8134 8.29387 35.3043 10.5793 43.7779L8.64832 44.2987ZM28.483 6.0757C32.7326 2.23626 38.6436 0 45.6279 0V2C39.0765 2 33.6619 4.09209 29.8238 7.55972L28.483 6.0757ZM49.2289 15.3512C45.3057 15.3512 42.1942 16.77 40.1915 19.0216C38.1898 21.2722 37.2196 24.4395 37.7366 28.091L35.7564 28.3714C35.1655 24.1986 36.2659 20.4258 38.6971 17.6925C41.1273 14.9602 44.8109 13.3512 49.2289 13.3512V15.3512ZM37.7366 28.091C37.8223 28.6962 37.949 29.315 38.119 29.9453L36.188 30.4661C35.9973 29.7592 35.8539 29.0601 35.7564 28.3714L37.7366 28.091ZM55.1215 44.2987C52.9857 36.38 44.8665 29.8289 36.6734 29.2285L36.8196 27.2339C45.8368 27.8946 54.6892 35.016 57.0525 43.7779L55.1215 44.2987ZM15.7698 58.4115H31.2609V60.4115H15.7698V58.4115ZM13.2474 21.37L26.9427 7.62015L28.3598 9.03155L14.6645 22.7814L13.2474 21.37ZM28.3961 8.9931C23.8589 14.0578 22.0754 21.5152 24.3491 29.9453L22.4182 30.4661C19.9936 21.4769 21.8563 13.2958 26.9064 7.65859L28.3961 8.9931ZM26.9427 7.62014L28.4449 6.11201L29.8619 7.52341L28.3598 9.03155L26.9427 7.62014ZM26.9064 7.65859C27.4023 7.10511 27.9282 6.57695 28.483 6.0757L29.8238 7.55972C29.321 8.01396 28.8448 8.49223 28.3961 8.9931L26.9064 7.65859ZM67.1758 96.196L69.3774 104.359L67.4464 104.88L65.2448 96.7169L67.1758 96.196ZM69.3774 104.359L70.4629 108.384L68.5319 108.904L67.4464 104.88L69.3774 104.359Z" fill="#0F2830"/>
<defs>
<linearGradient id="paint0_linear_852_1418" x1="5.8086" y1="126.167" x2="136.559" y2="13.437" gradientUnits="userSpaceOnUse">
<stop stop-color="#2EE297"/>
<stop offset="1" stop-color="#1DC9D4"/>
</linearGradient>
</defs>
</svg>
