<svg width="231" height="230" viewBox="0 0 231 230" fill="none" xmlns="http://www.w3.org/2000/svg">
<path d="M183.698 94.4946L183.693 94.487L183.689 94.4793L175.476 79.6579L172.804 80.5197L163.017 126.851L162.948 127.179L162.696 127.398L142.294 145.193L142.174 145.297L142.029 145.36L107.023 160.283L106.821 160.369L106.602 160.363L75.1773 159.453L75.028 159.449L74.8865 159.401L56.0948 153.059L62.0054 164.786C67.3778 174.065 78.927 178.83 93.5971 178.765C108.247 178.7 125.787 173.802 142.708 164.033C159.628 154.264 172.641 141.523 180.022 128.868C187.42 116.184 189.064 103.789 183.698 94.4946Z" fill="white" stroke="#0F2830" stroke-width="2"/>
<path d="M61.6771 143.877L68.3416 146.353C68.7093 127.833 81.8725 107.645 103.346 95.2473C126.763 81.7272 153.291 81.3927 169.336 93.1843L171.631 94.0369L162.905 77.8163L137.086 72.6962L108.236 75.8083L74.668 101.959L60.292 127.821L61.6771 143.877Z" fill="white" stroke="#0F2830" stroke-width="2"/>
<mask id="path-3-inside-1_514_401" fill="white">
<path fill-rule="evenodd" clip-rule="evenodd" d="M176.93 79.158C189.307 100.595 171.707 133.927 137.621 153.607C103.534 173.287 65.8681 171.862 53.4913 150.425C41.1145 128.988 58.7138 95.6559 92.8003 75.976C126.887 56.2961 164.553 57.7207 176.93 79.158ZM163.866 86.7005C172.765 102.114 158.195 127.186 131.324 142.7C104.452 158.214 75.4544 158.296 66.5554 142.883C57.6565 127.469 72.2262 102.397 99.0977 86.8832C125.969 71.3689 154.967 71.2871 163.866 86.7005Z"/>
</mask>
<path fill-rule="evenodd" clip-rule="evenodd" d="M176.93 79.158C189.307 100.595 171.707 133.927 137.621 153.607C103.534 173.287 65.8681 171.862 53.4913 150.425C41.1145 128.988 58.7138 95.6559 92.8003 75.976C126.887 56.2961 164.553 57.7207 176.93 79.158ZM163.866 86.7005C172.765 102.114 158.195 127.186 131.324 142.7C104.452 158.214 75.4544 158.296 66.5554 142.883C57.6565 127.469 72.2262 102.397 99.0977 86.8832C125.969 71.3689 154.967 71.2871 163.866 86.7005Z" fill="url(#paint0_linear_514_401)"/>
<path d="M137.621 153.607L138.621 155.339L137.621 153.607ZM92.8003 75.976L93.8003 77.708L92.8003 75.976ZM131.324 142.7L132.324 144.432L131.324 142.7ZM163.866 86.7005L165.598 85.7005L163.866 86.7005ZM66.5554 142.883L68.2875 141.883L66.5554 142.883ZM99.0977 86.8832L100.098 88.6152L99.0977 86.8832ZM136.621 151.875C153.389 142.194 166.019 129.198 172.93 116.108C179.857 102.99 180.92 90.0692 175.198 80.158L178.662 78.158C185.316 89.6841 183.768 104.148 176.468 117.975C169.152 131.83 155.939 145.341 138.621 155.339L136.621 151.875ZM55.2234 149.425C60.9456 159.336 72.6665 164.876 87.4905 165.437C102.283 165.996 119.852 161.556 136.621 151.875L138.621 155.339C121.303 165.338 102.996 170.026 87.3393 169.434C71.7144 168.843 58.4139 162.951 51.7593 151.425L55.2234 149.425ZM93.8003 77.708C77.0317 87.3894 64.4024 100.385 57.4907 113.475C50.5642 126.594 49.5011 139.514 55.2234 149.425L51.7593 151.425C45.1047 139.899 46.6528 125.435 53.9534 111.608C61.2688 97.7529 74.4824 84.2425 91.8003 74.2439L93.8003 77.708ZM175.198 80.158C169.475 70.2468 157.755 64.7073 142.931 64.1466C128.138 63.5871 110.569 68.0267 93.8003 77.708L91.8003 74.2439C109.118 64.2454 127.426 59.5573 143.082 60.1495C158.707 60.7405 172.007 66.6319 178.662 78.158L175.198 80.158ZM130.324 140.968C143.513 133.353 153.596 123.438 159.279 113.658C164.995 103.822 166.071 94.5207 162.134 87.7005L165.598 85.7005C170.559 94.2937 168.8 105.235 162.738 115.667C156.644 126.154 146.006 136.532 132.324 144.432L130.324 140.968ZM68.2875 141.883C72.2251 148.703 80.8181 152.421 92.1941 152.389C103.507 152.357 117.134 148.583 130.324 140.968L132.324 144.432C118.641 152.332 104.334 156.355 92.2054 156.389C80.14 156.423 69.7847 152.476 64.8234 143.883L68.2875 141.883ZM100.098 88.6152C86.9086 96.23 76.8257 106.145 71.1419 115.926C65.4261 125.762 64.3498 135.062 68.2875 141.883L64.8234 143.883C59.8621 135.29 61.6213 124.348 67.6835 113.916C73.7776 103.429 84.4153 93.0507 98.0978 85.1511L100.098 88.6152ZM162.134 87.7005C158.196 80.8803 149.603 77.1619 138.227 77.194C126.915 77.2259 113.287 81.0005 100.098 88.6152L98.0978 85.1511C111.78 77.2516 126.087 73.2282 138.216 73.194C150.281 73.1599 160.637 77.1073 165.598 85.7005L162.134 87.7005Z" fill="#0F2830" mask="url(#path-3-inside-1_514_401)"/>
<defs>
<linearGradient id="paint0_linear_514_401" x1="62.2507" y1="206.478" x2="10.3609" y2="105.595" gradientUnits="userSpaceOnUse">
<stop stop-color="#2EE297"/>
<stop offset="1" stop-color="#1DC9D4"/>
</linearGradient>
</defs>
</svg>
