<svg width="125" height="93" viewBox="0 0 125 93" fill="none" xmlns="http://www.w3.org/2000/svg">
<path fill-rule="evenodd" clip-rule="evenodd" d="M63.359 24.358C64.9468 30.2836 64.7192 36.268 63.0171 41.7207L122.795 85.2817C121.271 87.0399 118.089 90.7951 117.547 91.7503L95.5559 91.5677L90.5755 76.7027L79.1558 78.7502L76.7959 66.2204L61.1478 67.3759L50.0425 58.7471C47.4034 60.4368 44.4631 61.7547 41.2748 62.609C24.6136 67.0734 7.48802 57.1859 3.02368 40.5248C-1.44066 23.8636 8.44679 6.73803 25.1079 2.27369C41.7691 -2.19066 58.8947 7.69681 63.359 24.358ZM37.9692 46.2502C45.189 44.3156 49.4736 36.8945 47.539 29.6747C45.6045 22.4549 38.1834 18.1703 30.9636 20.1049C23.7437 22.0394 19.4592 29.4605 21.3937 36.6803C23.3283 43.9001 30.7494 48.1847 37.9692 46.2502Z" fill="url(#paint0_linear_515_558)" stroke="#0F2830" stroke-width="2"/>
<defs>
<linearGradient id="paint0_linear_515_558" x1="-13.8155" y1="-22.3201" x2="158.85" y2="95.2407" gradientUnits="userSpaceOnUse">
<stop stop-color="#2EE297"/>
<stop offset="1" stop-color="#1DC9D4"/>
</linearGradient>
</defs>
</svg>
