<svg width="140" height="143" viewBox="0 0 140 143" fill="none" xmlns="http://www.w3.org/2000/svg">
<path fill-rule="evenodd" clip-rule="evenodd" d="M70.0628 49.8832C71.6506 55.8088 71.423 61.7932 69.7209 67.2459L131.555 107.493C130.032 109.251 124.792 116.32 124.251 117.275L102.26 117.093L97.2793 102.228L85.8596 104.275L83.4997 91.7457L67.8516 92.9011L56.7463 84.2723C54.1072 85.962 51.1669 87.28 47.9785 88.1343C31.3174 92.5986 14.1918 82.7111 9.72746 66.05C7.50346 57.7499 8.84118 49.3346 12.8037 42.4268C16.7954 35.4682 23.1769 29.7595 23.1769 29.7595C39.838 25.2952 65.5985 33.222 70.0628 49.8832ZM44.673 71.7754C51.8928 69.8408 56.1774 62.4198 54.2428 55.1999C52.3083 47.9801 44.8872 43.6955 37.6674 45.6301C30.4475 47.5646 26.163 54.9857 28.0975 62.2055C30.032 69.4254 37.4531 73.7099 44.673 71.7754Z" fill="white" stroke="#0F2830" stroke-width="2"/>
<path fill-rule="evenodd" clip-rule="evenodd" d="M77.359 41.358C78.9468 47.2836 78.7192 53.268 77.0171 58.7207L136.795 102.282C135.271 104.04 132.089 107.795 131.547 108.75L109.556 108.568L104.575 93.7027L93.1558 95.7502L90.7959 83.2204L75.1478 84.3759L64.0425 75.7471C61.4034 77.4368 58.4631 78.7547 55.2748 79.609C38.6136 84.0734 21.488 74.1859 17.0237 57.5248C12.5593 40.8636 22.4468 23.738 39.1079 19.2737C55.7691 14.8093 72.8947 24.6968 77.359 41.358ZM51.9692 63.2502C59.189 61.3156 63.4736 53.8945 61.539 46.6747C59.6045 39.4549 52.1834 35.1703 44.9636 37.1048C37.7437 39.0394 33.4592 46.4605 35.3937 53.6803C37.3283 60.9001 44.7494 65.1847 51.9692 63.2502Z" fill="url(#paint0_linear_515_556)" stroke="#0F2830" stroke-width="2"/>
<defs>
<linearGradient id="paint0_linear_515_556" x1="0.18445" y1="-5.32009" x2="172.85" y2="112.241" gradientUnits="userSpaceOnUse">
<stop stop-color="#2EE297"/>
<stop offset="1" stop-color="#1DC9D4"/>
</linearGradient>
</defs>
</svg>
