<svg width="115" height="129" viewBox="0 0 115 129" fill="none" xmlns="http://www.w3.org/2000/svg">
<path fill-rule="evenodd" clip-rule="evenodd" d="M32.0006 54.2171L39.1733 27.7428C43.1347 13.1215 58.6259 1.26855 73.7738 1.26855C79.9364 1.26855 85.0928 3.23032 88.7749 6.54216C89.2564 6.97523 89.7127 7.43138 90.1428 7.90925C94.5077 12.7597 96.1678 19.8477 94.0287 27.7428L86.8559 54.2171H100.962L84.5667 114.73H1.5L17.8949 54.2171H32.0006ZM44.5389 54.2171H60.4745H74.3176L81.4903 27.7428C81.6546 27.1367 81.7775 26.5394 81.8609 25.953C82.8697 18.8603 78.09 13.3711 70.4948 13.3711C62.2717 13.3711 53.8622 19.8055 51.7117 27.7428L44.5389 54.2171ZM55.0321 87.7974C58.2682 86.2281 60.954 83.2944 61.8642 79.9349C63.2224 74.9219 60.1129 70.858 54.9197 70.858C49.7265 70.858 44.4148 74.9219 43.0566 79.9349C42.1464 83.2944 43.2426 86.2281 45.6283 87.7974L42.6351 98.8451H52.0389L53.0274 95.1968L55.0321 87.7974Z" fill="url(#paint0_linear_418_322)"/>
<path d="M70.4948 13.3711C62.2717 13.3711 53.8622 19.8055 51.7117 27.7428L44.5389 54.2171H60.4745L64.2501 40.2817C66.2984 32.7214 74.0253 26.5246 81.8609 25.953C82.8697 18.8603 78.09 13.3711 70.4948 13.3711Z" fill="white"/>
<path d="M94.0287 27.7428L86.8559 54.2171H100.962L102.401 55.6569L106.567 40.2817C108.717 32.3458 107.029 25.2254 102.613 20.3732L90.1428 7.90925C94.5077 12.7597 96.1678 19.8477 94.0287 27.7428Z" fill="white"/>
<path d="M97.1051 127.269L113.5 66.756L102.401 55.6569L100.962 54.2171L84.5667 114.73L97.1051 127.269Z" fill="white"/>
<path d="M14.0384 127.269H97.1051L84.5667 114.73H1.5L14.0384 127.269Z" fill="white"/>
<path d="M61.8642 79.9349C60.954 83.2944 58.2682 86.2281 55.0321 87.7974L53.0274 95.1968L52.0389 98.8451H42.6351L45.6283 87.7974C43.2426 86.2281 42.1464 83.2944 43.0566 79.9349C44.4148 74.9219 49.7265 70.858 54.9197 70.858C60.1129 70.858 63.2224 74.9219 61.8642 79.9349Z" fill="white"/>
<path d="M106.567 40.2817L105.602 40.0202L106.567 40.2817ZM113.5 66.756L114.465 67.0175L114.617 66.4584L114.207 66.0489L113.5 66.756ZM97.1051 127.269V128.269H97.8702L98.0703 127.53L97.1051 127.269ZM14.0384 127.269L13.3313 127.976L13.6241 128.269H14.0384V127.269ZM64.2501 40.2817L63.2849 40.0202L64.2501 40.2817ZM39.1733 27.7428L38.2081 27.4813L39.1733 27.7428ZM32.0006 54.2171V55.2171H32.7657L32.9658 54.4786L32.0006 54.2171ZM94.0287 27.7428L93.0635 27.4813L94.0287 27.7428ZM86.8559 54.2171L85.8907 53.9556L85.549 55.2171H86.8559V54.2171ZM100.962 54.2171L101.669 53.51L101.376 53.2171H100.962V54.2171ZM1.5 114.73L0.534798 114.468L0.383336 115.027L0.792879 115.437L1.5 114.73ZM17.8949 54.2171V53.2171H17.1298L16.9297 53.9556L17.8949 54.2171ZM74.3176 54.2171V55.2171H75.0827L75.2828 54.4786L74.3176 54.2171ZM44.5389 54.2171L43.5737 53.9556L43.2319 55.2171H44.5389V54.2171ZM81.4903 27.7428L80.5251 27.4813L81.4903 27.7428ZM51.7117 27.7428L52.6769 28.0043L51.7117 27.7428ZM61.8642 79.9349L62.8294 80.1964L61.8642 79.9349ZM55.0321 87.7974L54.5958 86.8977L54.186 87.0964L54.0669 87.5359L55.0321 87.7974ZM43.0566 79.9349L44.0218 80.1964L43.0566 79.9349ZM45.6283 87.7974L46.5935 88.0589L46.7829 87.36L46.1779 86.962L45.6283 87.7974ZM42.6351 98.8451L41.6699 98.5836L41.3281 99.8451H42.6351V98.8451ZM52.0389 98.8451V99.8451H52.804L53.0041 99.1066L52.0389 98.8451ZM102.613 20.3732L103.353 19.7001L103.337 19.6826L103.32 19.6659L102.613 20.3732ZM88.7749 6.54216L89.4437 5.79865L88.7749 6.54216ZM53.0274 95.1968L52.0622 94.9353L53.0274 95.1968ZM98.0703 127.53L114.465 67.0175L112.535 66.4945L96.1399 127.007L98.0703 127.53ZM14.0384 128.269H97.1051V126.269H14.0384V128.269ZM38.2081 27.4813L31.0354 53.9556L32.9658 54.4786L40.1385 28.0043L38.2081 27.4813ZM73.7738 0.268555C58.1743 0.268555 42.2876 12.4241 38.2081 27.4813L40.1385 28.0043C43.9819 13.8188 59.0775 2.26855 73.7738 2.26855V0.268555ZM87.8212 54.4786L94.9939 28.0043L93.0635 27.4813L85.8907 53.9556L87.8212 54.4786ZM85.5319 114.991L101.927 54.4786L99.9964 53.9556L83.6015 114.468L85.5319 114.991ZM1.5 115.73H84.5667V113.73H1.5V115.73ZM16.9297 53.9556L0.534798 114.468L2.4652 114.991L18.8601 54.4786L16.9297 53.9556ZM32.0006 53.2171H17.8949V55.2171H32.0006V53.2171ZM80.5251 27.4813L73.3524 53.9556L75.2828 54.4786L82.4555 28.0043L80.5251 27.4813ZM52.6769 28.0043C54.7093 20.5029 62.7233 14.3711 70.4948 14.3711V12.3711C61.8201 12.3711 53.0151 19.1082 50.7465 27.4813L52.6769 28.0043ZM45.5041 54.4786L52.6769 28.0043L50.7465 27.4813L43.5737 53.9556L45.5041 54.4786ZM60.899 79.6734C60.0758 82.7118 57.6132 85.4343 54.5958 86.8977L55.4684 88.6972C58.9231 87.0219 61.8322 83.8771 62.8294 80.1964L60.899 79.6734ZM54.9197 71.858C57.2485 71.858 59.012 72.7616 60.0545 74.1242C61.097 75.4868 61.5081 77.4254 60.899 79.6734L62.8294 80.1964C63.5785 77.4315 63.1139 74.8315 61.6429 72.9089C60.1719 70.9864 57.784 69.858 54.9197 69.858V71.858ZM44.0218 80.1964C45.262 75.6192 50.178 71.858 54.9197 71.858V69.858C49.2749 69.858 43.5677 74.2245 42.0914 79.6734L44.0218 80.1964ZM46.1779 86.962C44.1997 85.6607 43.2093 83.1953 44.0218 80.1964L42.0914 79.6734C41.0835 83.3936 42.2855 86.7955 45.0788 88.6329L46.1779 86.962ZM43.6003 99.1066L46.5935 88.0589L44.6631 87.5359L41.6699 98.5836L43.6003 99.1066ZM52.0389 97.8451H42.6351V99.8451H52.0389V97.8451ZM114.207 66.0489L103.109 54.9498L101.694 56.364L112.793 67.4631L114.207 66.0489ZM103.109 54.9498L101.669 53.51L100.254 54.9242L101.694 56.364L103.109 54.9498ZM103.367 55.9184L107.532 40.5432L105.602 40.0202L101.436 55.3954L103.367 55.9184ZM83.8596 115.437L96.398 127.976L97.8122 126.561L85.2738 114.023L83.8596 115.437ZM0.792879 115.437L13.3313 127.976L14.7455 126.561L2.20712 114.023L0.792879 115.437ZM74.3176 53.2171H60.4745V55.2171H74.3176V53.2171ZM60.4745 53.2171H44.5389V55.2171H60.4745V53.2171ZM61.4397 54.4786L65.2153 40.5432L63.2849 40.0202L59.5093 53.9556L61.4397 54.4786ZM107.532 40.5432C109.759 32.3246 108.029 24.8389 103.353 19.7001L101.874 21.0462C106.028 25.6119 107.675 32.367 105.602 40.0202L107.532 40.5432ZM89.4437 5.79865C85.5556 2.30161 80.1515 0.268555 73.7738 0.268555V2.26855C79.7212 2.26855 84.6299 4.15903 88.1062 7.28567L89.4437 5.79865ZM70.4948 14.3711C74.0465 14.3711 76.8546 15.6494 78.6587 17.6686C80.4613 19.6861 81.338 22.528 80.8709 25.8122L82.851 26.0938C83.3926 22.2853 82.3839 18.8362 80.1501 16.336C77.9177 13.8374 74.5383 12.3711 70.4948 12.3711V14.3711ZM80.8709 25.8122C80.7934 26.3566 80.6789 26.9137 80.5251 27.4813L82.4555 28.0043C82.6302 27.3598 82.7616 26.7221 82.851 26.0938L80.8709 25.8122ZM65.2153 40.5432C67.1489 33.4064 74.5074 27.492 81.9337 26.9503L81.7882 24.9556C73.5432 25.5571 65.4479 32.0364 63.2849 40.0202L65.2153 40.5432ZM100.962 53.2171H86.8559V55.2171H100.962V53.2171ZM103.32 19.6659L90.8497 7.20196L89.4358 8.61655L101.906 21.0804L103.32 19.6659ZM89.3994 8.57817C93.5067 13.1424 95.1264 19.8673 93.0635 27.4813L94.9939 28.0043C97.2091 19.8281 95.5086 12.3771 90.8861 7.24033L89.3994 8.57817ZM90.8497 7.20196L89.4819 5.83487L88.068 7.24946L89.4358 8.61655L90.8497 7.20196ZM90.8861 7.24033C90.4324 6.7362 89.9512 6.25516 89.4437 5.79865L88.1062 7.28567C88.5616 7.6953 88.993 8.12657 89.3994 8.57817L90.8861 7.24033ZM54.0669 87.5359L52.0622 94.9353L53.9926 95.4583L55.9973 88.0589L54.0669 87.5359ZM52.0622 94.9353L51.0737 98.5836L53.0041 99.1066L53.9926 95.4583L52.0622 94.9353Z" fill="#0F2830"/>
<defs>
<linearGradient id="paint0_linear_418_322" x1="110.032" y1="114.73" x2="-8.56762" y2="12.0138" gradientUnits="userSpaceOnUse">
<stop stop-color="#2EE297"/>
<stop offset="1" stop-color="#1DC9D4"/>
</linearGradient>
</defs>
</svg>
