<svg width="92" height="101" viewBox="0 0 92 101" fill="none" xmlns="http://www.w3.org/2000/svg">
<path fill-rule="evenodd" clip-rule="evenodd" d="M66.0353 42.6024L60.3995 21.8012C57.287 10.313 45.1154 1 33.2135 1C28.3714 1 24.32 2.54139 21.4268 5.14355C21.0485 5.48382 20.69 5.84222 20.3521 6.21769C16.9225 10.0288 15.6182 15.5979 17.2989 21.8012L22.9346 42.6024H11.8516L24.7333 90.148H90L77.1183 42.6024H66.0353ZM56.1837 42.6024H43.6629H32.7862L27.1504 21.8012C27.0214 21.325 26.9248 20.8556 26.8593 20.3949C26.0666 14.8221 29.8221 10.5091 35.7898 10.5091C42.2508 10.5091 48.8583 15.5648 50.5479 21.8012L56.1837 42.6024ZM47.9391 68.987C45.3964 67.7539 43.2861 65.4489 42.571 62.8093C41.5038 58.8705 43.947 55.6775 48.0274 55.6775C52.1078 55.6775 56.2812 58.8705 57.3484 62.8093C58.0635 65.4489 57.2022 67.7539 55.3277 68.987L57.6795 77.6673H50.2909L49.5142 74.8008L47.9391 68.987Z" fill="url(#paint0_linear_417_2470)"/>
<path d="M35.7898 10.5091C42.2508 10.5091 48.8583 15.5648 50.5479 21.8012L56.1837 42.6024H43.6629L40.6964 31.6532C39.087 25.7129 33.0158 20.844 26.8593 20.3949C26.0666 14.8221 29.8221 10.5091 35.7898 10.5091Z" fill="white"/>
<path d="M17.2989 21.8012L22.9346 42.6024H11.8516L10.7203 43.7337L7.44728 31.6532C5.75791 25.4178 7.0845 19.8232 10.5539 16.0108L20.3521 6.21769C16.9225 10.0288 15.6182 15.5979 17.2989 21.8012Z" fill="white"/>
<path d="M14.8817 100L2 52.4544L10.7203 43.7337L11.8516 42.6024L24.7333 90.148L14.8817 100Z" fill="white"/>
<path d="M80.1484 100H14.8817L24.7333 90.148H90L80.1484 100Z" fill="white"/>
<path d="M42.571 62.8093C43.2861 65.4489 45.3964 67.7539 47.9391 68.987L49.5142 74.8008L50.2909 77.6673H57.6795L55.3277 68.987C57.2022 67.7539 58.0635 65.4489 57.3484 62.8093C56.2812 58.8705 52.1078 55.6775 48.0274 55.6775C43.947 55.6775 41.5038 58.8705 42.571 62.8093Z" fill="white"/>
<path d="M7.44728 31.6532L8.41248 31.3917L7.44728 31.6532ZM2 52.4544L1.0348 52.7159L0.883339 52.1569L1.29288 51.7473L2 52.4544ZM14.8817 100V101H14.1166L13.9165 100.262L14.8817 100ZM80.1484 100L80.8555 100.707L80.5626 101H80.1484V100ZM40.6964 31.6532L41.6616 31.3917L40.6964 31.6532ZM60.3995 21.8012L61.3647 21.5397L60.3995 21.8012ZM66.0353 42.6024V43.6024H65.2702L65.0701 42.8639L66.0353 42.6024ZM17.2989 21.8012L18.2641 21.5397L17.2989 21.8012ZM22.9346 42.6024L23.8998 42.3409L24.2416 43.6024H22.9346V42.6024ZM11.8516 42.6024L11.1445 41.8953L11.4374 41.6024H11.8516V42.6024ZM90 90.148L90.9652 89.8865L91.1167 90.4455L90.7071 90.8551L90 90.148ZM77.1183 42.6024V41.6024H77.8834L78.0835 42.3409L77.1183 42.6024ZM32.7862 42.6024V43.6024H32.0211L31.821 42.8639L32.7862 42.6024ZM56.1837 42.6024L57.1489 42.3409L57.4907 43.6024H56.1837V42.6024ZM27.1504 21.8012L28.1157 21.5397L27.1504 21.8012ZM50.5479 21.8012L49.5827 22.0627L50.5479 21.8012ZM42.571 62.8093L41.6058 63.0708L42.571 62.8093ZM47.9391 68.987L48.3754 68.0872L48.7852 68.2859L48.9043 68.7255L47.9391 68.987ZM57.3484 62.8093L56.3831 63.0708L57.3484 62.8093ZM55.3277 68.987L54.3625 69.2485L54.1732 68.5495L54.7782 68.1515L55.3277 68.987ZM57.6795 77.6673L58.6447 77.4058L58.9865 78.6673H57.6795V77.6673ZM50.2909 77.6673V78.6673H49.5257L49.3257 77.9288L50.2909 77.6673ZM10.5539 16.0108L9.81425 15.3377L9.83018 15.3202L9.84693 15.3035L10.5539 16.0108ZM21.4268 5.14355L20.7581 4.40004L21.4268 5.14355ZM49.5142 74.8008L50.4794 74.5392L49.5142 74.8008ZM13.9165 100.262L1.0348 52.7159L2.9652 52.1929L15.8469 99.7385L13.9165 100.262ZM80.1484 101H14.8817V99H80.1484V101ZM61.3647 21.5397L67.0005 42.3409L65.0701 42.8639L59.4343 22.0627L61.3647 21.5397ZM33.2135 0C45.567 0 58.1341 9.61568 61.3647 21.5397L59.4343 22.0627C56.4399 11.0104 44.6638 2 33.2135 2V0ZM21.9694 42.8639L16.3337 22.0627L18.2641 21.5397L23.8998 42.3409L21.9694 42.8639ZM23.7681 90.4095L10.8864 42.8639L12.8168 42.3409L25.6985 89.8865L23.7681 90.4095ZM90 91.148H24.7333V89.148H90V91.148ZM78.0835 42.3409L90.9652 89.8865L89.0348 90.4095L76.1531 42.8639L78.0835 42.3409ZM66.0353 41.6024H77.1183V43.6024H66.0353V41.6024ZM28.1157 21.5397L33.7514 42.3409L31.821 42.8639L26.1852 22.0627L28.1157 21.5397ZM49.5827 22.0627C48.0112 16.2621 41.7992 11.5091 35.7898 11.5091V9.50912C42.7024 9.50912 49.7054 14.8674 51.5131 21.5397L49.5827 22.0627ZM55.2185 42.8639L49.5827 22.0627L51.5131 21.5397L57.1489 42.3409L55.2185 42.8639ZM43.5362 62.5478C44.1643 64.8663 46.0514 66.9602 48.3754 68.0872L47.5027 69.8868C44.7415 68.5477 42.4079 66.0315 41.6058 63.0708L43.5362 62.5478ZM48.0274 56.6775C46.255 56.6775 44.9363 57.3633 44.1631 58.374C43.3898 59.3846 43.0726 60.8368 43.5362 62.5478L41.6058 63.0708C41.0022 60.8429 41.373 58.7293 42.5747 57.1587C43.7763 55.5881 45.7194 54.6775 48.0274 54.6775V56.6775ZM56.3831 63.0708C55.4341 59.5678 51.6562 56.6775 48.0274 56.6775V54.6775C52.5594 54.6775 57.1283 58.1731 58.3136 62.5478L56.3831 63.0708ZM54.7782 68.1515C56.2451 67.1866 57.0006 65.3498 56.3831 63.0708L58.3136 62.5478C59.1264 65.548 58.1593 68.3213 55.8773 69.8224L54.7782 68.1515ZM56.7143 77.9288L54.3625 69.2485L56.2929 68.7255L58.6447 77.4058L56.7143 77.9288ZM50.2909 76.6673H57.6795V78.6673H50.2909V76.6673ZM1.29288 51.7473L10.0132 43.0266L11.4274 44.4408L2.70712 53.1615L1.29288 51.7473ZM10.0132 43.0266L11.1445 41.8953L12.5587 43.3095L11.4274 44.4408L10.0132 43.0266ZM9.7551 43.9952L6.48208 31.9147L8.41248 31.3917L11.6855 43.4722L9.7551 43.9952ZM25.4404 90.8551L15.5888 100.707L14.1746 99.2929L24.0262 89.4409L25.4404 90.8551ZM90.7071 90.8551L80.8555 100.707L79.4413 99.2929L89.2929 89.4409L90.7071 90.8551ZM32.7862 41.6024H43.6629V43.6024H32.7862V41.6024ZM43.6629 41.6024H56.1837V43.6024H43.6629V41.6024ZM42.6977 42.8639L39.7312 31.9147L41.6616 31.3917L44.6281 42.3409L42.6977 42.8639ZM6.48208 31.9147C4.71612 25.3966 6.08417 19.4367 9.81425 15.3377L11.2935 16.6838C8.08483 20.2098 6.79971 25.439 8.41248 31.3917L6.48208 31.9147ZM20.7581 4.40004C23.8572 1.61268 28.1562 0 33.2135 0V2C28.5866 2 24.7828 3.4701 22.0956 5.88706L20.7581 4.40004ZM35.7898 11.5091C33.0518 11.5091 30.9067 12.4933 29.5351 14.0285C28.165 15.562 27.4903 17.7298 27.8493 20.2541L25.8692 20.5357C25.4356 17.4872 26.2424 14.7121 28.0437 12.696C29.8436 10.6814 32.5601 9.50912 35.7898 9.50912V11.5091ZM27.8493 20.2541C27.9089 20.6729 27.997 21.1019 28.1157 21.5397L26.1852 22.0627C26.0458 21.548 25.9407 21.0384 25.8692 20.5357L27.8493 20.2541ZM39.7312 31.9147C38.2365 26.3979 32.5337 21.8115 26.7865 21.3922L26.932 19.3975C33.4979 19.8765 39.9374 25.028 41.6616 31.3917L39.7312 31.9147ZM11.8516 41.6024H22.9346V43.6024H11.8516V41.6024ZM9.84693 15.3035L19.6452 5.5104L21.059 6.92498L11.2608 16.718L9.84693 15.3035ZM21.0955 6.88661C17.9235 10.4114 16.6595 15.6175 18.2641 21.5397L16.3337 22.0627C14.5768 15.5783 15.9216 9.64613 19.6088 5.54877L21.0955 6.88661ZM19.6452 5.51039L20.7199 4.43625L22.1338 5.85084L21.059 6.92498L19.6452 5.51039ZM19.6088 5.54877C19.9703 5.14704 20.3537 4.76374 20.7581 4.40004L22.0956 5.88706C21.7433 6.20389 21.4097 6.53741 21.0955 6.88661L19.6088 5.54877ZM48.9043 68.7255L50.4794 74.5392L48.549 75.0623L46.9739 69.2485L48.9043 68.7255ZM50.4794 74.5392L51.2561 77.4058L49.3257 77.9288L48.549 75.0623L50.4794 74.5392Z" fill="#0F2830"/>
<defs>
<linearGradient id="paint0_linear_417_2470" x1="4.72485" y1="90.148" x2="97.9103" y2="9.44268" gradientUnits="userSpaceOnUse">
<stop stop-color="#2EE297"/>
<stop offset="1" stop-color="#1DC9D4"/>
</linearGradient>
</defs>
</svg>
