<svg width="126" height="140" viewBox="0 0 126 140" fill="none" xmlns="http://www.w3.org/2000/svg">
<path fill-rule="evenodd" clip-rule="evenodd" d="M41.8527 49.1099L41.8437 49.1245L25.8526 75.138L52.8201 82.364L58.6731 73.2025C63.6838 73.6996 68.4912 73.686 73.0952 73.1617C81.3698 72.1266 88.6745 69.6702 95.0092 65.7923C101.518 61.845 106.734 56.6802 110.658 50.2978L111.761 48.5028C115.746 42.0207 117.575 35.832 117.248 29.9369C117.108 27.4208 116.588 25.0355 115.688 22.7811C115.674 22.7454 115.66 22.7098 115.645 22.6742C114.435 19.6877 112.554 16.9317 110.004 14.4062C105.563 9.84781 99.0453 6.41733 90.4519 4.11473C81.1801 1.63034 72.2842 1.10512 63.7644 2.53906C55.2445 3.973 47.6334 6.92808 40.9309 11.4043C34.4027 15.8111 29.1157 21.3054 25.0697 27.8872L51.0195 34.8404C52.736 32.0482 54.947 29.7368 57.6526 27.9065C60.3581 26.0761 63.3531 24.846 66.6376 24.2161C69.9834 23.4865 73.4655 23.6064 77.0837 24.5759C80.4759 25.4849 82.9607 26.9057 84.5383 28.8383C86.2902 30.7016 87.1138 32.8968 87.0089 35.424C87.0773 37.8435 86.2506 40.4735 84.5287 43.3139C84.5015 43.3588 84.4741 43.4037 84.4464 43.4487C81.933 47.5374 78.3175 50.6339 73.5998 52.7382C69.201 54.6319 64.2057 54.9146 58.6141 53.5862C58.6038 53.5837 58.5936 53.5813 58.5833 53.5788C58.2661 53.5032 57.9471 53.4224 57.6262 53.3364L41.8527 49.1099ZM16.0931 87.158L1.28846 111.241L32.1569 119.513L46.9616 95.4292L32.4764 91.5479L16.0931 87.158Z" fill="url(#paint0_linear_449_493)"/>
<path d="M32.6474 46.6603L41.8437 49.1245L41.8527 49.1099L57.6262 53.3364C57.9471 53.4224 58.2661 53.5032 58.5833 53.5788L51.0195 34.8404L25.0697 27.8872L32.6474 46.6603Z" fill="white"/>
<path d="M74.2153 42.9892C77.5202 42.2685 80.958 42.3767 84.5287 43.3139C86.2506 40.4735 87.0773 37.8435 87.0089 35.424C87.1138 32.8968 86.2902 30.7016 84.5383 28.8383C82.9607 26.9057 80.4759 25.4849 77.0837 24.5759C73.4655 23.6064 69.9834 23.4865 66.6376 24.2161C63.3531 24.846 60.3581 26.0761 57.6526 27.9065C54.947 29.7368 52.736 32.0482 51.0195 34.8404L58.5833 53.5788C58.5936 53.5813 58.6038 53.5837 58.6141 53.5862C60.3282 50.8062 62.5336 48.504 65.2303 46.6796C67.9358 44.8492 70.9308 43.6191 74.2153 42.9892Z" fill="white"/>
<path d="M119.339 67.2759C123.324 60.7938 125.153 54.6052 124.826 48.71C124.704 46.5209 124.295 44.4309 123.598 42.4399L115.688 22.7811C116.588 25.0355 117.108 27.4208 117.248 29.9369C117.575 35.832 115.746 42.0207 111.761 48.5028L110.658 50.2978C106.734 56.6802 101.518 61.845 95.0092 65.7923C88.6745 69.6702 81.3698 72.1266 73.0952 73.1617C68.4912 73.686 63.6838 73.6996 58.6731 73.2025C61.0298 79.4148 65.8446 91.8667 66.2508 91.9756C71.2615 92.4727 76.0689 92.4591 80.6729 91.9348C88.9476 90.8997 96.2522 88.4433 102.587 84.5654C109.096 80.6181 114.312 75.4533 118.236 69.0709L119.339 67.2759Z" fill="white"/>
<path d="M60.3978 101.137L66.2508 91.9756C65.8446 91.8667 61.0298 79.4148 58.6731 73.2025L52.8201 82.364L60.3978 101.137Z" fill="white"/>
<path d="M52.8201 82.364L25.8526 75.138L32.4764 91.5479L46.9616 95.4292L47.9156 97.7925L60.3978 101.137L52.8201 82.364Z" fill="white"/>
<path d="M39.7347 138.286L54.5393 114.202L47.9156 97.7925L46.9616 95.4292L32.1569 119.513L39.7347 138.286Z" fill="white"/>
<path d="M8.86619 130.015L39.7347 138.286L32.1569 119.513L1.28846 111.241L8.86619 130.015Z" fill="white"/>
<path d="M25.8526 75.138L25.0007 74.6143L24.7364 75.0443L24.9253 75.5123L25.8526 75.138ZM74.2153 42.9892L74.4037 43.9713L74.4161 43.9689L74.4284 43.9662L74.2153 42.9892ZM65.2303 46.6796L65.7906 47.5078L65.7906 47.5078L65.2303 46.6796ZM58.5973 53.6136L58.3385 54.5795L59.0587 54.7725L59.4492 54.1373L58.5973 53.6136ZM32.6474 46.6603L31.7201 47.0346L31.9068 47.4971L32.3886 47.6262L32.6474 46.6603ZM124.826 48.71L123.827 48.7654L124.826 48.71ZM119.339 67.2759L120.191 67.7996L119.339 67.2759ZM118.236 69.0709L117.384 68.5472L118.236 69.0709ZM102.587 84.5654L102.068 83.7104L102.065 83.7125L102.587 84.5654ZM80.6729 91.9348L80.7861 92.9284L80.7971 92.9271L80.6729 91.9348ZM60.3978 101.137L60.139 102.103L60.8463 102.293L61.2406 101.675L60.3978 101.137ZM8.86619 130.015L7.93888 130.389L8.12558 130.851L8.60737 130.981L8.86619 130.015ZM54.5393 114.202L55.3913 114.726L55.6556 114.296L55.4666 113.828L54.5393 114.202ZM39.7347 138.286L39.4758 139.252L40.1961 139.445L40.5866 138.809L39.7347 138.286ZM41.8527 49.1099L42.1115 48.144L41.3913 47.951L41.0008 48.5862L41.8527 49.1099ZM73.5998 52.7382L73.9953 53.6568L74.0072 53.6515L73.5998 52.7382ZM84.4464 43.4487L85.2983 43.9724L84.4464 43.4487ZM87.0089 35.424L86.0097 35.3825L86.0083 35.4174L86.0093 35.4523L87.0089 35.424ZM84.5383 28.8383L83.7636 29.4707L83.7858 29.4978L83.8098 29.5233L84.5383 28.8383ZM66.6376 24.2161L66.8259 25.1982L66.8383 25.1958L66.8507 25.1931L66.6376 24.2161ZM57.6526 27.9065L58.2129 28.7347L57.6526 27.9065ZM25.0697 27.8872L24.2178 27.3635L23.9535 27.7935L24.1424 28.2615L25.0697 27.8872ZM40.9309 11.4043L40.3755 10.5727L40.3714 10.5755L40.9309 11.4043ZM63.7644 2.53906L63.9303 3.52519L63.7644 2.53906ZM110.004 14.4062L109.287 15.104L109.294 15.1104L109.3 15.1167L110.004 14.4062ZM117.248 29.9369L116.249 29.9923L116.249 29.9923L117.248 29.9369ZM111.761 48.5028L112.613 49.0265L111.761 48.5028ZM110.658 50.2978L109.806 49.7741L109.806 49.7741L110.658 50.2978ZM95.0092 65.7923L94.4907 64.9372L94.4871 64.9394L95.0092 65.7923ZM73.0952 73.1617L73.2084 74.1553L73.2193 74.1539L73.0952 73.1617ZM1.28846 111.241L0.436553 110.718L0.172241 111.148L0.361159 111.616L1.28846 111.241ZM16.0931 87.158L16.352 86.1921L15.6317 85.9991L15.2412 86.6343L16.0931 87.158ZM46.9616 95.4292L47.8889 95.0549L47.7022 94.5923L47.2204 94.4632L46.9616 95.4292ZM58.6731 73.2025L58.7718 72.2073L58.1609 72.1467L57.8304 72.6641L58.6731 73.2025ZM123.598 42.4399L124.542 42.1094L124.534 42.0878L124.525 42.0666L123.598 42.4399ZM115.645 22.6742L116.572 22.2985L116.572 22.2985L115.645 22.6742ZM74.027 42.0071C70.6126 42.6619 67.4905 43.9431 64.6699 45.8513L65.7906 47.5078C68.3811 45.7553 71.2491 44.5763 74.4037 43.9713L74.027 42.0071ZM123.827 48.7654C124.14 54.4055 122.396 60.3938 118.487 66.7522L120.191 67.7996C124.252 61.1938 126.165 54.8048 125.824 48.6546L123.827 48.7654ZM118.487 66.7522L117.384 68.5472L119.087 69.5946L120.191 67.7996L118.487 66.7522ZM117.384 68.5472C113.545 74.792 108.444 79.8441 102.068 83.7104L103.105 85.4205C109.748 81.3922 115.08 76.1146 119.087 69.5946L117.384 68.5472ZM102.065 83.7125C95.8655 87.5076 88.6998 89.9229 80.5488 90.9425L80.7971 92.9271C89.1954 91.8765 96.639 89.379 103.109 85.4183L102.065 83.7125ZM53.6874 113.679L38.8828 137.762L40.5866 138.809L55.3913 114.726L53.6874 113.679ZM39.9935 137.32L9.12501 129.049L8.60737 130.981L39.4758 139.252L39.9935 137.32ZM61.2406 101.675L67.0935 92.514L65.4081 91.4372L59.5551 100.599L61.2406 101.675ZM66.1521 92.9707C71.2273 93.4742 76.1059 93.4613 80.7861 92.9284L80.5598 90.9412C76.0319 91.4568 71.2958 91.4712 66.3495 90.9805L66.1521 92.9707ZM41.5939 50.0758L57.3673 54.3023L57.885 52.3705L42.1115 48.144L41.5939 50.0758ZM74.0072 53.6515C78.8941 51.4717 82.6712 48.2461 85.2983 43.9724L83.5945 42.925C81.1948 46.8288 77.7408 49.7962 73.1925 51.8249L74.0072 53.6515ZM88.008 35.4655C88.1242 32.6662 87.2007 30.21 85.2668 28.1533L83.8098 29.5233C85.3798 31.1931 86.1033 33.1274 86.0097 35.3825L88.008 35.4655ZM85.313 28.206C83.5585 26.0565 80.8573 24.5518 77.3426 23.61L76.8249 25.5419C80.0945 26.4179 82.363 27.7548 83.7636 29.4707L85.313 28.206ZM77.3426 23.61C73.5849 22.6032 69.9406 22.4723 66.4245 23.239L66.8507 25.1931C70.0263 24.5006 73.346 24.6097 76.8249 25.5419L77.3426 23.61ZM66.4493 23.234C63.0349 23.8888 59.9127 25.17 57.0922 27.0782L58.2129 28.7347C60.8034 26.9821 63.6713 25.8031 66.8259 25.1982L66.4493 23.234ZM57.0922 27.0782C54.2685 28.9885 51.9583 31.4038 50.1676 34.3168L51.8715 35.3641C53.5138 32.6925 55.6255 30.4852 58.2129 28.7347L57.0922 27.0782ZM51.2784 33.8745L25.3285 26.9213L24.8109 28.8531L50.7607 35.8064L51.2784 33.8745ZM25.9216 28.4109C29.8915 21.9529 35.078 16.5618 41.4904 12.2331L40.3714 10.5755C33.7275 15.0604 28.3399 20.6579 24.2178 27.3635L25.9216 28.4109ZM41.4862 12.2359C48.063 7.84364 55.5396 4.93741 63.9303 3.52519L63.5984 1.55293C54.9495 3.0086 47.2037 6.01252 40.3755 10.5727L41.4862 12.2359ZM63.9303 3.52519C72.2938 2.11758 81.0443 2.62924 90.1931 5.08066L90.7107 3.1488C81.3158 0.631453 72.2746 0.0926677 63.5984 1.55293L63.9303 3.52519ZM90.1931 5.08066C98.6786 7.35435 105.012 10.7159 109.287 15.104L110.72 13.7083C106.113 8.97968 99.412 5.48031 90.7107 3.1488L90.1931 5.08066ZM116.249 29.9923C116.562 35.6324 114.818 41.6206 110.909 47.9791L112.613 49.0265C116.674 42.4207 118.587 36.0317 118.246 29.8815L116.249 29.9923ZM110.909 47.9791L109.806 49.7741L111.51 50.8215L112.613 49.0265L110.909 47.9791ZM109.806 49.7741C105.967 56.0189 100.866 61.071 94.4906 64.9372L95.5277 66.6474C102.17 62.6191 107.502 57.3415 111.51 50.8215L109.806 49.7741ZM94.4871 64.9394C88.2877 68.7344 81.122 71.1498 72.9711 72.1694L73.2193 74.1539C81.6177 73.1034 89.0613 70.6059 95.5313 66.6452L94.4871 64.9394ZM53.0789 81.398L26.1114 74.1721L25.5938 76.104L52.5613 83.3299L53.0789 81.398ZM2.14037 111.765L16.9451 87.6817L15.2412 86.6343L0.436553 110.718L2.14037 111.765ZM46.1097 94.9055L31.305 118.989L33.0089 120.036L47.8135 95.9529L46.1097 94.9055ZM32.4158 118.547L1.54728 110.276L1.02965 112.207L31.8981 120.479L32.4158 118.547ZM53.6628 82.9023L59.5158 73.7408L57.8304 72.6641L51.9774 81.8256L53.6628 82.9023ZM58.5744 74.1976C63.6495 74.7011 68.5282 74.6882 73.2084 74.1552L72.9821 72.1681C68.4542 72.6837 63.7181 72.698 58.7718 72.2073L58.5744 74.1976ZM24.1424 28.2615L31.7201 47.0346L33.5747 46.286L25.997 27.5129L24.1424 28.2615ZM122.654 42.7704C123.319 44.6693 123.711 46.6664 123.827 48.7654L125.824 48.6546C125.698 46.3754 125.271 44.1925 124.542 42.1094L122.654 42.7704ZM109.3 15.1167C111.765 17.5578 113.564 20.2026 114.718 23.0499L116.572 22.2985C115.305 19.1729 113.343 16.3057 110.707 13.6956L109.3 15.1167ZM51.8928 82.7383L59.4705 101.511L61.3252 100.763L53.7474 81.9896L51.8928 82.7383ZM66.5096 91.0097C66.7319 91.0692 66.8665 91.1902 66.899 91.2196C66.9488 91.2645 66.9787 91.3022 66.9874 91.3133C67.0058 91.3368 67.0063 91.3415 66.9862 91.3074C66.9493 91.2447 66.8897 91.1317 66.8059 90.958C66.6411 90.6164 66.4178 90.114 66.1468 89.478C65.6065 88.21 64.8966 86.4585 64.1229 84.5089C62.5763 80.6122 60.7854 75.9513 59.6081 72.8478L57.7381 73.5571C58.9175 76.666 60.7123 81.3372 62.2639 85.2467C63.0393 87.2003 63.7565 88.9705 64.3069 90.262C64.5812 90.9057 64.8191 91.4425 65.0046 91.827C65.0959 92.0163 65.1838 92.1881 65.2631 92.3227C65.3012 92.3873 65.3521 92.4688 65.4127 92.5463C65.4425 92.5843 65.4914 92.6432 65.5581 92.7035C65.6076 92.7482 65.7571 92.8786 65.992 92.9415L66.5096 91.0097ZM31.2296 119.887L38.8074 138.66L40.662 137.911L33.0842 119.138L31.2296 119.887ZM9.79349 129.64L2.21577 110.867L0.361159 111.616L7.93888 130.389L9.79349 129.64ZM46.0343 95.8035L46.9883 98.1668L48.8429 97.4182L47.8889 95.0549L46.0343 95.8035ZM46.9883 98.1668L53.612 114.577L55.4666 113.828L48.8429 97.4182L46.9883 98.1668ZM60.6567 100.171L48.1744 96.8265L47.6567 98.7584L60.139 102.103L60.6567 100.171ZM15.8343 88.1239L32.2176 92.5138L32.7352 90.5819L16.352 86.1921L15.8343 88.1239ZM32.2176 92.5138L46.7028 96.3951L47.2204 94.4632L32.7352 90.5819L32.2176 92.5138ZM33.4037 91.1736L26.7799 74.7637L24.9253 75.5123L31.5491 91.9222L33.4037 91.1736ZM32.3886 47.6262L41.5849 50.0904L42.1026 48.1585L32.9062 45.6944L32.3886 47.6262ZM42.6956 49.6482L42.7046 49.6336L41.0008 48.5862L40.9919 48.6007L42.6956 49.6482ZM57.3673 54.3023C57.697 54.3906 58.025 54.4737 58.3512 54.5516L58.8153 52.6061C58.5073 52.5327 58.1972 52.4541 57.885 52.3705L57.3673 54.3023ZM59.5106 53.2045L51.9469 34.4661L50.0922 35.2147L57.656 53.9531L59.5106 53.2045ZM26.7045 75.6617L42.6956 49.6482L40.9918 48.6008L25.0007 74.6143L26.7045 75.6617ZM57.6559 53.9531L57.67 53.9878L59.5246 53.2393L59.5106 53.2046L57.6559 53.9531ZM58.8561 52.6476L42.1026 48.1585L41.5849 50.0904L58.3385 54.5795L58.8561 52.6476ZM74.4284 43.9662C77.5653 43.2822 80.8426 43.3803 84.2749 44.2811L84.7826 42.3466C81.0734 41.3732 77.4751 41.2549 74.0023 42.0122L74.4284 43.9662ZM85.3839 43.8323C87.1696 40.8866 88.084 38.0668 88.0085 35.3957L86.0093 35.4523C86.0706 37.6203 85.3316 40.0604 83.6736 42.7955L85.3839 43.8323ZM58.3514 54.5516C58.3616 54.554 58.3723 54.5566 58.3832 54.5592L58.8451 52.6132C58.8353 52.6109 58.8255 52.6086 58.8152 52.6061L58.3514 54.5516ZM59.4653 54.111C61.1053 51.4512 63.2117 49.2526 65.7906 47.5078L64.6699 45.8513C61.8555 47.7554 59.5511 50.1611 57.7629 53.0614L59.4653 54.111ZM57.7629 53.0614C57.7571 53.0708 57.7512 53.0803 57.7454 53.0899L59.4492 54.1373C59.4545 54.1285 59.4599 54.1198 59.4653 54.111L57.7629 53.0614ZM58.383 54.5591C64.1408 55.927 69.3617 55.6514 73.9952 53.6567L73.2044 51.8197C69.0402 53.6124 64.2706 53.9022 58.8453 52.6133L58.383 54.5591ZM85.2983 43.9724C85.3271 43.9256 85.3556 43.8789 85.3839 43.8323L83.6736 42.7955C83.6474 42.8386 83.6211 42.8818 83.5945 42.925L85.2983 43.9724ZM84.9203 42.3831C84.8744 42.3708 84.8285 42.3587 84.7826 42.3466L84.2749 44.2811C84.3175 44.2923 84.3601 44.3036 84.4027 44.315L84.9203 42.3831ZM124.525 42.0666L116.616 22.4078L114.761 23.1543L122.67 42.8132L124.525 42.0666ZM114.76 23.1519C115.618 25.3019 116.116 27.5802 116.249 29.9923L118.246 29.8815C118.101 27.2613 117.559 24.7692 116.617 22.4103L114.76 23.1519ZM116.616 22.4079L116.573 22.301L114.718 23.0474L114.761 23.1543L116.616 22.4079ZM114.718 23.0499C114.732 23.0838 114.746 23.1178 114.76 23.1519L116.617 22.4103C116.602 22.373 116.587 22.3358 116.572 22.2985L114.718 23.0499Z" fill="#0F2830"/>
<defs>
<linearGradient id="paint0_linear_449_493" x1="116.346" y1="-27.0415" x2="-5.89792" y2="24.5768" gradientUnits="userSpaceOnUse">
<stop stop-color="#2EE297"/>
<stop offset="1" stop-color="#1DC9D4"/>
</linearGradient>
</defs>
</svg>
